<?xml version="1.0" encoding="UTF-8"?>
<svg viewBox="0 0 77 40" version="1.1" xmlns="http://www.w3.org/2000/svg" xmlns:xlink="http://www.w3.org/1999/xlink">
    <title>SPIN-TXT0</title>
    <g id="EMAILS-MOBILE" stroke="none" stroke-width="1" fill="none" fill-rule="evenodd">
        <g id="SPIN---MOBILE---EMAILS---PAGE-1---SIGN-UP-CONFIRMATION" transform="translate(-16.000000, -720.000000)" fill="#000000" fill-rule="nonzero">
            <g id="SPIN-TXT0" transform="translate(16.189873, 720.000000)">
                <path d="M11.373684,11.1679935 C7.5553487,10.3798054 4.85166586,9.61665646 4.85166586,6.95107845 C4.85166586,4.59576784 6.87332884,3.19031095 10.2595737,3.19031095 C13.7835236,3.19031095 15.9645776,4.84507042 16.3972102,7.84976526 L16.4226911,8.02449479 L20.2610858,8.02449479 L20.228557,7.79152208 C19.7270718,4.23705518 17.5845103,0 10.2248763,0 C4.67275764,0 1.08429229,2.79676124 1.08429229,7.12471933 C1.08429229,12.3268694 5.19104935,13.6256379 9.7640521,14.5923658 C14.3039839,15.6091719 17.0868201,16.394094 17.0868201,19.5746071 C17.0868201,22.3648364 14.9480535,24.0304824 11.3671783,24.0304824 C6.9009783,24.0304824 4.32469981,22.0012247 3.91483732,18.1615296 L3.89532006,17.9791794 L0,17.9791794 L0.0119272152,18.1969109 C0.388176641,24.9008641 6.07203684,27.2904674 11.2641705,27.2904674 C17.216393,27.2904674 21.0623778,24.2073893 21.0623778,19.4358032 C21.0623778,13.6011431 16.6742469,12.2392325 11.373684,11.1679935 Z" id="Path"></path>
                <path d="M35.4086491,0.489895897 L24.3629635,0.489895897 L24.3629635,26.7690005 L28.3379791,26.7690005 L28.3379791,16.1273729 L35.0605913,16.1273729 C40.5747597,16.1273729 43.6113203,13.337688 43.6113203,8.27216439 C43.6349545,6.36458401 42.9660293,4.51361891 41.729531,3.06511533 C40.3427212,1.37824046 38.1567879,0.489895897 35.4086491,0.489895897 Z M28.3379791,3.99047425 L34.8540336,3.99047425 C38.0066134,3.99047425 39.6731707,5.50697421 39.6731707,8.37667551 C39.6731707,11.2915561 37.9589046,12.8325509 34.7152442,12.8325509 L28.3379791,12.8325509 L28.3379791,3.99047425 Z" id="Shape"></path>
                <rect id="Rectangle" x="46.4987907" y="0.487174253" width="3.93977605" height="26.2818262"></rect>
                <path d="M72.0956788,0.489895897 L72.0956788,16.5143907 C72.0956788,18.0385113 72.2182039,20.1864326 72.289225,21.3088385 C71.7470789,20.263183 70.6351371,18.1702388 69.7324638,16.7854664 L59.1687461,0.579165816 L59.1085679,0.489895897 L55.0885542,0.489895897 L55.0885542,26.7690005 L58.8228569,26.7690005 L58.8228569,10.706947 C58.8228569,9.24106961 58.719307,7.12145336 58.660213,5.99904742 C59.2272979,7.0332721 60.3625519,9.07341634 61.2565509,10.470164 L71.7801498,26.6764646 L71.8408701,26.7690005 L75.8256443,26.7690005 L75.8256443,0.489895897 L72.0956788,0.489895897 Z" id="Path"></path>
                <path d="M4.4455984,36.1891542 C4.36916074,35.5794185 3.82743678,35.1386677 3.21748968,35.1899555 C2.60754259,35.2412432 2.146381,35.7663223 2.17201892,36.3803295 C2.19765684,36.9943367 2.70097274,37.478819 3.3130551,37.4786692 C3.64019955,37.4771835 3.95111854,37.3354022 4.16749123,37.08904 C4.38386391,36.8426779 4.48506376,36.5152203 4.4455984,36.1891542 M2.24828007,37.7628087 L2.24828007,38.2935293 L1.22850317,38.2935293 L1.22850317,32.2737974 L2.24828007,32.2737974 L2.24828007,34.5871947 C2.54250374,34.2042087 3.0035935,33.9884648 3.48491543,34.0085732 C4.72155079,34.0085732 5.46754389,34.8996394 5.46754389,36.1793563 C5.46754389,37.4688712 4.72155079,38.3506838 3.46594031,38.3506838 C2.98686367,38.3755262 2.52809042,38.1540348 2.24828007,37.7628087" id="Shape"></path>
                <polygon id="Path" points="8.61144939 34.0842349 7.64805569 36.9757093 6.67598765 34.0842349 5.63723563 34.0842349 7.16662991 38.2935293 6.57189559 40 7.54450577 40 8.19616544 38.094305 9.65941789 34.0842349"></polygon>
                <path d="M73.7578989,37.377424 C73.4490102,37.3616222 73.1598177,37.2203243 72.9568306,36.9860264 C72.7538435,36.7517284 72.654533,36.4445966 72.6817388,36.1352657 C72.6076892,35.7065437 72.7942258,35.2745996 73.1565303,35.035839 C73.5188347,34.7970784 73.9877467,34.7970784 74.3500511,35.035839 C74.7123555,35.2745996 74.8988922,35.7065437 74.8248425,36.1352657 C74.8558403,36.4438926 74.759117,36.7517433 74.5573478,36.9866473 C74.3555786,37.2215513 74.0665062,37.3628521 73.7578989,37.377424 M73.7578989,33.8224127 C72.8305982,33.7869276 71.97462,34.3199878 71.5942432,35.1698287 C71.2138664,36.0196696 71.3851992,37.0162495 72.0273212,37.6888832 C72.6694432,38.361517 73.6538743,38.5756197 74.5156672,38.2300704 C75.3774602,37.8845212 75.9441819,37.0484599 75.9481694,36.1167585 C75.9677581,35.5189246 75.7463887,34.9384222 75.3341467,34.5065916 C74.9219047,34.0747611 74.3536309,33.8280987 73.7578989,33.8224127" id="Shape"></path>
                <path d="M68.8015989,37.377424 C68.4901707,37.3643657 68.1974577,37.2245752 67.9908586,36.99024 C67.7842596,36.7559049 67.6815804,36.4472213 67.7064636,36.1352657 C67.6760097,35.8182925 67.7756418,35.5025608 67.9823382,35.2610263 C68.1890346,35.0194919 68.4849107,34.8730536 68.8015989,34.8555488 C69.2870894,34.8688465 69.7061201,35.200992 69.8316765,35.6720419 L71.0027122,35.6720419 C70.7628619,34.5348668 69.7035162,33.7654014 68.5527214,33.8924687 C67.4019266,34.019536 66.5344487,35.0017555 66.5464709,36.1640868 C66.5584932,37.326418 67.4461004,38.2903379 68.5992753,38.3933825 C69.7524502,38.4964271 70.7956517,37.7050391 71.0119287,36.5631081 L69.8414352,36.5631081 C69.7116717,37.0349938 69.2900834,37.3663761 68.8026831,37.3796013" id="Path"></path>
                <path d="M46.9373869,36.5244608 L46.9373869,32.400626 L45.8232766,32.400626 L45.8232766,36.5337144 C45.7733309,37.038881 45.9511556,37.539982 46.3079958,37.8996287 C46.6648361,38.2592754 47.1632455,38.439727 47.6665735,38.3915085 L48.0628823,38.3915085 L48.0628823,37.2919643 L47.67579,37.2919643 C47.137981,37.3017623 46.9395555,37.0742328 46.9395555,36.5244608" id="Path"></path>
                <path d="M50.8175269,37.3208138 C50.1851528,37.2529457 49.7055462,36.7171925 49.7055462,36.0786555 C49.7055462,35.4401186 50.1851528,34.9043653 50.8175269,34.8364972 C51.4685235,34.8753797 51.9661704,35.4345991 51.9316372,36.0884534 C51.9316372,36.4014425 51.9408537,37.3306117 51.9408537,37.3306117 L50.8175269,37.3208138 Z M50.8175269,33.7826767 C50.2140371,33.7769112 49.6342795,34.0183739 49.2120538,34.4513388 C48.7898281,34.8843037 48.5616175,35.4713597 48.5800897,36.0770225 C48.5344887,37.2822153 49.4662415,38.2984331 50.6662681,38.3523168 L53.0457475,38.3523168 L53.0457475,36.0770225 C53.0663208,35.4723679 52.8400679,34.8855024 52.4193861,34.4523364 C51.9987043,34.0191703 51.4200843,33.7772773 50.8175269,33.7826767" id="Shape"></path>
                <path d="M63.7130151,37.3208138 C63.080641,37.2529457 62.6010345,36.7171925 62.6010345,36.0786555 C62.6010345,35.4401186 63.080641,34.9043653 63.7130151,34.8364972 C64.3640117,34.8753797 64.8616586,35.4345991 64.8271255,36.0884534 C64.8271255,36.4014425 64.8368841,37.3306117 64.8368841,37.3306117 L63.7130151,37.3208138 Z M63.7130151,33.7826767 C63.1095254,33.7769112 62.5297678,34.0183739 62.1075421,34.4513388 C61.6853164,34.8843037 61.4571058,35.4713597 61.475578,36.0770225 C61.4299826,37.2824183 62.3620569,38.2987228 63.5622985,38.3523168 L65.9412358,38.3523168 L65.9412358,36.0770225 C65.961809,35.4723679 65.7355562,34.8855024 65.3148743,34.4523364 C64.8941925,34.0191703 64.3155725,33.7772773 63.7130151,33.7826767" id="Shape"></path>
                <path d="M60.2324369,36.5620195 L60.2324369,32.4098796 L59.10911,32.4098796 L59.10911,36.5620195 C59.10911,37.7595428 59.7792027,38.5150711 61.0537883,38.3822549 L61.0537883,37.367626 C60.5062207,37.4057291 60.2324369,37.1781996 60.2324369,36.5620195" id="Path"></path>
                <path d="M56.085561,37.3491189 C55.4972159,37.3229175 55.0219579,36.8579213 54.9806671,36.2680819 L54.9806671,34.8555488 L56.085561,34.8648023 C56.7179351,34.9326704 57.1975416,35.4684236 57.1975416,36.1069606 C57.1975416,36.7454976 56.7179351,37.2812508 56.085561,37.3491189 M56.2362776,33.8316663 L54.9806671,33.8316663 L54.9806671,32.4098796 L53.8475817,32.4098796 L53.8573403,36.1069606 C53.8354209,36.9223113 54.2561366,37.6853238 54.9559936,38.0994849 C55.6558507,38.513646 56.5244878,38.513646 57.2243448,38.0994849 C57.9242019,37.6853238 58.3449176,36.9223113 58.3229981,36.1069606 C58.3716131,34.9004495 57.4378748,33.8823306 56.2362776,33.8316663" id="Shape"></path>
            </g>
        </g>
    </g>
</svg>