<svg width="26" height="26" viewBox="0 0 26 26" fill="none" xmlns="http://www.w3.org/2000/svg">
    <path d="M23.0337 19.2052C23.1365 18.8073 23.0334 18.6669 22.8608 18.6133C21.9526 18.0529 21.347 17.4234 20.7053 16.4926C20.1886 15.4115 19.9123 15.0746 19.9495 13.5509C19.9148 12.8165 20.0058 12.0822 20.3166 11.3479C20.6828 10.5944 21.0176 9.96031 21.7074 9.521L22.3683 8.93354C22.528 8.8131 22.5278 8.57379 22.4462 8.4106C21.8701 7.81516 21.4045 7.20394 20.3686 6.67419C19.9489 6.4312 19.3154 6.24316 18.4808 6.20763C17.8916 6.2079 17.3199 6.1906 16.5975 6.32408C16.0187 6.41832 15.4139 6.61474 14.8351 6.91154L14.0014 7.30912C13.4726 7.4386 12.9926 7.3731 12.5327 7.22678L10.9906 6.57479C10.4539 6.37716 9.82568 6.27107 9.08135 6.28106C8.34658 6.27885 7.61841 6.30966 6.95179 6.64823C6.42333 6.90306 5.94258 7.20559 5.48312 7.52942C4.93857 8.0374 4.42171 8.57308 4.01446 9.21836C3.70076 9.62354 3.47856 10.2773 3.23265 10.8858C3.00811 11.4949 2.90533 11.9457 2.81356 12.4969C2.6528 13.5625 2.67199 14.2095 2.70971 15.0195C2.78901 16.4062 2.98743 16.9107 3.13326 17.7365C3.30882 18.4379 3.5509 19.0063 3.79416 19.5723C4.0413 20.2565 4.44229 20.8638 4.82222 21.4816C5.15653 22.1234 5.67898 22.8278 6.21745 23.5377C6.68281 24.0518 6.89852 24.4412 7.78552 25.0753C8.38037 25.4469 8.46824 25.5192 8.78762 25.6672C9.08161 25.7404 9.38564 25.8035 9.81569 25.7407C10.0952 25.6814 10.3575 25.6394 10.7703 25.4469C11.0641 25.3245 11.3578 25.2021 11.6515 25.0798C11.9799 24.9329 12.3018 24.786 12.8999 24.6392C13.2915 24.5878 13.6832 24.5486 14.0748 24.5657C14.321 24.5617 14.7308 24.6558 15.3232 24.8595C15.6915 24.9826 15.8933 24.9948 16.645 25.3735C16.9639 25.4771 17.1673 25.6578 17.673 25.6368C18.159 25.57 18.6181 25.3983 18.9689 25.1962C19.3563 24.9126 19.8131 24.6983 20.0748 24.2891C20.391 23.9943 20.5767 23.7647 20.7572 23.5377L21.6384 22.2159C21.9209 21.8796 22.1765 21.4896 22.3898 21.015C22.6472 20.4545 22.8446 19.834 23.0337 19.2052V19.2052Z" fill="#F3F3F3" stroke="#939494" stroke-width="0.101562"/>
    <path d="M12.8607 5.85301C12.8684 6.1465 13.0532 6.05886 13.1566 6.09704C13.5459 6.14119 13.7369 6.03656 14.0011 5.9869C14.5122 5.8404 14.7093 5.73315 14.9558 5.61973C15.2373 5.45226 15.5187 5.33151 15.8002 5.06899C16.0657 4.876 16.2342 4.71125 16.4611 4.44481C16.7614 4.13632 16.8619 3.99058 17.0853 3.67377C17.3338 3.3115 17.4525 3.0704 17.6361 2.68244C17.7592 2.37071 17.9077 2.07168 17.9665 1.72782C18.0315 1.41763 18.1139 1.11612 18.1134 0.773195C18.134 0.605683 18.0869 0.505997 18.04 0.406032C17.8545 0.296583 17.7589 0.30018 17.543 0.315547C17.2902 0.316628 16.9666 0.355508 16.608 0.516181C16.2131 0.697598 15.8354 0.89044 15.5432 1.14036C15.2311 1.33618 15.0195 1.532 14.8089 1.72782C14.5531 1.96157 14.3336 2.23161 14.1113 2.49886C13.8583 2.80076 13.6609 3.0628 13.5453 3.33035C13.3893 3.6284 13.281 3.92646 13.1566 4.22452C13.0246 4.5426 12.9235 4.87614 12.8607 5.22884C12.8245 5.44897 12.8339 5.60197 12.8607 5.85301V5.85301Z" fill="#F9F9F9" stroke="#939494" stroke-width="0.101562"/>
    <path d="M12.8607 5.85301C12.8684 6.1465 13.0532 6.05886 13.1566 6.09704C13.5459 6.14119 13.7369 6.03656 14.0011 5.9869C14.5122 5.8404 14.7093 5.73315 14.9558 5.61973C15.2373 5.45226 15.5187 5.33151 15.8002 5.06899C16.0657 4.876 16.2342 4.71125 16.4611 4.44481C16.7614 4.13632 16.8619 3.99058 17.0853 3.67377C17.3338 3.3115 17.4525 3.0704 17.6361 2.68244C17.7592 2.37071 17.9077 2.07168 17.9665 1.72782C18.0315 1.41763 18.1139 1.11612 18.1134 0.773195C18.134 0.605683 18.0869 0.505997 18.04 0.406032C17.8545 0.296583 17.7589 0.30018 17.543 0.315547C17.2902 0.316628 16.9666 0.355508 16.608 0.516181C16.2131 0.697598 15.8354 0.89044 15.5432 1.14036C15.2311 1.33618 15.0195 1.532 14.8089 1.72782C14.5531 1.96157 14.3336 2.23161 14.1113 2.49886C13.8583 2.80076 13.6609 3.0628 13.5453 3.33035C13.3893 3.6284 13.281 3.92646 13.1566 4.22452C13.0246 4.5426 12.9235 4.87614 12.8607 5.22884C12.8245 5.44897 12.8339 5.60197 12.8607 5.85301V5.85301Z" fill="url(#paint0_linear_835_22787)" stroke="#939494" stroke-width="0.101562"/>
    <path d="M23.0337 19.2052C23.1365 18.8073 23.0334 18.6669 22.8608 18.6133C21.9526 18.0529 21.347 17.4234 20.7053 16.4926C20.1886 15.4115 19.9123 15.0746 19.9495 13.5509C19.9148 12.8165 20.0058 12.0822 20.3166 11.3479C20.6828 10.5944 21.0176 9.96031 21.7074 9.521L22.3683 8.93354C22.528 8.8131 22.5278 8.57379 22.4462 8.4106C21.8701 7.81516 21.4045 7.20394 20.3686 6.67419C19.9489 6.4312 19.3154 6.24316 18.4808 6.20763C17.8916 6.2079 17.3199 6.1906 16.5975 6.32408C16.0187 6.41832 15.4139 6.61474 14.8351 6.91154L14.0014 7.30912C13.4726 7.4386 12.9926 7.3731 12.5327 7.22678L10.9906 6.57479C10.4539 6.37716 9.82568 6.27107 9.08135 6.28106C8.34658 6.27885 7.61841 6.30966 6.95179 6.64823C6.42333 6.90306 5.94258 7.20559 5.48312 7.52942C4.93857 8.0374 4.42171 8.57308 4.01446 9.21836C3.70076 9.62354 3.47856 10.2773 3.23265 10.8858C3.00811 11.4949 2.90533 11.9457 2.81356 12.4969C2.6528 13.5625 2.67199 14.2095 2.70971 15.0195C2.78901 16.4062 2.98743 16.9107 3.13326 17.7365C3.30882 18.4379 3.5509 19.0063 3.79416 19.5723C4.0413 20.2565 4.44229 20.8638 4.82222 21.4816C5.15653 22.1234 5.67898 22.8278 6.21745 23.5377C6.68281 24.0518 6.89852 24.4412 7.78552 25.0753C8.38037 25.4469 8.46824 25.5192 8.78762 25.6672C9.08161 25.7404 9.38564 25.8035 9.81569 25.7407C10.0952 25.6814 10.3575 25.6394 10.7703 25.4469C11.0641 25.3245 11.3578 25.2021 11.6515 25.0798C11.9799 24.9329 12.3018 24.786 12.8999 24.6392C13.2915 24.5878 13.6832 24.5486 14.0748 24.5657C14.321 24.5617 14.7308 24.6558 15.3232 24.8595C15.6915 24.9826 15.8933 24.9948 16.645 25.3735C16.9639 25.4771 17.1673 25.6578 17.673 25.6368C18.159 25.57 18.6181 25.3983 18.9689 25.1962C19.3563 24.9126 19.8131 24.6983 20.0748 24.2891C20.391 23.9943 20.5767 23.7647 20.7572 23.5377L21.6384 22.2159C21.9209 21.8796 22.1765 21.4896 22.3898 21.015C22.6472 20.4545 22.8446 19.834 23.0337 19.2052V19.2052Z" fill="url(#paint1_linear_835_22787)" stroke="#939494" stroke-width="0.101562"/>
    <path d="M12.8607 5.85301C12.8684 6.1465 13.0532 6.05886 13.1566 6.09704C13.5459 6.14119 13.7369 6.03656 14.0011 5.9869C14.5122 5.8404 14.7093 5.73315 14.9558 5.61973C15.2373 5.45226 15.5187 5.33151 15.8002 5.06899C16.0657 4.876 16.2342 4.71125 16.4611 4.44481C16.7614 4.13632 16.8619 3.99058 17.0853 3.67377C17.3338 3.3115 17.4525 3.0704 17.6361 2.68244C17.7592 2.37071 17.9077 2.07168 17.9665 1.72782C18.0315 1.41763 18.1139 1.11612 18.1134 0.773195C18.134 0.605683 18.0869 0.505997 18.04 0.406032C17.8545 0.296583 17.7589 0.30018 17.543 0.315547C17.2902 0.316628 16.9666 0.355508 16.608 0.516181C16.2131 0.697598 15.8354 0.89044 15.5432 1.14036C15.2311 1.33618 15.0195 1.532 14.8089 1.72782C14.5531 1.96157 14.3336 2.23161 14.1113 2.49886C13.8583 2.80076 13.6609 3.0628 13.5453 3.33035C13.3893 3.6284 13.281 3.92646 13.1566 4.22452C13.0246 4.5426 12.9235 4.87614 12.8607 5.22884C12.8245 5.44897 12.8339 5.60197 12.8607 5.85301V5.85301Z" fill="url(#paint2_linear_835_22787)" stroke="#939494" stroke-width="0.101562"/>
    <defs>
        <linearGradient id="paint0_linear_835_22787" x1="14.363" y1="5.78971" x2="13.5423" y2="4.55859" gradientUnits="userSpaceOnUse">
            <stop stop-color="#E1E0DF"/>
            <stop offset="1" stop-color="#E1E0DF" stop-opacity="0"/>
        </linearGradient>
        <linearGradient id="paint1_linear_835_22787" x1="18.5696" y1="25.2829" x2="13.6451" y2="17.691" gradientUnits="userSpaceOnUse">
            <stop stop-color="#E1E0DF"/>
            <stop offset="1" stop-color="#E1E0DF" stop-opacity="0"/>
        </linearGradient>
        <linearGradient id="paint2_linear_835_22787" x1="14.363" y1="5.78971" x2="13.5423" y2="4.55859" gradientUnits="userSpaceOnUse">
            <stop stop-color="#E1E0DF"/>
            <stop offset="1" stop-color="#E1E0DF" stop-opacity="0"/>
        </linearGradient>
    </defs>
</svg>
