<svg width="21" height="23" viewBox="0 0 21 23" fill="none" xmlns="http://www.w3.org/2000/svg">
<path fillRule="evenodd" clipRule="evenodd" d="M10.4993 0C10.3957 0 10.2979 0.0249247 10.2121 0.0693063L6.51745 1.87965C6.21221 2.02917 6.08854 2.39276 6.24116 2.69168C6.39374 2.9906 6.76476 3.11179 7.06979 2.96243L9.88185 1.58455V4.84204C9.88185 5.17622 10.1583 5.44737 10.4994 5.44737C10.8406 5.44737 11.1171 5.17622 11.1171 4.84204V1.58455L13.9291 2.96243C14.2341 3.11179 14.6051 2.99059 14.7578 2.69168C14.9102 2.39278 14.7865 2.02921 14.4815 1.87965L10.7868 0.0693063C10.701 0.0249267 10.6031 0 10.4993 0ZM1.23535 6.42667V9.68415C1.23535 10.0185 0.958858 10.2895 0.61785 10.2895C0.27663 10.2895 0.000136129 10.0185 0.000136129 9.68415V5.45957C-0.00172506 5.37061 0.0162667 5.28023 0.0565923 5.1945C0.086785 5.13005 0.12856 5.07108 0.179844 5.02062C0.231751 4.96995 0.287171 4.93186 0.347148 4.90328L4.04745 3.09013C4.35248 2.94077 4.7235 3.06196 4.87608 3.36088C5.0287 3.6598 4.90503 4.02339 4.59979 4.17291L1.99886 5.44739L4.59979 6.72166C4.90503 6.87122 5.0287 7.23478 4.87608 7.53368C4.72346 7.8328 4.35246 7.95399 4.04745 7.80444L1.23535 6.42667ZM20.6529 4.90325C20.7707 4.95938 20.8714 5.05281 20.9345 5.17663C20.9376 5.1825 20.9405 5.18838 20.9434 5.19446C20.9494 5.20743 20.955 5.22081 20.9604 5.23418C20.9887 5.30835 21.0013 5.38455 20.9999 5.45954V9.68412C20.9999 10.0185 20.7232 10.2894 20.3822 10.2894C20.0411 10.2894 19.7644 10.0185 19.7644 9.68412V6.42663L16.9526 7.80451C16.6474 7.95407 16.2764 7.83288 16.124 7.53376C15.9713 7.23484 16.095 6.87125 16.4 6.72173L19.0012 5.44746L16.4 4.17298C16.095 4.02342 15.9713 3.65986 16.124 3.36095C16.2764 3.06204 16.6474 2.94085 16.9526 3.0902L20.6529 4.90325ZM20.9999 17.5407C21.0017 17.6294 20.9835 17.72 20.9434 17.8057C20.913 17.8702 20.8714 17.9292 20.8202 17.9796C20.7683 18.0303 20.7126 18.0684 20.6529 18.097L16.9526 19.9099C16.6473 20.0595 16.2763 19.9383 16.1239 19.6394C15.9713 19.3402 16.095 18.9767 16.4 18.8273L19.0011 17.5529L16.4 16.2784C16.095 16.129 15.9713 15.7655 16.1239 15.4663C16.2763 15.1674 16.6473 15.0462 16.9526 15.1958L19.7644 16.5735V13.316C19.7644 12.9818 20.0411 12.7109 20.3821 12.7109C20.7231 12.7109 20.9998 12.9818 20.9998 13.316L20.9999 17.5407ZM4.5998 18.8273L1.99887 17.5528L4.59976 16.2782C4.905 16.1289 5.02867 15.7653 4.87605 15.4662C4.72347 15.1673 4.35245 15.0461 4.04742 15.1957L1.23536 16.5733V13.3159C1.23536 12.9817 0.958871 12.7107 0.617858 12.7107C0.276638 12.7107 0.000143541 12.9817 0.000143541 13.3159V17.5406C-0.00151086 17.6156 0.0111039 17.6918 0.0396422 17.766C0.0448119 17.7794 0.0506025 17.7927 0.0565997 17.8057L0.0652852 17.8236C0.128565 17.9474 0.229275 18.0406 0.347153 18.0969L4.04745 19.9099C4.35247 20.0594 4.72347 19.9382 4.87608 19.6393C5.0287 19.3402 4.90503 18.9767 4.5998 18.8273ZM10.7868 22.9308C10.701 22.975 10.6032 23.0001 10.4994 23.0001C10.3958 23.0001 10.298 22.975 10.2121 22.9308L6.51745 21.1205C6.21221 20.9709 6.08854 20.6073 6.24116 20.3084C6.39378 20.0093 6.76478 19.8881 7.06979 20.0377L9.88185 21.4156V18.1581C9.88185 17.8237 10.1583 17.5527 10.4994 17.5527C10.8406 17.5527 11.1171 17.8237 11.1171 18.1581V21.4156L13.9291 20.0377C14.2342 19.8881 14.6052 20.0093 14.7578 20.3084C14.9102 20.6073 14.7865 20.9709 14.4815 21.1205L10.7868 22.9308ZM11.1171 13.9209V10.6634L14.4815 9.01481C14.7865 8.86545 14.9102 8.5019 14.7578 8.20279C14.6052 7.90387 14.2342 7.78268 13.9291 7.93224L10.4994 9.61268L7.06979 7.93224C6.76478 7.78268 6.39378 7.90387 6.24116 8.20279C6.08854 8.50189 6.21221 8.86545 6.51745 9.01481L9.8819 10.6634V13.9209C9.8819 14.2551 10.1584 14.5262 10.4994 14.5262C10.8406 14.5262 11.1171 14.2551 11.1171 13.9209Z" fill="white"/>
</svg>
