<?xml version="1.0" encoding="UTF-8"?>
<svg width="12px" height="7px" viewBox="0 0 12 7" version="1.1" xmlns="http://www.w3.org/2000/svg" xmlns:xlink="http://www.w3.org/1999/xlink">
    <title>back</title>
    <g id="SPIN---MOBILE" stroke="none" stroke-width="1" fill="none" fill-rule="evenodd">
        <g id="SPIN---POPUP---FIRST-TIME-USER---3" transform="translate(-339.000000, -366.000000)" fill="#000000">
            <g id="Group-6" transform="translate(74.000000, 347.000000)">
                <path d="M273.741649,17.4468964 L273.778949,17.4834929 C274.074614,17.7735871 274.079131,18.2484394 273.789037,18.5441051 L273.778949,18.5541934 L273.778949,18.5541934 L269.756313,22.4992466 L273.778949,26.4458035 C274.074614,26.7358977 274.079131,27.21075 273.789037,27.5064157 L273.778949,27.516504 L273.778949,27.516504 L273.741649,27.5531005 C273.449953,27.8393002 272.982822,27.8393002 272.691125,27.5531005 L268.221051,23.1672616 C268.036777,22.9864598 267.965598,22.7338902 268.008351,22.4976628 C267.967285,22.2679749 268.034807,22.0223629 268.210963,21.8428236 L268.221051,21.8327353 L268.221051,21.8327353 L272.691125,17.4468964 C272.982822,17.1606967 273.449953,17.1606967 273.741649,17.4468964 Z" id="back" transform="translate(271.000000, 22.499998) rotate(-90.000000) translate(-271.000000, -22.499998) "></path>
            </g>
        </g>
    </g>
</svg>