<svg width="16" height="22" viewBox="0 0 16 22" fill="none" xmlns="http://www.w3.org/2000/svg">
<path fill-rule="evenodd" clip-rule="evenodd" d="M8.34549 1C6.31468 1 4.67275 2.71478 4.67275 4.83048V6.7234H1.43209C1.19444 6.7234 1 6.92386 1 7.16882V17.6358C1 19.3506 2.36108 20.7536 4.02459 20.7536H12.6664C14.3299 20.7536 15.691 19.3506 15.691 17.6358V7.16882C15.691 6.92386 15.4966 6.7234 15.2589 6.7234H12.0182V4.83048C12.0182 2.71478 10.3763 1 8.34549 1ZM5.53698 4.83051C5.53698 3.2048 6.78998 1.89083 8.34551 1.89083C9.90105 1.89083 11.1541 3.2048 11.1541 4.83051V6.72343H5.53698V4.83051ZM14.8268 17.6581V7.63651H12.0182V9.01727C12.0182 9.26223 11.8238 9.46268 11.5861 9.46268C11.3485 9.46268 11.1541 9.26223 11.1541 9.01727V7.63651H5.53696V9.01727C5.53696 9.26223 5.34249 9.46268 5.10485 9.46268C4.86722 9.46268 4.67275 9.26223 4.67275 9.01727V7.63651H1.86418V17.6581C1.86418 18.8829 2.83641 19.8851 4.02459 19.8851H12.6664C13.8546 19.8851 14.8268 18.8829 14.8268 17.6581Z" fill="white"/>
<path d="M4.67275 6.7234V6.9734H4.92275V6.7234H4.67275ZM12.0182 6.7234H11.7682V6.9734H12.0182V6.7234ZM11.1541 6.72343V6.97343H11.4041V6.72343H11.1541ZM5.53698 6.72343H5.28698V6.97343H5.53698V6.72343ZM14.8268 7.63651H15.0768V7.38651H14.8268V7.63651ZM12.0182 7.63651V7.38651H11.7682V7.63651H12.0182ZM11.1541 7.63651H11.4041V7.38651H11.1541V7.63651ZM5.53696 7.63651V7.38651H5.28696V7.63651H5.53696ZM4.67275 7.63651H4.92275V7.38651H4.67275V7.63651ZM1.86418 7.63651V7.38651H1.61418V7.63651H1.86418ZM4.92275 4.83048C4.92275 2.84274 6.46266 1.25 8.34549 1.25V0.75C6.16671 0.75 4.42275 2.58682 4.42275 4.83048H4.92275ZM4.92275 6.7234V4.83048H4.42275V6.7234H4.92275ZM1.43209 6.9734H4.67275V6.4734H1.43209V6.9734ZM1.25 7.16882C1.25 7.05471 1.33962 6.9734 1.43209 6.9734V6.4734C1.04926 6.4734 0.75 6.79301 0.75 7.16882H1.25ZM1.25 17.6358V7.16882H0.75V17.6358H1.25ZM4.02459 20.5036C2.50625 20.5036 1.25 19.2197 1.25 17.6358H0.75C0.75 19.4814 2.21591 21.0036 4.02459 21.0036V20.5036ZM12.6664 20.5036H4.02459V21.0036H12.6664V20.5036ZM15.441 17.6358C15.441 19.2197 14.1847 20.5036 12.6664 20.5036V21.0036C14.4751 21.0036 15.941 19.4814 15.941 17.6358H15.441ZM15.441 7.16882V17.6358H15.941V7.16882H15.441ZM15.2589 6.9734C15.3514 6.9734 15.441 7.0547 15.441 7.16882H15.941C15.941 6.79302 15.6418 6.4734 15.2589 6.4734V6.9734ZM12.0182 6.9734H15.2589V6.4734H12.0182V6.9734ZM11.7682 4.83048V6.7234H12.2682V4.83048H11.7682ZM8.34549 1.25C10.2283 1.25 11.7682 2.84274 11.7682 4.83048H12.2682C12.2682 2.58682 10.5243 0.75 8.34549 0.75V1.25ZM8.34551 1.64083C6.64115 1.64083 5.28698 3.07774 5.28698 4.83051H5.78698C5.78698 3.33186 6.93881 2.14083 8.34551 2.14083V1.64083ZM11.4041 4.83051C11.4041 3.07773 10.0499 1.64083 8.34551 1.64083V2.14083C9.75222 2.14083 10.9041 3.33187 10.9041 4.83051H11.4041ZM11.4041 6.72343V4.83051H10.9041V6.72343H11.4041ZM5.53698 6.97343H11.1541V6.47343H5.53698V6.97343ZM5.28698 4.83051V6.72343H5.78698V4.83051H5.28698ZM14.5768 7.63651V17.6581H15.0768V7.63651H14.5768ZM12.0182 7.88651H14.8268V7.38651H12.0182V7.88651ZM12.2682 9.01727V7.63651H11.7682V9.01727H12.2682ZM11.5861 9.71268C11.969 9.71268 12.2682 9.39306 12.2682 9.01727H11.7682C11.7682 9.13139 11.6786 9.21268 11.5861 9.21268V9.71268ZM10.9041 9.01727C10.9041 9.39304 11.2033 9.71268 11.5861 9.71268V9.21268C11.4937 9.21268 11.4041 9.13141 11.4041 9.01727H10.9041ZM10.9041 7.63651V9.01727H11.4041V7.63651H10.9041ZM5.53696 7.88651H11.1541V7.38651H5.53696V7.88651ZM5.78696 9.01727V7.63651H5.28696V9.01727H5.78696ZM5.10485 9.71268C5.48766 9.71268 5.78696 9.39309 5.78696 9.01727H5.28696C5.28696 9.13136 5.19732 9.21268 5.10485 9.21268V9.71268ZM4.42275 9.01727C4.42275 9.39309 4.72205 9.71268 5.10485 9.71268V9.21268C5.01239 9.21268 4.92275 9.13136 4.92275 9.01727H4.42275ZM4.42275 7.63651V9.01727H4.92275V7.63651H4.42275ZM1.86418 7.88651H4.67275V7.38651H1.86418V7.88651ZM2.11418 17.6581V7.63651H1.61418V17.6581H2.11418ZM4.02459 19.6351C2.98158 19.6351 2.11418 18.7521 2.11418 17.6581H1.61418C1.61418 19.0138 2.69124 20.1351 4.02459 20.1351V19.6351ZM12.6664 19.6351H4.02459V20.1351H12.6664V19.6351ZM14.5768 17.6581C14.5768 18.7521 13.7095 19.6351 12.6664 19.6351V20.1351C13.9998 20.1351 15.0768 19.0138 15.0768 17.6581H14.5768Z" fill="white"/>
</svg>
