<svg width="28" height="22" xmlns="http://www.w3.org/2000/svg" viewBox="0 0 28 23">
    <g fill="none" fillRule="evenodd">
        <path d="M5.3 1.3A4.5 4.5 0 00.8 6h0V21c.3 0 .6-.2.9-.4C3 20 5.2 18.3 8 16h14.6a4.5 4.5 0 004.5-4.5h0V5.9a4.5 4.5 0 00-4.5-4.6h0z" stroke="#FFF" strokeWidth="1.6" />
        <circle fill="#FFF" transform="matrix(-1 0 0 1 17.6 0)" cx="8.8" cy="8.8" r="1.6" />
        <circle fill="#FFF" transform="matrix(-1 0 0 1 28.8 0)" cx="14.4" cy="8.8" r="1.6" />
        <circle fill="#FFF" transform="matrix(-1 0 0 1 40 0)" cx="20" cy="8.8" r="1.6" />
    </g>
</svg>