<?xml version="1.0" encoding="UTF-8"?>
<svg width="22px" height="22px" viewBox="0 0 22 22" version="1.1" xmlns="http://www.w3.org/2000/svg" xmlns:xlink="http://www.w3.org/1999/xlink">
    <!-- Generator: Sketch 61.2 (89653) - https://sketch.com -->
    <title>Group 15</title>
    <desc>Created with Sketch.</desc>
    <g id="Symbols" stroke="none" stroke-width="1" fill="none" fill-rule="evenodd">
        <g id="Group-15" transform="translate(1.000000, 1.000000)" stroke="#FFFFFF">
            <path d="M12.8674692,8.22804647 C12.6777213,8.05193178 12.3811311,8.06298369 12.2049568,8.2527958 L9.14968607,11.5436528 L8.69166747,11.0499191 L7.79498364,10.0833142 C7.78294758,10.0706651 7.78294758,10.0706651 7.77029851,10.0586291 C7.5805506,9.8825144 7.28396036,9.8935663 7.10784567,10.0833142 L6.90105186,10.3061161 C6.73414384,10.4859447 6.73414384,10.7640553 6.90105186,10.9438839 L8.79075233,12.9805051 L8.83158769,13.0219535 C8.92435399,13.1080547 9.0439213,13.1514303 9.13391914,13.1490064 L9.21950885,13.1420629 C9.32440855,13.1266017 9.42008434,13.0769496 9.49404053,12.9972684 L13.0989481,9.11330124 C13.2658562,8.9334727 13.2658562,8.65536206 13.0989481,8.47553352 L12.8921543,8.2527316 C12.8801183,8.24008252 12.8801183,8.24008252 12.8674692,8.22804647 Z" id="checked-2" stroke-width="1.25" fill="#000000"></path>
        </g>
    </g>
</svg>