<svg xmlns="http://www.w3.org/2000/svg" id="Calque_1" x="0" y="0" version="1.1" viewBox="0 0 250 250" xml:space="preserve">
  <path fill="var(--white)" d="M94 47L83 27l4 24-5 3-18-16 11 20-6 3-16-28 10-5 16 14-4-21 10-5 16 27-7 4zM102 25l4-4 5-1h5l3 1 2 4 2 5 1 11-7 1v-2l-2 2-4 1h-3l-3-1-2-1-1-4 1-4 3-2 4-2 5-1-1-3h-3l-3 1-2 2-4-3zm14 7h-1a20 20 0 00-4 2l-2 1v2l1 1h2l4-2v-4zM151 45l-9-2-5-11-2 10-7-1 5-33 7 1-3 20 9-8 8 2-10 8 7 14zM152 46l8-21 7 3-8 21-7-3zm19-24a4 4 0 01-3 2h-3l-2-2a4 4 0 011-5 4 4 0 012-1h2a4 4 0 012 3l1 1v2zM175 59l7-11 1-1 1-2-1-1-1-1-1-1h-2l-1 1-2 1-7 10-6-4 13-18 6 4-2 2v1l2-1h4l2 1 3 3v6c0 2-1 3-2 3l-7 12-7-4zM200 83l-5 2-5 1-4-2a20 20 0 01-8-16h6a11 11 0 002 8l5 3 4-2 1-1-3-1-3-2a11 11 0 01-2-9l1-4 3-3 4-2 5-1a10 10 0 017 4l2 4v4l2-2 4 6-16 13zm3-12l2-1a5 5 0 000-4l-1-2-1-2-2-1-2 1-2 1-2 1a5 5 0 00-1 4l1 3 2 1 2 1 2-1 2-1zM231 99l-7 1 3 12-6 2-3-12-12 2-2-7 31-7 5 20-7 2-2-13zM228 118l3 5v10l-3 3-3 2h-17v-7l3 1v-1l-3-2v-4a10 10 0 012-5l2-2 3-1 4 1 2 4 1 5v5h1l2-1 1-3v-3l-2-3 4-4zm-10 14v-1-3-2l-1-2a2 2 0 00-3 0l-1 1v2l1 3 3 2h1zM218 159l2-2 2-2v-2l-1-1h-2l-2 3-1 2-2 2-2 1h-3l-4-2-1-3v-3-4l2-5 4-3 3 5-2 2-2 3v1l1 2 2-1 2-3 1-2 2-1 3-1h2c2 0 3 1 3 2l2 2v4 3l-2 4-4 4-3-5zM194 173l10 6 2 1h2l2-1v-3c0-2-1-2-2-3l-10-7 3-6 29 18-4 7-12-8 1 3-1 4-3 3-3 1h-3l-3-2-12-7 4-6zM186 181l16 16-5 6-16-16 5-6zm16 27a4 4 0 01-2-3l1-2 1-1 3-1a4 4 0 014 2v3l-1 2a4 4 0 01-5 1l-1-1zM164 212a11 11 0 011-13l3-4a13 13 0 019-1l5 1 3 4a11 11 0 010 13 14 14 0 01-13 5l-4-1-4-4zm6-4l2 2 2 1h2l2-1 2-1v-2-2l-1-2-1-2-2-1h-4l-2 2-1 2 1 2v2zM142 207l3 12v1l1 2 1 1h2l2-1a4 4 0 001-3v-2l-3-12 7-2 5 22-7 2v-3h-1v1l-1 2-2 1-2 1h-4l-3-2a10 10 0 01-3-5l-4-14 8-1zM98 205h7c3 1 5 1 7 3l4 4 3 6v7l-3 7-5 4-6 2a20 20 0 01-13-2l-5-5 7-4 2 3 3 1h4l3-1 3-3 1-4v-4l-1-3-2-3-4-1h-4l-3 2-4-6 6-3zM72 225l1-1 2-1h3l2 2v4l-1 1-1 1h-2l-2-1-1-1-1-1v-1-2zm20-23l-9 20-7-3 10-21 6 4zM60 201l1 1h1a5 5 0 004 1h2l1-2 6-9 7 4-13 19-6-4 2-3-4 1-4-1v-1h-1l4-6zM47 186l1 2 1 2 2 1 2 1 2-1 2-1 1-2v-2a5 5 0 00-1-4l-2-1-2-1 1-6 4 1 4 3 3 4v9l-3 4-5 3-4 1-5-2a14 14 0 01-5-5l-1-2-1-2v-2h6zM49 159l-3 1h2l1 1 2 2a9 9 0 012 5v4l-2 2-3 2-13 6-3-6 11-6 2-1 1-1v-1-2l-3-2-3 1-11 5-3-6 20-10 3 6zM45 148l-33 8-2-7 33-8 2 7zM23 137c-2-1-3-2-3-4a16 16 0 01-1-10l2-4 4-1 5-1h12v6h-3l3 3v6l-1 3-2 2-3 1-4-1-3-4-1-4v-5h-1l-2 1-1 3 1 3 2 2-4 4zm9-13v3l1 2 1 2 1 1 1-1 1-1v-1l1-1-2-3-3-1h-1zM30 95l-1 1v4l1 2a5 5 0 003 1l11 3-2 7-22-5 2-7 3 1-2-3v-4-1l7 1zM45 65a8 8 0 014 5v3l-1 3a8 8 0 01-5 4h-3l-3-1a8 8 0 01-4-5v-3l1-3 2-2 3-2h3l3 1z"/>
</svg>
