<?xml version="1.0" encoding="UTF-8"?>
<svg width="26px" height="26px" viewBox="0 0 26 26" version="1.1" xmlns="http://www.w3.org/2000/svg" xmlns:xlink="http://www.w3.org/1999/xlink">
    <!-- Generator: Sketch 61.2 (89653) - https://sketch.com -->
    <title>Group 21</title>
    <desc>Created with Sketch.</desc>
    <g id="Symbols" stroke="none" stroke-width="1" fill="none" fill-rule="evenodd">
        <g id="Group-21">
            <circle id="Oval" fill="#212126" cx="12.6" cy="12.6" r="12.6"></circle>
            <g id="noun_Settings_2187506" transform="translate(6.000000, 6.600000)" fill="#FFFFFF" fill-rule="nonzero">
                <path d="M13.4205846,5.80953889 L10.3661478,0.311552559 C10.2581587,0.119436479 10.055062,0.000379784975 9.83467578,0 L3.72580207,0 C3.50541585,0.000379784975 3.30231914,0.119436479 3.19433006,0.311552559 L0.139893208,5.80953889 C0.0307686894,5.9985481 0.0307686894,6.23141705 0.139893208,6.42042626 L3.19433006,11.9184126 C3.30543375,12.1058257 3.50794166,12.2198819 3.72580207,12.2177769 L9.83467578,12.2177769 C10.055062,12.2173676 10.2581587,12.0983109 10.3661478,11.9061949 L13.4205846,6.40820852 C13.5250688,6.22232848 13.5250688,5.99541893 13.4205846,5.80953889 Z M9.47425223,10.9959727 L4.08622562,10.9959727 L1.36777682,6.1088737 L4.08622562,1.22177474 L9.47425223,1.22177474 L12.192701,6.1088737 L9.47425223,10.9959727 Z" id="Shape"></path>
                <path d="M6.78023892,3.66532422 C5.43070381,3.66532422 4.33668944,4.75933859 4.33668944,6.1088737 C4.33668944,7.45840882 5.43070381,8.55242319 6.78023892,8.55242319 C8.12977404,8.55242319 9.22378841,7.45840882 9.22378841,6.1088737 C9.22378841,5.46080409 8.96634375,4.83927772 8.50808933,4.3810233 C8.04983491,3.92276888 7.42830854,3.66532422 6.78023892,3.66532422 Z M6.78023892,7.33064845 C6.10547137,7.33064845 5.55846418,6.78364126 5.55846418,6.1088737 C5.55846418,5.43410615 6.10547137,4.88709896 6.78023892,4.88709896 C7.45500648,4.88709896 8.00201367,5.43410615 8.00201367,6.1088737 C8.00201367,6.78364126 7.45500648,7.33064845 6.78023892,7.33064845 Z" id="Shape"></path>
            </g>
        </g>
    </g>
</svg>