<svg xmlns="http://www.w3.org/2000/svg" width="15" height="14">
    <g fill="#fff" fillRule="nonzero">
        <path d="M14.911 6.484L11.502.348A.682.682 0 0010.91 0H4.091a.682.682 0 00-.593.348L.088 6.484a.682.682 0 000 .682l3.41 6.136c.124.21.35.337.593.334h6.818a.682.682 0 00.593-.347l3.41-6.137a.682.682 0 000-.668zm-4.404 5.789H4.493L1.46 6.818l3.034-5.454h6.014l3.034 5.454-3.034 5.455z" />
        <path d="M7.5 4.09a2.727 2.727 0 100 5.455 2.727 2.727 0 000-5.454zm0 4.092a1.364 1.364 0 110-2.727 1.364 1.364 0 010 2.727z" />
    </g>
</svg>