<?xml version="1.0" encoding="UTF-8"?>
<svg width="37px" height="35px" viewBox="0 0 37 35" version="1.1" xmlns="http://www.w3.org/2000/svg" xmlns:xlink="http://www.w3.org/1999/xlink">
    <title>Shape</title>
    <g id="SPIN---MOBILE" stroke="none" stroke-width="1" fill="none" fill-rule="evenodd">
        <g id="SPIN---BUSINESS-MENU---NOTIFICATIONS" transform="translate(-188.000000, -266.000000)" fill="#FFFFFF" fill-rule="nonzero" stroke="#FFFFFF" stroke-width="1.35309278">
            <g id="noun_Calendar_3659039" transform="translate(189.000000, 267.000000)">
                <path d="M32.2695074,2.95439285 L28.6468084,2.95439285 L28.6468084,0.852228707 C28.6468084,0.381230308 28.2773921,0 27.8222184,0 C27.3670447,0 26.9976283,0.381230308 26.9976283,0.852228707 L26.9976283,2.95439285 L8.00182195,2.95439285 L8.00182195,0.852228707 C8.00182195,0.381230308 7.63295533,0 7.17723189,0 C6.72150845,0 6.35264183,0.381230308 6.35264183,0.852228707 L6.35264183,2.95439285 L2.73049256,2.95439285 C1.2247911,2.95439285 0,4.22023656 0,5.77640618 L0,30.1779867 C0,31.7335881 1.2247911,33 2.73049256,33 L32.2695074,33 C33.7746592,33 35,31.7335881 35,30.1779867 L35,5.77640618 C35,4.22023656 33.7746592,2.95439285 32.2695074,2.95439285 Z M2.73049256,4.65885027 L6.35264183,4.65885027 L6.35264183,7.08940654 C6.35264183,7.56040494 6.72150845,7.94163525 7.17723189,7.94163525 C7.63295533,7.94163525 8.00182195,7.56040494 8.00182195,7.08940654 L8.00182195,4.65885027 L26.998178,4.65885027 L26.998178,7.08940654 C26.998178,7.56040494 27.3675944,7.94163525 27.8227681,7.94163525 C28.2779418,7.94163525 28.6473582,7.56040494 28.6473582,7.08940654 L28.6473582,4.65885027 L32.2700572,4.65885027 C32.8665106,4.65885027 33.3513696,5.15996075 33.3513696,5.77640618 L33.3513696,9.95744021 L1.64918012,9.95744021 L1.64918012,5.77640618 C1.64918012,5.15996075 2.13403908,4.65885027 2.73049256,4.65885027 Z M32.2695074,31.2949744 L2.73049256,31.2949744 C2.13403908,31.2949744 1.64918012,30.793864 1.64918012,30.1774185 L1.64918012,11.6618976 L33.3508199,11.6618976 L33.3508199,30.1774185 C33.3508199,30.793864 32.8659609,31.2949744 32.2695074,31.2949744 Z" id="Shape"></path>
            </g>
        </g>
    </g>
</svg>