<?xml version="1.0" encoding="UTF-8"?>
<svg width="41px" height="35px" viewBox="0 0 41 35" version="1.1" xmlns="http://www.w3.org/2000/svg" xmlns:xlink="http://www.w3.org/1999/xlink">
    <title>Group</title>
    <g id="SPIN---MOBILE" stroke="none" stroke-width="1" fill="none" fill-rule="evenodd">
        <g id="SPIN---MENU---SPINNER" transform="translate(-188.000000, -150.000000)" fill="#FFFFFF" fill-rule="nonzero">
            <g id="Group-18" transform="translate(166.000000, 124.000000)">
                <g id="Group" transform="translate(22.000000, 26.000000)">
                    <path d="M35.1962709,1.98417331 L14.0612553,0.0320807257 C12.3790806,-0.137666455 10.6969059,0.371575088 9.40292531,1.43249497 C8.10894476,2.49341485 7.28942375,3.97870268 7.11689301,5.67617449 L6.98749496,7.20389912 L6.34050468,7.20389912 C2.8467572,7.20389912 0,10.0047276 0,13.442108 L0,28.7617911 C0,32.1991715 2.8467572,35 6.34050468,35 L27.6049183,35 C30.796737,35 33.4278308,32.6659763 33.9022903,29.6529638 C35.1100055,29.5256534 36.274588,29.0588487 37.2235071,28.2949864 C38.5174876,27.2340665 39.3370086,25.7487786 39.5095394,24.0513068 L40.9760507,8.77406054 C41.2779795,5.33668013 38.6900184,2.32366767 35.1962709,1.98417331 Z M6.34050468,9.28330209 L27.6049183,9.28330209 C29.9340833,9.28330209 31.8319215,11.1505211 31.8319215,13.442108 L31.8319215,26.8521353 L25.9658763,21.7597199 C25.5776822,21.4202255 24.9738246,21.4202255 24.5856304,21.7597199 L18.3745238,26.8945721 L11.1713654,16.4975573 C10.9988347,16.2429365 10.6537732,16.0731893 10.3518444,16.0307525 C10.0067829,15.9883157 9.7048541,16.1580629 9.48919068,16.4126837 L2.11350156,25.5790315 L2.11350156,13.442108 C2.11350156,11.1505211 4.0113397,9.28330209 6.34050468,9.28330209 Z M2.11350156,28.9315383 L10.2224463,18.831581 L19.9704331,32.9630338 L6.34050468,32.9630338 C4.05447238,32.9630338 2.19976693,31.1382516 2.11350156,28.9315383 Z M27.6049183,32.9630338 L22.5583942,32.9630338 L19.5822389,28.6769175 L25.2326207,23.9239964 L31.7456561,29.5680902 C31.3574619,31.477746 29.6321545,32.9630338 27.6049183,32.9630338 Z M37.3960378,23.8815596 C37.3097724,24.9849163 36.7490475,26.0033994 35.8863938,26.6823881 C35.3256689,27.1491929 34.6786787,27.4462504 33.945423,27.5735608 L33.945423,13.442108 C33.945423,10.0047276 31.0986658,7.20389912 27.6049183,7.20389912 L9.1441292,7.20389912 L9.27352726,5.88835847 C9.35979263,4.78500179 9.92051753,3.76651871 10.7831712,3.08752998 C11.5595596,2.45097805 12.4653459,2.11148369 13.4573977,2.11148369 C13.5867957,2.11148369 13.7161938,2.11148369 13.8455919,2.11148369 L35.0237401,4.06357627 C37.3529051,4.27576025 39.0350798,6.31272642 38.8625491,8.60431336 L37.3960378,23.8815596 Z" id="Shape"></path>
                    <ellipse id="Oval" cx="25.1032226" cy="15.4790742" rx="2.54482841" ry="2.50377092"></ellipse>
                </g>
            </g>
        </g>
    </g>
</svg>