<?xml version="1.0" encoding="UTF-8"?>
<svg width="114px" height="114px" viewBox="0 0 114 114" version="1.1" xmlns="http://www.w3.org/2000/svg" xmlns:xlink="http://www.w3.org/1999/xlink">
    <title>Group 5</title>
    <g id="SPIN---MOBILE" stroke="none" stroke-width="1" fill="none" fill-rule="evenodd">
        <g id="SPIN---USER-PROFILE---WORLDS---NO-CONTENT---POPUP" transform="translate(-154.000000, -176.000000)">
            <g id="Group-5" transform="translate(154.000000, 176.000000)">
                <path d="M82.8507042,76.7492958 L70.3267606,76.7492958 C67.4366197,76.7492958 64.7873239,75.3042254 63.2619718,72.815493 L63.1014085,72.5746479 L59.2478873,62.4591549 C58.7661972,61.2549296 57.7225352,60.8535211 56.9197183,60.8535211 C56.1169014,60.8535211 55.0732394,61.2549296 54.5915493,62.4591549 L50.6577465,72.815493 C49.1323944,75.3042254 46.4830986,76.7492958 43.5929577,76.7492958 L31.1492958,76.7492958 C25.4492958,76.7492958 20.8732394,72.1732394 20.8732394,66.4732394 L20.8732394,47.2056338 C20.8732394,41.5859155 25.4492958,36.9295775 31.1492958,36.9295775 L82.6901408,36.9295775 C88.3901408,36.9295775 92.9661972,41.5056338 92.9661972,47.2056338 L92.9661972,66.4732394 C92.9661972,72.1732394 88.4704225,76.7492958 82.8507042,76.7492958 Z M65.9915493,71.2901408 C66.9549296,72.7352113 68.5605634,73.6183099 70.4070423,73.6183099 L82.9309859,73.6183099 C86.784507,73.6183099 89.9957746,70.4070423 89.9957746,66.4732394 L89.9957746,47.2056338 C89.9957746,43.271831 86.784507,40.0605634 82.7704225,40.0605634 L31.1492958,40.0605634 C27.1352113,40.0605634 23.9239437,43.271831 23.9239437,47.2056338 L23.9239437,66.4732394 C23.9239437,70.4070423 27.1352113,73.6183099 31.1492958,73.6183099 L43.6732394,73.6183099 C45.4394366,73.6183099 47.0450704,72.7352113 48.0887324,71.2901408 L51.8619718,61.3352113 C52.6647887,59.1676056 54.7521127,57.8028169 57.0802817,57.8028169 C59.4084507,57.8028169 61.415493,59.1676056 62.2985915,61.3352113 L65.9915493,71.2901408 Z M74.9028169,63.5830986 C70.728169,63.5830986 67.356338,60.2112676 67.356338,56.1169014 C67.356338,52.0225352 70.728169,48.6507042 74.9028169,48.6507042 C79.0774648,48.6507042 82.4492958,52.0225352 82.4492958,56.1169014 C82.3690141,60.2915493 79.0774648,63.5830986 74.9028169,63.5830986 Z M74.9028169,51.7014085 C72.4140845,51.7014085 70.4873239,53.7084507 70.4873239,56.1169014 C70.4873239,58.5253521 72.4943662,60.5323944 74.9028169,60.5323944 C77.3915493,60.5323944 79.3183099,58.6056338 79.3183099,56.1169014 C79.3183099,53.7084507 77.3112676,51.7014085 74.9028169,51.7014085 Z M39.5788732,63.5830986 C35.4042254,63.5830986 32.0323944,60.2112676 32.0323944,56.1169014 C32.0323944,52.0225352 35.4042254,48.6507042 39.5788732,48.6507042 C43.7535211,48.6507042 47.1253521,52.0225352 47.1253521,56.1169014 C47.1253521,60.2915493 43.8338028,63.5830986 39.5788732,63.5830986 Z M39.5788732,51.7014085 C37.0901408,51.7014085 35.1633803,53.7084507 35.1633803,56.1169014 C35.1633803,58.5253521 37.1704225,60.5323944 39.5788732,60.5323944 C42.0676056,60.5323944 43.9943662,58.6056338 43.9943662,56.1169014 C44.0746479,53.7084507 42.0676056,51.7014085 39.5788732,51.7014085 Z" id="Shape" fill="#FFFFFF" fill-rule="nonzero"></path>
                <circle id="Oval" stroke="#FFFFFF" stroke-width="4" cx="57" cy="57" r="55"></circle>
            </g>
        </g>
    </g>
</svg>