<?xml version="1.0" encoding="UTF-8"?>
<svg width="26px" height="26px" viewBox="0 0 26 26" version="1.1" xmlns="http://www.w3.org/2000/svg" xmlns:xlink="http://www.w3.org/1999/xlink">
    <!-- Generator: Sketch 61.2 (89653) - https://sketch.com -->
    <title>Group 14</title>
    <desc>Created with Sketch.</desc>
    <defs>
        <linearGradient x1="-4.95290311%" y1="84.3108291%" x2="96.9366126%" y2="18.5486491%" id="linearGradient-1">
            <stop stop-color="#FFF78F" offset="0%"></stop>
            <stop stop-color="#00ECFF" offset="48.8040253%"></stop>
            <stop stop-color="#008FFF" offset="100%"></stop>
        </linearGradient>
    </defs>
    <g id="Symbols" stroke="none" stroke-width="1" fill="none" fill-rule="evenodd">
        <g id="Group-14">
            <g id="Group-20" fill="#212126">
                <circle id="Oval" cx="12.6" cy="12.6" r="12.6"></circle>
            </g>
            <g id="Lablaco-Logo-13032018-01" transform="translate(6.600000, 7.500000)" fill="#FFFFFF" fill-rule="nonzero">
                <path d="M11.3390913,6.48725938 L11.2061257,6.35486634 L11.2104498,6.35056087 L9.20083326,4.34959601 L9.65269973,3.89967492 L9.65486174,3.90182765 L9.99430205,3.56061955 C10.3867124,3.16666951 10.6029165,2.64355551 10.6029165,2.08922689 C10.6029165,0.937515001 9.66134785,0 8.50465624,0 C7.34796461,0 6.40639601,0.937515001 6.40639601,2.08922689 C6.40639601,2.64463187 6.62260005,3.16666951 7.01501039,3.56061955 L7.36417992,3.90936222 L7.80847923,4.34959601 L6.0042565,6.14605128 L4.20003376,4.34959601 L4.64325205,3.90828585 L4.6454141,3.91043858 L4.9935026,3.56061955 C5.38591294,3.16666951 5.60211698,2.64355551 5.60211698,2.08922689 C5.60211698,0.937515001 4.66054838,0 3.50385675,0 C2.34716513,0 1.40559652,0.937515001 1.40559652,2.08922689 C1.40559652,2.64463187 1.62180057,3.16666951 2.0142109,3.56061955 L2.36338043,3.90936222 L2.80767973,4.34959601 L1.15479984,5.99536 L0.660773603,6.48725938 C-0.220257868,7.36449788 -0.220257868,8.79175952 0.660773603,9.66792161 C1.10074883,10.1060027 1.68017566,10.3255814 2.25852147,10.3255814 C2.83686728,10.3255814 3.4152131,10.1060027 3.85626934,9.66792161 L5.25835255,8.27187462 L5.25943357,8.27295099 L6.0042565,7.53133465 L6.26262033,7.78858618 L6.26045828,7.79073891 L8.14467651,9.6668453 C8.16197283,9.68406718 8.1814312,9.69913624 8.19872752,9.7152818 L8.24304935,9.75941277 L8.24521139,9.75726005 C8.65924213,10.1232246 9.18461795,10.3255814 9.74242437,10.3255814 C9.79323233,10.3255814 9.84404028,10.3234287 9.89376719,10.3201996 C10.4407634,10.2846795 10.9488429,10.0554135 11.3401722,9.66576889 C12.2201227,8.79175952 12.2201227,7.36449788 11.3390913,6.48725938 Z M7.71334945,2.86851606 L7.6787568,2.83407234 C7.49282133,2.62956275 7.39120542,2.36692938 7.39120542,2.09030325 C7.39120542,1.47892723 7.89063676,0.981646022 8.50465624,0.981646022 C9.11867571,0.981646022 9.61810706,1.47892723 9.61810706,2.09030325 C9.61810706,2.36692938 9.5175722,2.62741001 9.33271776,2.8319196 L8.50465624,3.65641615 L7.71334945,2.86851606 Z M2.71254996,2.86851606 L2.67795731,2.83407234 C2.49202183,2.62956275 2.39040594,2.36692938 2.39040594,2.09030325 C2.39040594,1.47892723 2.88983728,0.981646022 3.50385675,0.981646022 C4.11787623,0.981646022 4.61730757,1.47892723 4.61730757,2.09030325 C4.61730757,2.36692938 4.51677269,2.62848638 4.33191823,2.8319196 L3.50385675,3.65641615 L2.71254996,2.86851606 Z M5.04539157,7.10078814 L5.04431055,7.09971178 L3.16009232,8.97581815 C2.66282303,9.47094665 1.85421991,9.47094665 1.35803163,8.97581815 C0.860762341,8.48068968 0.860762341,7.67556772 1.35803163,7.18151561 L2.84335341,5.70258839 L2.84335341,5.70258839 L3.50493778,5.04385225 L5.3091605,6.84030751 L5.04539157,7.10078814 Z M10.6429142,8.97581815 C10.4018468,9.21584778 10.0818647,9.34716455 9.74134332,9.34716455 C9.42568546,9.34716455 9.12732388,9.23199335 8.89382351,9.02425464 L6.69935249,6.83923114 L8.50357522,5.04277588 L9.1608355,5.69720655 L9.15651142,5.70151202 L10.6418332,7.18043924 C11.1391025,7.67556772 11.1391025,8.48068968 10.6429142,8.97581815 Z" id="Shape"></path>
            </g>
        </g>
    </g>
</svg>