<svg width="39" height="40" xmlns="http://www.w3.org/2000/svg">
    <g transform="translate(1 1.67)" fill="none" fillRule="evenodd">
        <ellipse stroke="#FFF" strokeWidth="1.28" cx="18.34" cy="18.53" rx="18.34" ry="18.53" />
        <path d="M24.22 8.97v5.66l-2.25 1.2v-2.39c0-.3-.38-.54-.65-.4l-5.65 2.81v-2.4c0-.31-.38-.55-.66-.41l-6.3 3.13a.46.46 0 00-.24.4v8.52c0 .23.21.45.45.45h18.9c.24 0 .45-.22.45-.45V8.97a.47.47 0 00-.45-.45h-3.15c-.25 0-.44.24-.45.45zm.9.44h2.25v15.23h-18v-7.78l5.4-2.69v2.4c0 .31.38.55.65.4l5.65-2.8v2.4c0 .32.4.54.66.4l3.15-1.68a.46.46 0 00.24-.39V9.41zM11.4 19.04a.47.47 0 00-.45.45v2.24c0 .23.22.45.45.45h3.15c.24 0 .45-.22.45-.45v-2.24a.47.47 0 00-.45-.45H11.4zm5.4 0a.47.47 0 00-.45.45v2.24c0 .23.22.45.45.45h3.16c.23 0 .45-.22.45-.45v-2.24a.47.47 0 00-.45-.45h-3.16zm5.4 0a.47.47 0 00-.44.45v2.24c0 .23.21.45.45.45h3.15c.23 0 .45-.22.45-.45v-2.24a.47.47 0 00-.45-.45H22.2zm-10.35.9h2.25v1.34h-2.25v-1.34zm5.4 0h2.26v1.34h-2.26v-1.34zm5.4 0h2.26v1.34h-2.25v-1.34z" fill="#FFF" fillRule="nonzero" />
    </g>
</svg>