<?xml version="1.0" encoding="UTF-8"?>
<svg width="37px" height="21px" viewBox="0 0 37 21" version="1.1" xmlns="http://www.w3.org/2000/svg" xmlns:xlink="http://www.w3.org/1999/xlink">
    <!-- Generator: Sketch 61.2 (89653) - https://sketch.com -->
    <title>noun_Key_3228328</title>
    <desc>Created with Sketch.</desc>
    <g id="Symbols" stroke="none" stroke-width="1" fill="none" fill-rule="evenodd">
        <g id="noun_Key_3228328" transform="translate(18.500000, 10.500000) rotate(90.000000) translate(-18.500000, -10.500000) translate(8.000000, -7.000000)" fill="#FFFFFF" fill-rule="nonzero" stroke="#FFFFFF" stroke-width="0.7">
            <path d="M12.2146307,1.05429265 C11.703611,0.54285386 11.0216926,0.261374081 10.2941176,0.261374081 C9.56654271,0.261374081 8.88462433,0.54285386 8.3736046,1.05429265 L1.20592286,8.22197396 C0.694484069,8.73299369 0.413004289,9.41491207 0.413004289,10.142487 C0.413004289,10.8700619 0.694484069,11.5519803 1.20592286,12.0630001 L7.43533866,18.2928345 L7.43533866,31.0863416 C7.43533866,31.186451 7.47052353,31.2836288 7.53461042,31.3607004 L10.3573669,34.7556314 C10.4327631,34.8461072 10.5420879,34.9018164 10.65979,34.909356 C10.669005,34.9097751 10.6782203,34.9101937 10.6870167,34.9101937 C10.7955038,34.9101937 10.9002207,34.8691446 10.9798058,34.7950047 L14.7324505,31.2924243 C14.8199942,31.2107447 14.8694206,31.0959748 14.8685829,30.9761782 C14.8677452,30.8568008 14.8174808,30.7428685 14.7290998,30.6620267 L13.4339578,29.4795602 L14.7290998,28.2966748 C14.8178998,28.2154143 14.8685829,28.1006443 14.8685829,27.9800101 C14.8685829,27.8593759 14.8178998,27.7446059 14.7290998,27.6633455 L13.487573,26.5294677 L14.7290998,25.3951713 C14.8178998,25.3139108 14.8685829,25.1991409 14.8685829,25.0785067 C14.8685829,24.9578725 14.8178998,24.8431025 14.7290998,24.761842 L13.4339578,23.5789566 L14.7290998,22.3964901 C14.8178998,22.3152297 14.8685829,22.2004597 14.8685829,22.0798255 C14.8685829,21.9591913 14.8178998,21.8444213 14.7290998,21.7631608 L13.324633,20.4801659 L13.324633,18.1206795 L19.3823124,12.0630001 C19.8937512,11.5519803 20.175231,10.8700619 20.175231,10.142487 C20.175231,9.41491207 19.8937512,8.73299369 19.3823124,8.22197396 L12.2146307,1.05429265 Z M18.7757903,11.4564784 L12.5924501,17.6398186 C12.5120273,17.7202414 12.4667894,17.8291471 12.4667894,17.9430794 L12.4667894,20.6694958 C12.4667894,20.79013 12.5174725,20.9048999 12.6062725,20.9861604 L13.8038181,22.0798268 L12.5086762,23.2622932 C12.4198761,23.3435537 12.369193,23.4583237 12.369193,23.5789578 C12.369193,23.699592 12.4198761,23.814362 12.5086762,23.8956225 L13.8038181,25.078508 L12.5622914,26.2128044 C12.4734913,26.2940648 12.4228082,26.4088348 12.4228082,26.529469 C12.4228082,26.6501032 12.4734913,26.7648732 12.5622914,26.8461336 L13.8038181,27.9800114 L12.5086762,29.1628969 C12.4198761,29.2441574 12.369193,29.3589273 12.369193,29.4795615 C12.369193,29.6001957 12.4198761,29.7149657 12.5086762,29.7962262 L13.8071693,30.9820433 L10.72639,33.8575773 L8.29318137,30.9313602 L8.29318137,18.1152344 C8.29318137,18.0013021 8.24794344,17.8923963 8.16752065,17.8119735 L1.81244498,11.4564784 C1.46310852,11.1071419 1.27084786,10.640522 1.27084786,10.142487 C1.27084786,9.64445202 1.46310852,9.17783254 1.81244498,8.82849565 L8.98012629,1.66081434 C9.32946317,1.31147788 9.79608266,1.11921722 10.2941176,1.11921722 C10.7921526,1.11921722 11.2587721,1.31147788 11.608109,1.66081434 L18.7757907,8.82849608 C19.1251272,9.17783254 19.3173879,9.64445245 19.3173879,10.1424874 C19.3173879,10.6405224 19.1251268,11.1071419 18.7757903,11.4564784 Z" id="Shape"></path>
            <path d="M13.6861165,7.70090159 L6.90211881,7.70090159 C5.92573591,7.70090159 5.1315606,8.4950769 5.1315606,9.4714598 C5.1315606,10.4478427 5.92573591,11.242018 6.90211881,11.242018 L13.6861165,11.242018 C14.6624994,11.242018 15.4566747,10.4478427 15.4566747,9.4714598 C15.4566747,8.4950769 14.6624994,7.70090159 13.6861165,7.70090159 Z M13.6861165,10.3841744 L6.90211881,10.3841744 C6.39863866,10.3841744 5.98940374,9.97493952 5.98940374,9.47145937 C5.98940374,8.96797923 6.39863866,8.5587443 6.90211881,8.5587443 L13.6861165,8.5587443 C14.1895966,8.5587443 14.5988316,8.96797923 14.5988316,9.47145937 C14.5988316,9.97493952 14.1895966,10.3841744 13.6861165,10.3841744 Z" id="Shape"></path>
        </g>
    </g>
</svg>