<svg width="74" height="15" xmlns="http://www.w3.org/2000/svg">
    <g fill="#FFF" fill-rule="nonzero">
        <path d="M68.62 3.555c-2.968 0-5.357 2.488-5.357 5.734 0 3.27 2.412 5.687 5.357 5.687 2.968 0 5.38-2.44 5.38-5.687 0-3.246-2.412-5.734-5.38-5.734zm0 8.886c-1.461 0-2.644-1.28-2.644-3.105 0-1.895 1.183-3.199 2.644-3.199 1.46 0 2.62 1.304 2.62 3.2.024 1.824-1.16 3.104-2.62 3.104zM56.445 12.44c-1.484 0-2.69-1.279-2.69-3.104 0-1.895 1.206-3.199 2.69-3.199 1.16 0 2.134.806 2.528 2.038h2.875c-.51-2.677-2.736-4.597-5.38-4.597-3.015 0-5.473 2.488-5.473 5.735 0 3.27 2.458 5.687 5.473 5.687 2.667 0 4.917-1.896 5.404-4.597h-2.876c-.394 1.232-1.391 2.038-2.551 2.038zM2.736 10.308V0H0v10.332c0 2.82 1.577 4.644 4.522 4.644h.974v-2.749h-.95c-1.323.024-1.81-.545-1.81-1.919zM12.268 3.46c-3.224 0-5.496 2.583-5.496 5.734 0 3.128 2.295 5.688 5.125 5.688h5.844V9.194c0-3.151-2.25-5.734-5.473-5.734zm0 8.839c-1.508 0-2.737-1.327-2.737-3.081 0-1.8 1.23-3.128 2.737-3.128 1.507 0 2.736 1.398 2.736 3.128 0 .782.023 3.104.023 3.104l-2.76-.023zM43.945 3.46c-3.223 0-5.496 2.583-5.496 5.734 0 3.128 2.296 5.688 5.125 5.688h5.844V9.194c0-3.151-2.25-5.734-5.473-5.734zm0 8.839c-1.507 0-2.736-1.327-2.736-3.081 0-1.8 1.23-3.128 2.736-3.128 1.508 0 2.737 1.398 2.737 3.128 0 .782.023 3.104.023 3.104l-2.76-.023zM35.388 10.403V.023h-2.76v10.38c0 2.986 1.647 4.881 4.778 4.55v-2.536c-1.345.095-2.018-.474-2.018-2.014zM25.579 3.578h-3.084V.024h-2.783l.023 9.241c0 3.152 2.25 5.735 5.473 5.735s5.496-2.583 5.496-5.735c0-3.151-2.296-5.687-5.125-5.687zm-.371 8.792c-1.392 0-2.528-1.161-2.713-2.702v-3.53l2.713.023c1.507 0 2.736 1.327 2.736 3.08 0 1.802-1.229 3.129-2.736 3.129z"/>
    </g>
</svg>
