<svg width="127" height="62" xmlns="http://www.w3.org/2000/svg">
        <g fill="var(--white)" fillRule="evenodd">
          <text
            fontFamily="var(--my-abcdiatypesemi-mono-regular)"
            fontSize="60"
            fontWeight="500"
            transform="translate(-41 -17)"
          >
            <tspan x="40" y="60">
              SPIN
            </tspan>
          </text>
          <g fillRule="nonzero">
            <path d="M3.5 58.7v.7H2V51h1.5v3.2a2 2 0 011.7-.8c1.7 0 2.8 1.3 2.8 3 0 1.9-1 3.1-2.8 3.1a2 2 0 01-1.7-.8zm3-2.2c0-1.1-.6-1.8-1.5-1.8-1 0-1.6.7-1.6 1.8 0 1 .6 1.8 1.6 1.8s1.5-.7 1.5-1.8zm5.3 2.7l-.9 2.6H9.5l.9-2.4-2.2-5.9h1.5l1.3 4 1.4-4h1.5zM123.4 54c-1.7 0-3.1 1.4-3.1 3.2a3 3 0 003 3.2c1.8 0 3.1-1.3 3.1-3.2 0-1.8-1.3-3.2-3-3.2zm0 5c-.9 0-1.6-.7-1.6-1.7 0-1.1.7-1.8 1.6-1.8.8 0 1.5.7 1.5 1.8 0 1-.7 1.7-1.5 1.7zm-7 0c-.9 0-1.5-.7-1.5-1.7 0-1.1.6-1.8 1.5-1.8.7 0 1.2.4 1.4 1.1h1.7a3.1 3.1 0 00-3.1-2.6 3.1 3.1 0 00-3.1 3.2c0 1.9 1.4 3.2 3.1 3.2a3.1 3.1 0 003.1-2.5h-1.6c-.3.6-.8 1.1-1.5 1.1zm-30.7-1.2V52H84v5.8c0 1.6.9 2.6 2.6 2.6h.5V59h-.5c-.8 0-1-.3-1-1.1zM91 54a3.1 3.1 0 00-3.1 3.2c0 1.7 1.3 3.2 2.9 3.2h3.3v-3.2c0-1.8-1.2-3.2-3-3.2zm0 5c-.9 0-1.6-.8-1.6-1.8s.7-1.8 1.6-1.8c.9 0 1.6.8 1.6 1.8v1.7H91zm18.1-5a3.1 3.1 0 00-3.1 3.2c0 1.7 1.3 3.2 3 3.2h3.3v-3.2c0-1.8-1.3-3.2-3.2-3.2zm0 5c-.8 0-1.5-.8-1.5-1.8s.7-1.8 1.5-1.8c.9 0 1.6.8 1.6 1.8v1.7h-1.6zm-4.9-1.1V52h-1.5V58c0 1.6.9 2.7 2.7 2.5V59c-.8 0-1.2-.3-1.2-1.1zM98.7 54H97v-2h-1.6v5.2c0 1.8 1.3 3.2 3.1 3.2 1.9 0 3.2-1.4 3.2-3.2 0-1.7-1.4-3.2-3-3.2zm-.2 5c-.8 0-1.4-.7-1.5-1.6v-2h1.5c.9 0 1.6.8 1.6 1.8s-.7 1.8-1.6 1.8z" />
          </g>
        </g>
      </svg>
