<?xml version="1.0" encoding="UTF-8"?>
<svg width="26px" height="26px" viewBox="0 0 26 26" version="1.1" xmlns="http://www.w3.org/2000/svg" xmlns:xlink="http://www.w3.org/1999/xlink">
    <!-- Generator: Sketch 61.2 (89653) - https://sketch.com -->
    <title>Group 24</title>
    <desc>Created with Sketch.</desc>
    <g id="Symbols" stroke="none" stroke-width="1" fill="none" fill-rule="evenodd">
        <g id="Group-24">
            <g id="Group-23">
                <circle id="Oval" fill="#212126" cx="12.6" cy="12.6" r="12.6"></circle>
                <g id="noun_on-off_1580793" transform="translate(7.500000, 6.900000)" fill="#FFFFFF" fill-rule="nonzero">
                    <g id="Group">
                        <g id="Shape">
                            <path d="M2.62270106,1.46546148 C2.98116656,1.25625508 3.44000959,1.37957825 3.64755562,1.74091148 C3.85510166,2.10224473 3.73275724,2.56475846 3.37429174,2.77396487 C2.22318349,3.44577066 1.5,4.68298624 1.5,6.048 C1.5,8.13563635 3.17893219,9.828 5.25,9.828 C7.32106781,9.828 9,8.13563635 9,6.048 C9,4.68843553 8.28262815,3.45545574 7.13883836,2.78166367 C6.78121744,2.57099372 6.66073474,2.10798368 6.8697327,1.74750179 C7.0787307,1.3870199 7.53806606,1.26557333 7.89568699,1.47624329 C9.49513241,2.41845632 10.5,4.14556818 10.5,6.048 C10.5,8.9706909 8.14949494,11.34 5.25,11.34 C2.35050506,11.34 0,8.9706909 0,6.048 C0,4.13792457 1.01298578,2.40491795 2.62270106,1.46546148 Z M4.5,0.756 C4.5,0.338472729 4.83578644,0 5.25,0 C5.66421356,0 6,0.338472729 6,0.756 L6,3.024 C6,3.44152727 5.66421356,3.78 5.25,3.78 C4.83578644,3.78 4.5,3.44152727 4.5,3.024 L4.5,0.756 Z"></path>
                        </g>
                    </g>
                </g>
            </g>
        </g>
    </g>
</svg>