<?xml version="1.0" encoding="UTF-8"?>
<svg width="40px" height="40px" viewBox="0 0 40 40" version="1.1" xmlns="http://www.w3.org/2000/svg" xmlns:xlink="http://www.w3.org/1999/xlink">
    <title>Group</title>
    <g id="SPIN---MOBILE" stroke="none" stroke-width="1" fill="none" fill-rule="evenodd">
        <g id="SPIN---MENU---NOTIFICATIONS" transform="translate(-187.000000, -146.000000)">
            <g id="Group" transform="translate(187.000000, 146.000000)">
                <circle id="Oval" stroke="#FFFFFF" stroke-width="4" cx="20" cy="20" r="18"></circle>
                <path d="M15.0540643,27.4447257 L15.0540643,2.33333333 L11.1956016,2.33333333 L10.6249731,2.49824773 C10.4928601,2.70624934 10.4268036,2.88973628 10.4268036,3.04870855 C10.4268036,8.4700457 10.4268036,16.6020514 10.4268036,27.4447257 C10.4268036,34.2985232 14.8682494,38.7333333 23.1633026,38.7333333 L25.9065486,38.7333333 L30.2934703,34.4760382 C29.58511,34.7308514 29.0781693,34.8990797 28.7726482,34.9807231 C27.144848,35.4157147 25.9681932,35.5814335 25.1411335,35.6701105 C24.4917097,35.7397414 23.5089298,35.8232577 22.4116657,35.7974678 C18.6886891,35.8550627 15.0540643,33.0569353 15.0540643,27.4447257 Z" id="Path" fill="#FFFFFF" fill-rule="nonzero"></path>
            </g>
        </g>
    </g>
</svg>