<?xml version="1.0" encoding="UTF-8"?>
<svg width="36px" height="35px" viewBox="0 0 36 35" version="1.1" xmlns="http://www.w3.org/2000/svg" xmlns:xlink="http://www.w3.org/1999/xlink">
    <title>SPIN-connect-ICON0</title>
    <g id="SPIN---MOBILE" stroke="none" stroke-width="1" fill="none" fill-rule="evenodd">
        <g id="SPIN---BUSINESS-MENU---NOTIFICATIONS" transform="translate(-190.000000, -147.000000)" fill="#FFFFFF" fill-rule="nonzero">
            <g id="LPLUS-ICON0" transform="translate(190.000000, 147.000000)">
                <path d="M36,35 L31.1547779,35 C31.1462338,27.7382808 25.2615891,21.853675 18,21.845309 L18,17 C27.9363506,17.0112146 35.9886073,25.0634713 36,35 Z" id="Path"></path>
                <path d="M18,18 C8.06357566,17.9889633 0.0112148344,9.93660246 0,0 L4.84513513,0 C4.85350147,7.26184099 10.7382891,13.1465897 18,13.1547779 L18,18 Z" id="Path"></path>
                <g id="Group" transform="translate(33.000000, 0.000000)">
                    <polygon id="Path" points="0.51748072 0.15982187 0.842416452 0.15982187 0.842416452 0 0 0 0 0.15982187 0.323393316 0.15982187 0.323393316 0.998762989 0.51748072 0.998762989"></polygon>
                    <path d="M2,0.998762989 L2,0 L1.73907455,0 L1.57172237,0.475259772 C1.53264781,0.593270658 1.48251928,0.810737259 1.48251928,0.810737259 L1.47840617,0.810737259 C1.47840617,0.810737259 1.42827763,0.592033647 1.38766067,0.475259772 L1.21748072,0 L0.962724936,0 L0.962724936,0.998762989 L1.13573265,0.998762989 L1.13573265,0.479218209 C1.13573265,0.370361207 1.12313625,0.167738743 1.12313625,0.167738743 L1.12596401,0.167738743 C1.12596401,0.167738743 1.16915167,0.351558634 1.20308483,0.451014349 L1.40102828,1 L1.55732648,1 L1.75398458,0.451014349 C1.7874036,0.352053439 1.8311054,0.167738743 1.8311054,0.167738743 L1.83393316,0.167738743 C1.83393316,0.167738743 1.82133676,0.370361207 1.82133676,0.479218209 L1.82133676,0.998762989 L2,0.998762989 Z" id="Path"></path>
                </g>
            </g>
        </g>
    </g>
</svg>