<svg width="24" height="22" viewBox="0 0 24 22" xmlns="http://www.w3.org/2000/svg">
    <g fill="#FFF" fill-rule="nonzero" stroke="#FFF">
        <path d="M19.462 1H4.542C2.587 1 1.002 2.572 1 4.513v12.96c-.002.934.37 1.83 1.035 2.492A3.559 3.559 0 0 0 4.542 21h14.92C21.416 20.998 23 19.424 23 17.483V4.513c-.002-1.94-1.585-3.511-3.538-3.513zm-14.92.55h14.92c1.647.002 2.982 1.327 2.984 2.963v10.943l-4.609-4.562a3.133 3.133 0 0 0-4.4 0l-.784.783-2.457-2.355a3.106 3.106 0 0 0-2.2-.912c-.827 0-1.619.328-2.2.912L1.557 13.62v-9.1a2.956 2.956 0 0 1 .873-2.1 3 3 0 0 1 2.112-.871zM1.557 14.407l4.639-4.692a2.602 2.602 0 0 1 3.619 0l2.456 2.352-2.83 2.806a3.113 3.113 0 0 1-2.237.94H1.557v-1.406zm17.905 6.032H4.542c-1.649-.002-2.985-1.33-2.985-2.966v-1.11h5.647a3.68 3.68 0 0 0 2.622-1.093l4.015-3.99a2.635 2.635 0 0 1 3.619 0l4.986 4.951v1.238a2.956 2.956 0 0 1-.872 2.099 3 3 0 0 1-2.112.871z" stroke-width=".898"/>
        <path d="M17.104 8.03a2.134 2.134 0 0 0 2.141-2.126 2.134 2.134 0 0 0-2.141-2.126 2.134 2.134 0 0 0-2.141 2.126 2.137 2.137 0 0 0 2.141 2.125zm0-3.703a1.588 1.588 0 0 1 1.47.97 1.568 1.568 0 0 1-.342 1.72 1.596 1.596 0 0 1-1.731.343 1.576 1.576 0 0 1-.981-1.456 1.586 1.586 0 0 1 1.584-1.577z" stroke-width=".55"/>
    </g>
</svg>
