<svg width="20" height="15" viewBox="0 0 20 15" fill="none" xmlns="http://www.w3.org/2000/svg">
<path fill-rule="evenodd" clip-rule="evenodd" d="M3.00002 4.56969H1.07597C0.544324 4.56969 0.13926 4.13931 0.164577 3.63299C0.164577 3.10134 0.594957 2.69628 1.10129 2.69628H3.02534C3.4304 1.27855 4.72154 0.240581 6.24053 0.240581C7.75951 0.240581 9.05065 1.27855 9.45572 2.69628H18.8481C19.3798 2.69628 19.7848 3.12666 19.7848 3.63299C19.7848 4.16463 19.3545 4.56969 18.8481 4.56969L9.4304 4.56969C9.02534 5.98742 7.7342 7.02539 6.21521 7.02539C4.69622 7.02539 3.40508 5.98742 3.00002 4.56969ZM7.7342 3.63299C7.7342 2.77223 7.02534 2.114 6.21521 2.114C5.40508 2.114 4.69622 2.77223 4.69622 3.63299C4.69622 4.49375 5.35445 5.15197 6.21521 5.15197C7.07597 5.15197 7.7342 4.49375 7.7342 3.63299Z" fill="white"/>
<path fill-rule="evenodd" clip-rule="evenodd" d="M16.8481 10.114H18.8481C19.3798 10.114 19.7849 10.5191 19.7849 11.0507C19.7849 11.5824 19.3545 11.9874 18.8481 11.9874L16.8481 11.9874C16.4431 13.4051 15.1519 14.4431 13.633 14.4431C12.114 14.4431 10.8228 13.4051 10.4178 11.9874H1.07599C0.544345 11.9874 0.139282 11.5824 0.139282 11.0507C0.139282 10.5191 0.569662 10.114 1.07599 10.114H10.4178C10.8228 8.69628 12.114 7.65831 13.633 7.65831C15.1519 7.65831 16.4431 8.69628 16.8481 10.114ZM12.114 11.0507C12.114 11.9115 12.8228 12.5697 13.633 12.5697C14.4431 12.5697 15.1519 11.8608 15.1519 11.0507C15.1519 10.2406 14.4937 9.53172 13.633 9.53172C12.7722 9.53172 12.114 10.19 12.114 11.0507Z" fill="white"/>
</svg>
