<svg width="21" height="19" viewBox="0 0 21 19" fill="none" xmlns="http://www.w3.org/2000/svg">
<path fill-rule="evenodd" clip-rule="evenodd" d="M4.059 0.949707H16.9442C18.6311 0.95144 19.9982 2.30874 20 3.9836V15.1854C20 16.8615 18.6324 18.2207 16.9442 18.2224H4.059C3.24632 18.2216 2.4673 17.9001 1.89353 17.3287C1.31977 16.7572 0.998325 15.9828 1.00001 15.176V3.9836C1.00175 2.30752 2.3708 0.949707 4.059 0.949707ZM16.9442 1.42443H4.059C3.37452 1.42527 2.71841 1.69602 2.235 2.17714C1.7516 2.65825 1.4805 3.31031 1.48134 3.98988V11.8497L5.142 8.13671C5.64402 7.6329 6.32818 7.34941 7.042 7.34941C7.75582 7.34941 8.43997 7.6329 8.942 8.13671L11.0637 10.1708L11.7413 9.49489C12.7917 8.45563 14.4909 8.45563 15.5413 9.49489L19.5218 13.4342V3.98359C19.5201 2.57092 18.367 1.42617 16.9442 1.42443ZM1.48133 12.5288L5.48716 8.47627C6.35594 7.63315 7.74388 7.63315 8.61266 8.47627L10.7343 10.5072L8.28966 12.9312C7.78356 13.451 7.08616 13.7438 6.358 13.7423H1.48133V12.5288ZM4.059 17.7383H16.9442C17.6286 17.7374 18.2847 17.4667 18.7682 16.9856C19.2516 16.5045 19.5227 15.8524 19.5218 15.1728V14.1039L15.2152 9.82816C14.3404 8.99976 12.9644 8.99976 12.0897 9.82816L8.62216 13.2739C8.02592 13.8778 7.20977 14.2178 6.358 14.2171H1.48133V15.176C1.48133 16.5899 2.63488 17.7365 4.059 17.7383Z" fill="white"/>
<path d="M16.9442 0.949707L16.9444 0.699707H16.9442V0.949707ZM20 3.9836H20.25V3.98333L20 3.9836ZM16.9442 18.2224V18.4724H16.9444L16.9442 18.2224ZM4.059 18.2224L4.05875 18.4724H4.059V18.2224ZM1.89353 17.3287L1.71712 17.5058H1.71712L1.89353 17.3287ZM1.00001 15.176L1.25001 15.1765V15.176H1.00001ZM1.00001 3.9836L0.750007 3.98333V3.9836H1.00001ZM4.059 1.42443V1.17443L4.0587 1.17443L4.059 1.42443ZM16.9442 1.42443L16.9445 1.17443H16.9442V1.42443ZM2.235 2.17714L2.05865 1.99994L2.235 2.17714ZM1.48134 3.98988H1.73134L1.73134 3.98957L1.48134 3.98988ZM1.48134 11.8497H1.23134V12.4594L1.65936 12.0252L1.48134 11.8497ZM5.142 8.13671L4.96491 7.96025L4.96397 7.9612L5.142 8.13671ZM8.942 8.13671L8.76486 8.31322L8.76898 8.31717L8.942 8.13671ZM11.0637 10.1708L10.8906 10.3513L11.0671 10.5205L11.2402 10.3478L11.0637 10.1708ZM11.7413 9.49489L11.5655 9.31717L11.5648 9.31789L11.7413 9.49489ZM15.5413 9.49489L15.7172 9.3172L15.7172 9.31717L15.5413 9.49489ZM19.5218 13.4342L19.346 13.6119L19.7718 14.0334V13.4342H19.5218ZM19.5218 3.98359H19.7718V3.98328L19.5218 3.98359ZM5.48716 8.47627L5.31302 8.29683L5.30937 8.30052L5.48716 8.47627ZM1.48133 12.5288L1.30354 12.353L1.23133 12.4261V12.5288H1.48133ZM8.61266 8.47627L8.43855 8.65568L8.43979 8.65687L8.61266 8.47627ZM10.7343 10.5072L10.9104 10.6848L11.0926 10.5041L10.9072 10.3267L10.7343 10.5072ZM8.28966 12.9312L8.11361 12.7537L8.11054 12.7568L8.28966 12.9312ZM6.358 13.7423L6.35851 13.4923H6.358V13.7423ZM1.48133 13.7423H1.23133V13.9923H1.48133V13.7423ZM16.9442 17.7383V17.9883H16.9445L16.9442 17.7383ZM4.059 17.7383L4.05869 17.9883H4.059V17.7383ZM18.7682 16.9856L18.9445 17.1628L18.7682 16.9856ZM19.5218 15.1728H19.2718V15.1731L19.5218 15.1728ZM19.5218 14.1039H19.7718V13.9998L19.698 13.9265L19.5218 14.1039ZM15.2152 9.82816L15.3913 9.6507L15.3871 9.64664L15.2152 9.82816ZM12.0897 9.82816L11.9177 9.64659L11.9134 9.65083L12.0897 9.82816ZM8.62216 13.2739L8.44593 13.0966L8.44426 13.0983L8.62216 13.2739ZM6.358 14.2171L6.35821 13.9671H6.358V14.2171ZM1.48133 14.2171V13.9671H1.23133V14.2171H1.48133ZM1.48133 15.176H1.73133H1.48133ZM16.9442 0.699707H4.059V1.19971H16.9442V0.699707ZM20.25 3.98333C20.2481 2.16892 18.7676 0.70158 16.9444 0.699707L16.9439 1.19971C18.4947 1.2013 19.7484 2.44856 19.75 3.98386L20.25 3.98333ZM20.25 15.1854V3.9836H19.75V15.1854H20.25ZM16.9444 18.4724C18.7689 18.4706 20.25 17.0011 20.25 15.1854H19.75C19.75 16.7218 18.4958 17.9708 16.9439 17.9724L16.9444 18.4724ZM4.059 18.4724H16.9442V17.9724H4.059V18.4724ZM1.71712 17.5058C2.33786 18.124 3.18029 18.4715 4.05875 18.4724L4.05926 17.9724C3.31234 17.9717 2.59673 17.6761 2.06995 17.1515L1.71712 17.5058ZM0.750007 15.1754C0.748186 16.0492 1.09631 16.8875 1.71712 17.5058L2.06995 17.1515C1.54322 16.6269 1.24846 15.9164 1.25001 15.1765L0.750007 15.1754ZM0.750007 3.9836V15.176H1.25001V3.9836H0.750007ZM4.059 0.699707C2.23453 0.699707 0.7519 2.16759 0.750007 3.98333L1.25001 3.98386C1.25161 2.44744 2.50707 1.19971 4.059 1.19971V0.699707ZM4.059 1.67443H16.9442V1.17443H4.059V1.67443ZM2.41136 2.35433C2.8478 1.91996 3.44055 1.67519 4.0593 1.67443L4.0587 1.17443C3.30849 1.17535 2.58902 1.47208 2.05865 1.99994L2.41136 2.35433ZM1.73134 3.98957C1.73058 3.37689 1.97498 2.78864 2.41136 2.35433L2.05865 1.99994C1.52822 2.52786 1.23041 3.24373 1.23134 3.99019L1.73134 3.98957ZM1.73134 11.8497V3.98988H1.23134V11.8497H1.73134ZM4.96397 7.9612L1.30331 11.6742L1.65936 12.0252L5.32003 8.31223L4.96397 7.9612ZM7.042 7.09941C6.26199 7.09941 5.51403 7.40917 4.96491 7.96025L5.31909 8.31318C5.77401 7.85664 6.39437 7.59941 7.042 7.59941V7.09941ZM9.11909 7.96025C8.56996 7.40917 7.822 7.09941 7.042 7.09941V7.59941C7.68963 7.59941 8.30998 7.85664 8.76491 8.31318L9.11909 7.96025ZM11.2367 9.99037L9.11501 7.95625L8.76898 8.31717L10.8906 10.3513L11.2367 9.99037ZM11.5648 9.31789L10.8871 9.99383L11.2402 10.3478L11.9179 9.67189L11.5648 9.31789ZM15.7172 9.31717C14.5693 8.18154 12.7133 8.18154 11.5655 9.31717L11.9172 9.67261C12.8702 8.72973 14.4125 8.72973 15.3655 9.67261L15.7172 9.31717ZM19.6977 13.2565L15.7172 9.3172L15.3655 9.67258L19.346 13.6119L19.6977 13.2565ZM19.2718 3.98359V13.4342H19.7718V3.98359H19.2718ZM16.9439 1.67443C18.2306 1.676 19.2703 2.71075 19.2718 3.9839L19.7718 3.98328C19.7699 2.43109 18.5035 1.17633 16.9445 1.17443L16.9439 1.67443ZM5.30937 8.30052L1.30354 12.353L1.65913 12.7045L5.66496 8.65202L5.30937 8.30052ZM8.78677 8.29686C7.821 7.35962 6.27883 7.35962 5.31306 8.29686L5.66127 8.65568C6.43306 7.90668 7.66676 7.90668 8.43855 8.65568L8.78677 8.29686ZM10.9072 10.3267L8.78554 8.29568L8.43979 8.65687L10.5615 10.6878L10.9072 10.3267ZM8.46569 13.1087L10.9104 10.6848L10.5583 10.3297L8.11364 12.7537L8.46569 13.1087ZM6.35748 13.9923C7.153 13.994 7.9153 13.6741 8.46878 13.1056L8.11054 12.7568C7.65183 13.2279 7.01932 13.4937 6.35851 13.4923L6.35748 13.9923ZM1.48133 13.9923H6.358V13.4923H1.48133V13.9923ZM1.23133 12.5288V13.7423H1.73133V12.5288H1.23133ZM16.9442 17.4883H4.059V17.9883H16.9442V17.4883ZM18.5918 16.8084C18.1554 17.2428 17.5626 17.4875 16.9439 17.4883L16.9445 17.9883C17.6947 17.9874 18.4141 17.6906 18.9445 17.1628L18.5918 16.8084ZM19.2718 15.1731C19.2726 15.7858 19.0282 16.3741 18.5918 16.8084L18.9445 17.1628C19.4749 16.6349 19.7727 15.919 19.7718 15.1725L19.2718 15.1731ZM19.2718 14.1039V15.1728H19.7718V14.1039H19.2718ZM15.039 10.0056L19.3457 14.2813L19.698 13.9265L15.3913 9.65075L15.039 10.0056ZM12.2616 10.0097C13.0399 9.27259 14.2649 9.27259 15.0433 10.0097L15.3871 9.64664C14.4159 8.72693 12.8889 8.72693 11.9178 9.64664L12.2616 10.0097ZM8.79838 13.4512L12.2659 10.0055L11.9134 9.65083L8.44594 13.0966L8.79838 13.4512ZM6.35778 14.4671C7.27621 14.4679 8.15661 14.1013 8.80007 13.4495L8.44426 13.0983C7.89524 13.6544 7.14333 13.9677 6.35821 13.9671L6.35778 14.4671ZM1.48133 14.4671H6.358V13.9671H1.48133V14.4671ZM1.73133 15.176V14.2171H1.23133V15.176H1.73133ZM4.0593 17.4883C2.77144 17.4867 1.73133 16.4502 1.73133 15.176H1.23133C1.23133 16.7295 2.49832 17.9864 4.05869 17.9883L4.0593 17.4883Z" fill="white"/>
<path fill-rule="evenodd" clip-rule="evenodd" d="M16.7573 5.18469C16.7573 6.19871 15.9293 7.02074 14.9079 7.02074C13.8873 7.01901 13.0603 6.19799 13.0586 5.18469C13.0586 4.17066 13.8866 3.34863 14.9079 3.34863C15.9293 3.34863 16.7573 4.17066 16.7573 5.18469ZM16.177 4.66157C15.9637 4.15298 15.4628 3.82211 14.9079 3.82338C14.1526 3.82684 13.5417 4.43481 13.5399 5.1847C13.5399 5.73559 13.8743 6.23218 14.3871 6.4427C14.8999 6.65322 15.4899 6.53617 15.8818 6.14619C16.2737 5.7562 16.3902 5.17016 16.177 4.66157Z" fill="white"/>
<path d="M14.9079 7.02074L14.9075 7.27074H14.9079V7.02074ZM13.0586 5.18469H12.8086L12.8086 5.18512L13.0586 5.18469ZM14.9079 3.82338L14.9074 3.57338L14.9068 3.57339L14.9079 3.82338ZM13.5399 5.1847L13.2899 5.18413V5.18471L13.5399 5.1847ZM15.8818 6.14619L16.0581 6.32339L16.0581 6.32339L15.8818 6.14619ZM14.9079 7.27074C16.0657 7.27074 17.0073 6.33848 17.0073 5.18469H16.5073C16.5073 6.05894 15.7929 6.77074 14.9079 6.77074V7.27074ZM12.8086 5.18512C12.8106 6.33785 13.7508 7.26878 14.9075 7.27074L14.9083 6.77074C14.0238 6.76924 13.3101 6.05814 13.3086 5.18426L12.8086 5.18512ZM14.9079 3.09863C13.7502 3.09863 12.8086 4.03089 12.8086 5.18469H13.3086C13.3086 4.31043 14.0229 3.59863 14.9079 3.59863V3.09863ZM17.0073 5.18469C17.0073 4.03089 16.0657 3.09863 14.9079 3.09863V3.59863C15.7929 3.59863 16.5073 4.31043 16.5073 5.18469H17.0073ZM14.9085 4.07338C15.3633 4.07234 15.7725 4.34348 15.9464 4.75823L16.4075 4.56491C16.155 3.96248 15.5623 3.57188 14.9074 3.57339L14.9085 4.07338ZM13.7899 5.18528C13.7913 4.57446 14.2895 4.07622 14.9091 4.07338L14.9068 3.57339C14.0158 3.57746 13.292 4.29515 13.2899 5.18413L13.7899 5.18528ZM14.4821 6.21143C14.0623 6.03911 13.7899 5.63337 13.7899 5.1847L13.2899 5.18471C13.2899 5.83782 13.6864 6.42525 14.2922 6.67396L14.4821 6.21143ZM15.7054 5.96898C15.3851 6.28776 14.9021 6.38387 14.4821 6.21143L14.2922 6.67396C14.8977 6.92257 15.5947 6.78459 16.0581 6.32339L15.7054 5.96898ZM15.9464 4.75823C16.1202 5.17268 16.0255 5.65051 15.7054 5.96898L16.0581 6.32339C16.5219 5.86189 16.6602 5.16763 16.4075 4.56491L15.9464 4.75823Z" fill="white"/>
</svg>
