<?xml version="1.0" encoding="UTF-8"?>
<svg width="26px" height="26px" viewBox="0 0 26 26" version="1.1" xmlns="http://www.w3.org/2000/svg" xmlns:xlink="http://www.w3.org/1999/xlink">
    <!-- Generator: Sketch 61.2 (89653) - https://sketch.com -->
    <title>Group 6</title>
    <desc>Created with Sketch.</desc>
    <g id="Symbols" stroke="none" stroke-width="1" fill="none" fill-rule="evenodd">
        <g id="Group-6">
            <circle id="Oval" fill="#212126" cx="13" cy="13" r="13"></circle>
            <g id="noun_edit-icon_3134350" transform="translate(6.500000, 6.500000)" fill="#FFFFFF" fill-rule="nonzero" stroke="#FFFFFF" stroke-width="0.65">
                <path d="M12.0147368,0.643157895 C11.6040059,0.231605871 11.0464422,0.000329203429 10.465,0.000329203429 C9.88355785,0.000329203429 9.3259941,0.231605871 8.91526316,0.643157895 L0.786842105,8.79552632 C0.730711613,8.84920635 0.694517428,8.92038825 0.684210526,8.99736842 L0.342105263,11.9326316 C0.329761493,12.0358366 0.365007207,12.1390562 0.437894737,12.2131579 C0.502723099,12.2792992 0.591597903,12.3163304 0.684210526,12.3157953 L0.721842105,12.3157953 L3.68447368,12.0078947 C3.76178121,11.9977515 3.83376076,11.9629614 3.88973684,11.9086842 L12.0147368,3.76315789 C12.876077,2.9015009 12.876077,1.50481489 12.0147368,0.643157895 Z M3.48947368,11.3339474 L1.07421053,11.5905263 L1.35473684,9.19578947 L7.85473684,2.69578947 L9.98947368,4.83736842 L3.48947368,11.3339474 Z M10.465,4.34131579 L8.33026316,2.19973684 L9.39763158,1.12894737 C9.67970945,0.843975634 10.0640302,0.683634658 10.465,0.683634658 C10.8659698,0.683634658 11.2502905,0.843975634 11.5323684,1.12894737 C12.1212095,1.72137776 12.1212095,2.67809592 11.5323684,3.27052632 L10.465,4.34131579 Z" id="Shape"></path>
            </g>
        </g>
    </g>
</svg>