<svg width="94" height="94" viewBox="0 0 94 94" fill="none" xmlns="http://www.w3.org/2000/svg">
<circle cx="47" cy="47" r="47" fill="black"/>
<path d="M33.9712 42.8632C31.9666 42.4494 30.5471 42.0487 30.5471 40.6493C30.5471 39.4128 31.6085 38.6749 33.3863 38.6749C35.2364 38.6749 36.3814 39.5437 36.6085 41.1211L36.6219 41.2129H38.6371L38.62 41.0905C38.3567 39.2245 37.2319 37 33.3681 37C30.4532 37 28.5693 38.4683 28.5693 40.7405C28.5693 43.4716 30.7253 44.1535 33.1261 44.661C35.5096 45.1948 36.9706 45.6069 36.9706 47.2767C36.9706 48.7415 35.8477 49.616 33.9678 49.616C31.623 49.616 30.2705 48.5506 30.0553 46.5348L30.045 46.4391H28L28.0063 46.5534C28.2038 50.073 31.1878 51.3275 33.9137 51.3275C37.0386 51.3275 39.0577 49.7089 39.0577 47.2038C39.0577 44.1406 36.754 43.4256 33.9712 42.8632Z" fill="white"/>
<path fill-rule="evenodd" clip-rule="evenodd" d="M40.7905 37.2572H46.5895C48.0323 37.2572 49.1799 37.7236 49.908 38.6092C50.5571 39.3697 50.9083 40.3414 50.8959 41.3429C50.8959 44.0023 49.3017 45.4669 46.4068 45.4669H42.8774V51.0537H40.7905V37.2572ZM46.2983 39.095H42.8774V43.7371H46.2255C47.9284 43.7371 48.8284 42.9281 48.8284 41.3978C48.8284 39.8912 47.9534 39.095 46.2983 39.095Z" fill="white"/>
<rect x="52.4119" y="37.2557" width="2.06838" height="13.798" fill="white"/>
<path d="M65.8502 37.2572V45.6701C65.8502 46.4702 65.9146 47.5979 65.9519 48.1871C65.6672 47.6382 65.0835 46.5394 64.6096 45.8124L59.0636 37.3041L59.032 37.2572H56.9215V51.0537H58.882V42.6212C58.882 41.8516 58.8277 40.7388 58.7966 40.1495C59.0943 40.6925 59.6904 41.7636 60.1597 42.4968L65.6846 51.0052L65.7165 51.0537H67.8085V37.2572H65.8502Z" fill="white"/>
<path fill-rule="evenodd" clip-rule="evenodd" d="M29.1804 57.1041V56.8255C29.3273 57.0309 29.5682 57.1471 29.8197 57.1341C30.4789 57.1341 30.8705 56.6711 30.8705 55.9941C30.8705 55.3223 30.4789 54.8545 29.8296 54.8545C29.5769 54.8439 29.3349 54.9572 29.1804 55.1583V53.9437H28.645V57.1041H29.1804ZM29.6892 55.4747C30.0095 55.4478 30.2939 55.6792 30.334 55.9993C30.3547 56.1705 30.3016 56.3424 30.188 56.4717C30.0744 56.6011 29.9112 56.6755 29.7394 56.6763C29.4181 56.6764 29.1538 56.422 29.1404 56.0997C29.1269 55.7773 29.369 55.5016 29.6892 55.4747Z" fill="white"/>
<path d="M32.5211 54.8942L32.0153 56.4122L31.5049 54.8942H30.9596L31.7625 57.104L31.4503 57.9999H31.9609L32.303 56.9995L33.0712 54.8942H32.5211Z" fill="white"/>
<path fill-rule="evenodd" clip-rule="evenodd" d="M65.587 55.4641C65.7867 55.018 66.2361 54.7381 66.7229 54.7567C67.0357 54.7597 67.334 54.8892 67.5505 55.1159C67.7669 55.3426 67.8831 55.6474 67.8728 55.9613C67.8707 56.4504 67.5732 56.8893 67.1208 57.0708C66.6683 57.2522 66.1515 57.1398 65.8144 56.7866C65.4773 56.4335 65.3873 55.9103 65.587 55.4641ZM66.3024 56.4176C66.4089 56.5406 66.5608 56.6148 66.7229 56.6231C66.8849 56.6155 67.0367 56.5413 67.1426 56.418C67.2486 56.2946 67.2993 56.133 67.2831 55.971C67.3219 55.7459 67.224 55.5191 67.0338 55.3938C66.8436 55.2684 66.5974 55.2684 66.4072 55.3938C66.217 55.5191 66.1191 55.7459 66.1579 55.971C66.1437 56.1334 66.1958 56.2946 66.3024 56.4176Z" fill="white"/>
<path d="M64.1208 56.6232C63.9573 56.6163 63.8036 56.5429 63.6951 56.4199C63.5867 56.2969 63.5328 56.1348 63.5458 55.971C63.5298 55.8046 63.5821 55.6389 63.6907 55.5121C63.7992 55.3853 63.9545 55.3084 64.1208 55.2992C64.3757 55.3062 64.5957 55.4805 64.6616 55.7278H65.2764C65.1504 55.1308 64.5943 54.7269 63.9901 54.7936C63.3859 54.8603 62.9305 55.3759 62.9368 55.9862C62.9431 56.5964 63.4091 57.1025 64.0146 57.1565C64.62 57.2106 65.1677 56.7952 65.2812 56.1957H64.6667C64.5986 56.4434 64.3772 56.6174 64.1213 56.6243" fill="white"/>
<path d="M52.6421 56.1754V54.0104H52.0572V56.1802C52.031 56.4455 52.1243 56.7085 52.3117 56.8974C52.499 57.0862 52.7607 57.1809 53.0249 57.1556H53.233V56.5783H53.0298C52.7474 56.5835 52.6432 56.464 52.6432 56.1754" fill="white"/>
<path fill-rule="evenodd" clip-rule="evenodd" d="M53.8363 55.0869C54.058 54.8596 54.3623 54.7329 54.6792 54.7359C54.9955 54.7331 55.2993 54.8601 55.5201 55.0875C55.741 55.3149 55.8598 55.623 55.849 55.9404V57.135H54.5997C53.9697 57.1067 53.4806 56.5731 53.5045 55.9404C53.4948 55.6225 53.6146 55.3142 53.8363 55.0869ZM54.0954 55.9413C54.0954 56.2765 54.3472 56.5578 54.6792 56.5934L55.2689 56.5986C55.2689 56.5986 55.2641 56.1107 55.2641 55.9464C55.2822 55.6032 55.0209 55.3096 54.6792 55.2891C54.3472 55.3248 54.0954 55.606 54.0954 55.9413Z" fill="white"/>
<path fill-rule="evenodd" clip-rule="evenodd" d="M60.6064 55.0869C60.8281 54.8596 61.1325 54.7329 61.4493 54.7359C61.7656 54.7331 62.0694 54.8601 62.2903 55.0875C62.5111 55.3149 62.6299 55.623 62.6191 55.9404V57.135H61.3702C60.74 57.1068 60.2507 56.5733 60.2746 55.9404C60.2649 55.6225 60.3848 55.3142 60.6064 55.0869ZM60.8655 55.9413C60.8655 56.2765 61.1173 56.5578 61.4493 56.5934L62.0393 56.5986C62.0393 56.5986 62.0342 56.1107 62.0342 55.9464C62.0523 55.6032 61.7911 55.3096 61.4493 55.2891C61.1173 55.3248 60.8655 55.606 60.8655 55.9413Z" fill="white"/>
<path d="M59.622 56.195V54.0151H59.0322V56.195C59.0322 56.8237 59.384 57.2204 60.0532 57.1506V56.618C59.7657 56.638 59.622 56.5185 59.622 56.195Z" fill="white"/>
<path fill-rule="evenodd" clip-rule="evenodd" d="M56.8649 54.7616H57.5241C58.1549 54.7882 58.6451 55.3227 58.6196 55.9561C58.6311 56.3842 58.4102 56.7847 58.0428 57.0022C57.6754 57.2196 57.2194 57.2196 56.8519 57.0022C56.4845 56.7847 56.2636 56.3842 56.2751 55.9561L56.27 54.0151H56.8649V54.7616ZM56.8649 56.0407C56.8866 56.3504 57.1361 56.5945 57.445 56.6082C57.777 56.5726 58.0287 56.2913 58.0287 55.9561C58.0287 55.6209 57.777 55.3396 57.445 55.304L56.8649 55.2991V56.0407Z" fill="white"/>
</svg>
