<svg width="22" height="22" viewBox="0 0 22 22" fill="none" xmlns="http://www.w3.org/2000/svg">
<path fill-rule="evenodd" clip-rule="evenodd" d="M12.0802 1.28003C12.0802 0.683545 11.5968 0.200073 11.0003 0.200073C10.4038 0.200073 9.92032 0.683545 9.92032 1.28003V14.2615L6.35615 10.7686C5.93025 10.3511 5.24636 10.3581 4.82885 10.784C4.41149 11.2101 4.41836 11.8938 4.84441 12.3113L10.2444 17.6033C10.6643 18.0148 11.3363 18.0148 11.7561 17.6033L17.1561 12.3113C17.5822 11.8938 17.5891 11.2101 17.1717 10.784C16.7542 10.3581 16.0703 10.3511 15.6444 10.7686L12.0802 14.2615L12.0802 1.28003ZM2.36023 17.048C2.36023 16.4515 1.87676 15.9681 1.28027 15.9681C0.683789 15.9681 0.200317 16.4515 0.200317 17.048V20.72C0.200317 21.3165 0.683789 21.8 1.28027 21.8H20.7203C21.3168 21.8 21.8002 21.3165 21.8002 20.72V17.048C21.8002 16.4515 21.3168 15.9681 20.7203 15.9681C20.1238 15.9681 19.6403 16.4515 19.6403 17.048V19.64H2.36032L2.36023 17.048Z" fill="black"/>
</svg>
