<svg xmlns="http://www.w3.org/2000/svg" width="22" height="22" viewBox="0 0 19 19">
    <defs>
        <clipPath id="a">
            <path fill="#fff" d="M4.7 8.7a4 4 0 014-4h1.6a4 4 0 014 4v1.6a4 4 0 01-4 4H8.7a4 4 0 01-4-4z" />
        </clipPath>
    </defs>
    <path fill="none" stroke="#fff" strokeLinecap="round" strokeMiterlimit="50" strokeWidth="1.6" d="M.9 6A5.2 5.2 0 016 1M6 18.1A5.2 5.2 0 011 13M18.1 13A5.2 5.2 0 0113 18M13 .9A5.2 5.2 0 0118 6" />
    <path fill="none" stroke="#fff" strokeMiterlimit="50" strokeWidth="3.2" d="M4.7 8.7a4 4 0 014-4h1.6a4 4 0 014 4v1.6a4 4 0 01-4 4H8.7a4 4 0 01-4-4z" clipPath='url("#a")' />
</svg>