<svg xmlns="http://www.w3.org/2000/svg" width="25" height="27" viewBox="0 0 25 27">
    <g fill="none" fill-rule="evenodd">
        <g fill="#000" fill-rule="nonzero">
            <g>
                <path d="M1.124 15.73c0 6.06 4.805 11.028 10.86 11.23 6.057.202 11.182-4.434 11.586-10.48.405-6.046-4.058-11.323-10.087-11.93V2.248h2.247c.62 0 1.124-.503 1.124-1.123S16.35 0 15.73 0H8.99c-.62 0-1.124.503-1.124 1.124 0 .62.503 1.123 1.124 1.123h2.247v2.304C5.498 5.134 1.13 9.962 1.124 15.73zm20.224 0c0 4.965-4.024 8.99-8.988 8.99-4.965 0-8.99-4.025-8.99-8.99 0-4.964 4.025-8.988 8.99-8.988 2.384 0 4.67.947 6.356 2.632 1.685 1.686 2.632 3.972 2.632 6.356zM23.596 7.865c.454 0 .864-.273 1.038-.693.174-.42.078-.904-.244-1.225l-3.37-3.371c-.44-.44-1.151-.44-1.59 0-.44.439-.44 1.15 0 1.59l3.37 3.37c.211.211.497.33.796.33zM3.7 2.576L.328 5.946c-.44.44-.44 1.151 0 1.59.439.44 1.15.44 1.59 0l3.37-3.37c.44-.44.44-1.151 0-1.59-.439-.44-1.15-.44-1.59 0z" transform="translate(-45.000000, -580.000000) translate(45.000000, 580.000000)" />
                <path d="M11.565 16.525c.21.211.496.33.795.33.298 0 .584-.119.794-.33l3.371-3.37c.44-.44.44-1.151 0-1.59-.439-.44-1.15-.44-1.59 0l-3.37 3.37c-.211.211-.33.497-.33.795 0 .299.119.585.33.795z" transform="translate(-45.000000, -580.000000) translate(45.000000, 580.000000)" />
            </g>
        </g>
    </g>
</svg>