<svg width="39" height="40" xmlns="http://www.w3.org/2000/svg">
    <g transform="translate(1 1.4)" fill="none" fillRule="evenodd">
        <ellipse stroke="#FFF" strokeWidth="1.3" cx="18.3" cy="18.5" rx="18.3" ry="18.5" />
        <path d="M18.3 5.9a12.5 12.5 0 100 25 12.5 12.5 0 000-25zm-1.4.9a14 14 0 00-3.9 4.8 14 14 0 01-2.8-1.6c1.7-1.7 4-3 6.7-3.2zm-7.3 3.8c.5.4 1.6 1.1 3.1 1.7-.6 1.6-1 3.4-1.1 5.6h-5c.2-2.8 1.3-5.3 3-7.3zm-3 8.1h5c0 2.2.5 4.1 1.1 5.7-1.5.6-2.6 1.3-3.1 1.7-1.7-2-2.8-4.6-3-7.4zm3.6 8c.5-.4 1.4-1 2.8-1.6a14 14 0 004 4.8c-2.7-.3-5-1.5-6.8-3.3zm7.7 3c-.9-.7-2.8-2.2-4.1-4.9 1.2-.4 2.6-.7 4.1-.7v5.6zm0-6.4c-1.7 0-3.2.4-4.4.8-.6-1.5-1-3.3-1.1-5.4h5.5v4.6zm0-5.4h-5.5c0-2 .5-3.8 1-5.3 1.3.4 2.8.8 4.5.8v4.5zm0-5.3c-1.5 0-3-.4-4-.7a13 13 0 014-4.9v5.6zm8.6-2.6c-.5.4-1.5 1-2.9 1.6a14 14 0 00-3.8-4.8c2.6.3 5 1.5 6.7 3.2zm-7.8-3c1 .6 2.9 2.2 4.2 4.9-1.2.3-2.6.7-4.2.7V7zm0 6.4c1.8 0 3.3-.4 4.5-.8.6 1.5 1 3.2 1.1 5.3h-5.6v-4.5zm0 5.3h5.6c0 2.1-.5 4-1 5.4-1.3-.4-2.8-.8-4.6-.8v-4.6zm0 5.4c1.6 0 3 .3 4.2.7a13 13 0 01-4.2 4.9V24zm1 5.8a14 14 0 004-4.8 14 14 0 012.8 1.5c-1.8 1.8-4.1 3-6.7 3.3zm7.4-3.8c-.5-.4-1.6-1.1-3.1-1.7.6-1.6 1-3.5 1.1-5.7H30c-.1 2.8-1.2 5.4-3 7.4zm-2-8.2c0-2.2-.5-4-1.1-5.6 1.5-.6 2.6-1.3 3-1.7 1.8 2 2.9 4.5 3 7.3h-4.9z" fill="#FFF" fillRule="nonzero" />
    </g>
</svg>