<svg xmlns="http://www.w3.org/2000/svg" width="22" height="29" viewBox="0 0 22 29">
    <g fill="none" fill-rule="evenodd">
        <g fill="#000" fill-rule="nonzero" stroke="#000" stroke-width="1.2">
            <path d="M58 640c-2.765 0-5 2.344-5 5.236v2.587h-4.412c-.323 0-.588.274-.588.609v14.306c0 2.344 1.853 4.262 4.118 4.262h11.764c2.265 0 4.118-1.918 4.118-4.262v-14.306c0-.335-.265-.609-.588-.609H63v-2.587c0-2.892-2.235-5.236-5-5.236zm-3.823 5.236c0-2.222 1.705-4.018 3.823-4.018s3.824 1.796 3.824 4.018v2.587h-7.647v-2.587zm12.647 3.835v13.698c0 1.674-1.324 3.044-2.942 3.044H52.118c-1.618 0-2.942-1.37-2.942-3.044V649.07H53v1.887c0 .335.265.61.588.61.324 0 .589-.275.589-.61v-1.887h7.647v1.887c0 .335.264.61.588.61.323 0 .588-.275.588-.61v-1.887h3.824z" transform="translate(-47 -639)"/>
        </g>
    </g>
</svg>
