<svg xmlns="http://www.w3.org/2000/svg" viewBox="0.5 0.5 10 8">
    <g stroke="none" fill="none">
        <g transform="translate(-52.000000, -9.000000)" fill="#fff" stroke="#fff">
            <g transform="translate(52.000000, 9.000000)">
                <path d="M1,8 C1.390627,7.64270656 1.7539045,7.32369934 2.08984375,7.04296868 C2.425783,6.76223816 2.7792955,6.525261 3.150391,6.3320316 C3.5214865,6.1388008 3.933592,5.991147 4.386718,5.8890632 C4.8398455,5.786978 5.3789035,5.7359368 6.003907,5.7359368 L6.003907,7.5296875 L10,4.259375 L6.003907,1 L6.003907,2.8046868 C5.1289015,2.928647 4.3984405,3.1510398 3.8125,3.471875 C3.2265595,3.7927102 2.746096,4.1828104 2.37109375,4.6421868 C1.9960918,5.1015646 1.7050792,5.617445 1.4980468,6.1898434 C1.29101455,6.7622425 1.12500062,7.36562178 1,8 Z"/>
            </g>
        </g>
    </g>
</svg>