<svg width="28" height="16" viewBox="0 0 28 16" fill="none" xmlns="http://www.w3.org/2000/svg">
<path fill-rule="evenodd" clip-rule="evenodd" d="M27.2371 11.3081L26.8794 9.77798C26.6837 8.94018 25.949 8.35506 25.0924 8.35506H22.1775L20.2337 7.53046L15.3699 4.40005L15.0204 3.96919L15.2826 3.74043C15.4766 3.57105 15.5067 3.27987 15.3515 3.07393L14.5166 1.96639C14.3598 1.75852 14.0689 1.71013 13.8538 1.85613L13.5011 2.0959L13.0329 1.51848C12.9012 1.35653 12.6703 1.31859 12.494 1.43105L11.823 1.86026C11.8198 1.8579 11.8168 1.85536 11.8138 1.85282C11.8094 1.84914 11.8051 1.84548 11.8001 1.84238L10.5686 1.06343C10.4173 0.96774 10.2214 0.981213 10.0848 1.0978L8.32987 2.59055C7.86521 2.98594 7.79761 3.67169 8.17608 4.15094L9.44856 5.7622L8.99539 6.12047C8.65606 6.2673 8.32932 6.27252 7.99765 6.13505C6.96763 5.70941 6.15077 4.01649 5.92282 3.4003C5.86317 3.23863 5.70965 3.13112 5.53807 3.13112H4.53458C4.42594 3.13112 4.32141 3.17456 4.24424 3.25182L3.72019 3.77865C3.44381 3.50946 2.51229 2.71263 1.65111 3.26557C1.20423 3.55235 1.0124 4.03161 1.16264 4.48612C1.28879 4.86913 1.70994 5.28322 2.49013 5.36626L1.46995 9.25803C1.45545 9.31275 1.45271 9.37021 1.46119 9.4263L1.60869 10.3793L1.01021 13.0159C0.973819 13.1767 1.03649 13.3442 1.16948 13.4413C1.25678 13.5048 3.34967 14.9997 7.06614 14.9997H9.55173C9.70853 14.9997 9.85192 14.9101 9.92061 14.7682L10.7542 13.0533L13.0673 13.2647L14.4411 14.8576C14.5191 14.948 14.6324 15 14.7514 15H18.0352C18.0872 15 18.1392 14.9901 18.1876 14.9706L19.0551 14.6219L19.5825 14.8515C19.6536 14.8823 19.7321 14.8919 19.8071 14.8809C21.0769 14.6876 27.4026 13.6109 27.2472 11.3738C27.2455 11.3516 27.2423 11.3296 27.2371 11.3081ZM26.3978 11.3238C26.2356 11.368 26.0191 11.4087 25.8117 11.4414V10.8297C25.8117 10.7323 25.7602 10.6419 25.6768 10.5926L24.5348 9.91844C24.502 9.89919 24.4981 9.87005 24.5006 9.84915C24.5033 9.82825 24.514 9.80103 24.5504 9.79031L25.7567 9.43066C25.9132 9.56732 26.0303 9.75072 26.0807 9.96656L26.3978 11.3238ZM22.4399 9.17969L22.6618 9.50579C22.7357 9.61385 22.7231 9.7593 22.6314 9.85361L20.9961 11.5309C21.7248 11.3626 23.0156 11.3549 24.9775 11.5031L25.0151 11.506L25.0151 11.506L25.0154 11.506L25.016 11.506L25.0164 11.5061L25.0167 11.5061L25.0167 11.5061L25.0172 11.5061L25.0176 11.5062C25.0995 11.5125 25.1542 11.5166 25.175 11.5171C25.1928 11.5171 25.2235 11.5152 25.2637 11.5116V10.987L24.2567 10.3925C24.0413 10.2652 23.9261 10.0318 23.9565 9.7824C23.9868 9.53301 24.1546 9.33421 24.394 9.26272L24.6723 9.17969H22.4399ZM8.81959 3.63762C8.71807 3.50921 8.73613 3.32554 8.86064 3.21941L10.386 1.92188L11.0597 2.34806L10.3808 2.7825C10.2078 2.89303 10.1427 3.1152 10.2281 3.30244L10.6832 4.3C10.7789 4.51034 10.7196 4.7567 10.5387 4.89996L10.094 5.25163L8.81959 3.63762ZM5.26277 3.9554H4.70562L3.3535 5.3137L3.32422 5.42588L6.59135 7.62198C6.64444 7.65772 6.68358 7.71079 6.70164 7.77266L7.2837 9.75016L9.37522 10.2448C9.98629 10.3892 10.4972 10.8187 10.7495 11.3955L14.0703 11.6936C14.3762 11.4164 14.7996 11.291 15.2078 11.3642L17.9704 11.8646C18.3464 11.919 19.276 11.9952 19.9814 11.8693C19.9891 11.8126 20.0096 11.7574 20.0526 11.7134L22.0845 9.62945L21.683 9.03994L19.8829 8.27611C19.8613 8.26703 19.8408 8.25603 19.8214 8.24339L14.8726 5.05854C14.836 5.03516 14.8034 5.00602 14.7758 4.97192L12.6276 2.32324L11.1239 3.28532L11.4298 3.95595C11.6843 4.51384 11.5269 5.16852 11.047 5.54769L9.46443 6.7993C9.43925 6.81937 9.41189 6.83587 9.38316 6.84934C8.81697 7.1133 8.24558 7.1287 7.68487 6.89664C6.40034 6.36487 5.55202 4.6307 5.26277 3.9554ZM7.28895 10.8212C7.0963 10.7401 6.89818 10.6747 6.69595 10.6246L5.88676 8.26522C5.86842 8.21133 5.8334 8.16431 5.78688 8.13104L3.25559 6.32071C3.20825 6.28689 3.15379 6.27534 3.09961 6.27479L3.17459 5.98828L6.2031 8.0238L6.80213 10.0593C6.83004 10.1542 6.90639 10.2265 7.00162 10.249L9.24776 10.7803C9.58627 10.86 9.88291 11.0602 10.086 11.3362L7.99443 11.1484L7.28895 10.8212ZM1.9462 3.72899C1.71058 3.88049 1.61179 4.09881 1.68267 4.31328C1.76121 4.55112 2.06825 4.80793 2.6774 4.83185C2.68024 4.82862 2.68269 4.82505 2.68513 4.82151C2.68809 4.8172 2.69104 4.81292 2.69464 4.8093L3.33362 4.16755C3.12756 3.96848 2.46422 3.39574 1.9462 3.72899ZM2.96628 6.78809L5.39932 8.52803L6.0829 10.5212L2.40638 10.1676L2.28516 9.3848L2.96628 6.78809ZM7.06591 14.175H9.29508L10.0162 12.6916L7.06947 11.325C6.7534 11.1917 6.40997 11.1053 6.05832 11.0712L2.37387 10.7168L1.875 12.9148C2.48059 13.2703 4.29436 14.175 7.06591 14.175ZM10.5462 12.2056C10.4778 12.2001 10.4124 12.2152 10.3519 12.2408L9.47266 11.833L13.6059 12.2039L13.3667 12.475C13.3588 12.473 13.3511 12.4702 13.3434 12.4674C13.3312 12.463 13.319 12.4585 13.3057 12.4572L10.5462 12.2056ZM19.2251 13.7966L19.8008 14.0473C22.5078 13.6231 25.3311 12.7699 26.1761 11.9367C25.7511 12.0181 25.2865 12.0668 25.174 12.0668C25.1513 12.0668 25.0681 12.061 24.9378 12.0511C22.0943 11.8358 21.1256 11.9969 20.8139 12.1699C19.8777 12.6893 17.9646 12.4196 17.8831 12.4075L15.1115 11.9057C14.842 11.8575 14.5596 11.9549 14.3768 12.1614L13.7832 12.8339L14.9394 14.1749H17.9567L18.9095 13.7919C19.0105 13.7512 19.1243 13.7523 19.2251 13.7966Z" fill="white"/>
<path d="M26.8794 9.77798L26.7333 9.81209L26.7333 9.81212L26.8794 9.77798ZM27.2371 11.3081L27.091 11.3423L27.0913 11.3435L27.2371 11.3081ZM22.1775 8.35506L22.1189 8.49315L22.147 8.50506H22.1775V8.35506ZM20.2337 7.53046L20.1526 7.6566L20.1634 7.66354L20.1752 7.66855L20.2337 7.53046ZM15.3699 4.40005L15.2534 4.49454L15.2685 4.51319L15.2887 4.52619L15.3699 4.40005ZM15.0204 3.96919L14.9218 3.85617L14.8128 3.95131L14.9039 4.06368L15.0204 3.96919ZM15.2826 3.74043L15.3812 3.85345L15.3812 3.85343L15.2826 3.74043ZM15.3515 3.07393L15.4713 2.98366L15.4713 2.98363L15.3515 3.07393ZM14.5166 1.96639L14.6364 1.8761L14.6364 1.87606L14.5166 1.96639ZM13.8538 1.85613L13.7696 1.73202L13.7695 1.73208L13.8538 1.85613ZM13.5011 2.0959L13.3846 2.19037L13.4714 2.29745L13.5854 2.21995L13.5011 2.0959ZM13.0329 1.51848L13.1494 1.42401L13.1493 1.42388L13.0329 1.51848ZM12.494 1.43105L12.4133 1.3046L12.4132 1.30469L12.494 1.43105ZM11.823 1.86026L11.7348 1.98155L11.8176 2.0418L11.9039 1.98662L11.823 1.86026ZM11.8138 1.85282L11.7171 1.96747L11.7171 1.96748L11.8138 1.85282ZM11.8001 1.84238L11.7199 1.96916L11.7214 1.97011L11.8001 1.84238ZM10.5686 1.06343L10.6488 0.936658L10.6488 0.936643L10.5686 1.06343ZM10.0848 1.0978L10.182 1.21205L10.1822 1.21187L10.0848 1.0978ZM8.32987 2.59055L8.23268 2.47629L8.23266 2.47631L8.32987 2.59055ZM8.17608 4.15094L8.05836 4.2439L8.05836 4.24391L8.17608 4.15094ZM9.44856 5.7622L9.54159 5.87987L9.65919 5.78689L9.56628 5.66923L9.44856 5.7622ZM8.99539 6.12047L9.05496 6.25814L9.073 6.25033L9.08842 6.23814L8.99539 6.12047ZM7.99765 6.13505L8.05509 5.99648L8.05494 5.99642L7.99765 6.13505ZM5.92282 3.4003L5.7821 3.45223L5.78214 3.45235L5.92282 3.4003ZM4.24424 3.25182L4.13811 3.14582L4.13789 3.14604L4.24424 3.25182ZM3.72019 3.77865L3.61554 3.8861L3.72187 3.98966L3.82654 3.88443L3.72019 3.77865ZM1.65111 3.26557L1.73212 3.39181L1.73215 3.39179L1.65111 3.26557ZM1.16264 4.48612L1.30511 4.43919L1.30506 4.43904L1.16264 4.48612ZM2.49013 5.36626L2.63522 5.40429L2.67946 5.23556L2.506 5.2171L2.49013 5.36626ZM1.46995 9.25803L1.61494 9.29646L1.61505 9.29607L1.46995 9.25803ZM1.46119 9.4263L1.31288 9.44874L1.31296 9.44925L1.46119 9.4263ZM1.60869 10.3793L1.75497 10.4125L1.7613 10.3846L1.75693 10.3564L1.60869 10.3793ZM1.01021 13.0159L0.863936 12.9827L0.863913 12.9828L1.01021 13.0159ZM1.16948 13.4413L1.08105 13.5624L1.08123 13.5625L1.16948 13.4413ZM9.92061 14.7682L9.7857 14.7026L9.7856 14.7028L9.92061 14.7682ZM10.7542 13.0533L10.7678 12.9039L10.6646 12.8945L10.6192 12.9877L10.7542 13.0533ZM13.0673 13.2647L13.1809 13.1668L13.1413 13.1209L13.081 13.1154L13.0673 13.2647ZM14.4411 14.8576L14.5547 14.7596L14.5547 14.7596L14.4411 14.8576ZM18.1876 14.9706L18.1317 14.8314L18.1316 14.8315L18.1876 14.9706ZM19.0551 14.6219L19.115 14.4844L19.0574 14.4593L18.9992 14.4828L19.0551 14.6219ZM19.5825 14.8515L19.5226 14.9891L19.5229 14.9892L19.5825 14.8515ZM19.8071 14.8809L19.8289 15.0294L19.8297 15.0292L19.8071 14.8809ZM27.2472 11.3738L27.3968 11.3634L27.3968 11.3628L27.2472 11.3738ZM25.8117 11.4414H25.6617V11.617L25.835 11.5896L25.8117 11.4414ZM26.3978 11.3238L26.4373 11.4685L26.5768 11.4304L26.5439 11.2896L26.3978 11.3238ZM25.6768 10.5926L25.6005 10.7218L25.6006 10.7218L25.6768 10.5926ZM24.5348 9.91844L24.6111 9.78927L24.6107 9.78903L24.5348 9.91844ZM24.5006 9.84915L24.3519 9.82967L24.3516 9.8316L24.5006 9.84915ZM24.5504 9.79031L24.5928 9.9342L24.5933 9.93406L24.5504 9.79031ZM25.7567 9.43066L25.8553 9.31767L25.793 9.2633L25.7138 9.28692L25.7567 9.43066ZM26.0807 9.96656L25.9346 10.0006L25.9346 10.0007L26.0807 9.96656ZM22.6618 9.50579L22.5378 9.59018L22.538 9.59045L22.6618 9.50579ZM22.4399 9.17969V9.02969H22.1564L22.3159 9.26408L22.4399 9.17969ZM22.6314 9.85361L22.7388 9.95833L22.739 9.95816L22.6314 9.85361ZM20.9961 11.5309L20.8887 11.4261L20.532 11.792L21.0298 11.677L20.9961 11.5309ZM24.9775 11.5031L24.9889 11.3535L24.9888 11.3535L24.9775 11.5031ZM25.0151 11.506L25.0266 11.3564L25.0265 11.3564L25.0151 11.506ZM25.0151 11.506L25.0273 11.3565L25.0266 11.3564L25.0151 11.506ZM25.0154 11.506L25.0032 11.6555L25.0037 11.6555L25.0154 11.506ZM25.016 11.506L25.0042 11.6556L25.0044 11.6556L25.016 11.506ZM25.0164 11.5061L25.0284 11.3566L25.0279 11.3565L25.0164 11.5061ZM25.0167 11.5061L25.0353 11.3571L25.0287 11.3566L25.0167 11.5061ZM25.0167 11.5061L24.9981 11.6551L25.005 11.6556L25.0167 11.5061ZM25.0172 11.5061L25.0055 11.6557L25.0061 11.6557L25.0172 11.5061ZM25.0176 11.5062L25.0291 11.3566L25.0287 11.3566L25.0176 11.5062ZM25.175 11.5171L25.1716 11.6671H25.175V11.5171ZM25.2637 11.5116L25.277 11.661L25.4137 11.6489V11.5116H25.2637ZM25.2637 10.987H25.4137V10.9014L25.34 10.8578L25.2637 10.987ZM24.2567 10.3925L24.1803 10.5217L24.1804 10.5217L24.2567 10.3925ZM23.9565 9.7824L23.8076 9.76426V9.76426L23.9565 9.7824ZM24.394 9.26272L24.3511 9.11899L24.3511 9.11899L24.394 9.26272ZM24.6723 9.17969L24.7152 9.32343L24.6723 9.02969V9.17969ZM8.86064 3.21941L8.76345 3.10515L8.76333 3.10525L8.86064 3.21941ZM8.81959 3.63762L8.93732 3.54466L8.93726 3.54459L8.81959 3.63762ZM10.386 1.92188L10.4662 1.79511L10.3729 1.73609L10.2888 1.80762L10.386 1.92188ZM11.0597 2.34806L11.1406 2.47441L11.3391 2.34733L11.1399 2.2213L11.0597 2.34806ZM10.3808 2.7825L10.4616 2.90889L10.4616 2.90884L10.3808 2.7825ZM10.2281 3.30244L10.0916 3.36468L10.0916 3.3647L10.2281 3.30244ZM10.6832 4.3L10.8197 4.23784L10.8196 4.23774L10.6832 4.3ZM10.5387 4.89996L10.6317 5.01761L10.6318 5.01755L10.5387 4.89996ZM10.094 5.25163L9.97626 5.34458L10.0693 5.4624L10.187 5.36928L10.094 5.25163ZM4.70562 3.9554V3.8054H4.64328L4.59931 3.84958L4.70562 3.9554ZM5.26277 3.9554L5.40066 3.89634L5.3617 3.8054H5.26277V3.9554ZM3.3535 5.3137L3.24719 5.20787L3.2186 5.2366L3.20836 5.27581L3.3535 5.3137ZM3.32422 5.42588L3.17908 5.388L3.1522 5.49099L3.24054 5.55037L3.32422 5.42588ZM6.59135 7.62198L6.67513 7.49755L6.67503 7.49749L6.59135 7.62198ZM6.70164 7.77266L6.55765 7.81469L6.55774 7.81501L6.70164 7.77266ZM7.2837 9.75016L7.1398 9.79252L7.1644 9.87608L7.24917 9.89613L7.2837 9.75016ZM9.37522 10.2448L9.3407 10.3908L9.34073 10.3908L9.37522 10.2448ZM10.7495 11.3955L10.6121 11.4556L10.6477 11.537L10.7361 11.5449L10.7495 11.3955ZM14.0703 11.6936L14.0569 11.843L14.1223 11.8488L14.171 11.8047L14.0703 11.6936ZM15.2078 11.3642L15.2346 11.2166L15.2343 11.2165L15.2078 11.3642ZM17.9704 11.8646L17.9436 12.0123L17.9489 12.013L17.9704 11.8646ZM19.9814 11.8693L20.0078 12.0169L20.1154 11.9977L20.1301 11.8894L19.9814 11.8693ZM20.0526 11.7134L20.1599 11.8182L20.16 11.8181L20.0526 11.7134ZM22.0845 9.62945L22.1919 9.73417L22.2775 9.64638L22.2084 9.54502L22.0845 9.62945ZM21.683 9.03994L21.807 8.95551L21.7822 8.91908L21.7416 8.90186L21.683 9.03994ZM19.8829 8.27611L19.9415 8.13802L19.941 8.1378L19.8829 8.27611ZM19.8214 8.24339L19.9032 8.11767L19.9025 8.11725L19.8214 8.24339ZM14.8726 5.05854L14.9538 4.9324L14.9532 4.93204L14.8726 5.05854ZM14.7758 4.97192L14.8923 4.87747L14.8923 4.87744L14.7758 4.97192ZM12.6276 2.32324L12.7441 2.22876L12.6596 2.12465L12.5467 2.19689L12.6276 2.32324ZM11.1239 3.28532L11.043 3.15897L10.9334 3.22914L10.9874 3.34758L11.1239 3.28532ZM11.4298 3.95595L11.5663 3.89369L11.5663 3.89369L11.4298 3.95595ZM11.047 5.54769L10.954 5.42998L10.9539 5.43004L11.047 5.54769ZM9.46443 6.7993L9.37138 6.68165L9.37092 6.68201L9.46443 6.7993ZM9.38316 6.84934L9.44654 6.98529L9.44684 6.98515L9.38316 6.84934ZM7.68487 6.89664L7.62749 7.03523L7.62751 7.03523L7.68487 6.89664ZM6.69595 10.6246L6.55406 10.6733L6.58058 10.7506L6.65992 10.7702L6.69595 10.6246ZM7.28895 10.8212L7.35211 10.6851L7.34716 10.683L7.28895 10.8212ZM5.88676 8.26522L5.74475 8.31353L5.74487 8.31388L5.88676 8.26522ZM5.78688 8.13104L5.69962 8.25305L5.69962 8.25305L5.78688 8.13104ZM3.25559 6.32071L3.34285 6.1987L3.34278 6.19865L3.25559 6.32071ZM3.09961 6.27479L2.9545 6.23681L2.90581 6.42283L3.09809 6.42478L3.09961 6.27479ZM3.17459 5.98828L3.25826 5.86379L3.08296 5.74596L3.02948 5.9503L3.17459 5.98828ZM6.2031 8.0238L6.347 7.98146L6.33171 7.92951L6.28678 7.89931L6.2031 8.0238ZM6.80213 10.0593L6.94603 10.017L6.94602 10.017L6.80213 10.0593ZM7.00162 10.249L6.96706 10.395L6.9671 10.395L7.00162 10.249ZM9.24776 10.7803L9.21323 10.9262L9.21336 10.9263L9.24776 10.7803ZM10.086 11.3362L10.0725 11.4856L10.4039 11.5154L10.2068 11.2474L10.086 11.3362ZM7.99443 11.1484L7.93132 11.2845L7.95501 11.2955L7.98102 11.2978L7.99443 11.1484ZM1.68267 4.31328L1.82511 4.26624L1.8251 4.26621L1.68267 4.31328ZM1.9462 3.72899L2.02733 3.85516L2.02735 3.85514L1.9462 3.72899ZM2.6774 4.83185L2.67151 4.98173L2.74282 4.98453L2.78998 4.93097L2.6774 4.83185ZM2.68513 4.82151L2.80873 4.9065L2.80873 4.9065L2.68513 4.82151ZM2.69464 4.8093L2.58834 4.70347L2.58832 4.70349L2.69464 4.8093ZM3.33362 4.16755L3.43991 4.27338L3.54736 4.16547L3.43784 4.05967L3.33362 4.16755ZM5.39932 8.52803L5.54121 8.47936L5.52563 8.43395L5.48657 8.40602L5.39932 8.52803ZM2.96628 6.78809L3.05353 6.66607L2.87643 6.53942L2.82119 6.75003L2.96628 6.78809ZM6.0829 10.5212L6.06854 10.6705L6.30033 10.6928L6.22479 10.4725L6.0829 10.5212ZM2.40638 10.1676L2.25815 10.1906L2.27599 10.3058L2.39202 10.3169L2.40638 10.1676ZM2.28516 9.3848L2.14006 9.34674L2.13215 9.37692L2.13692 9.40775L2.28516 9.3848ZM9.29508 14.175V14.325H9.38895L9.42999 14.2405L9.29508 14.175ZM10.0162 12.6916L10.1511 12.7571L10.2178 12.6197L10.0793 12.5555L10.0162 12.6916ZM7.06947 11.325L7.13262 11.1888L7.12778 11.1868L7.06947 11.325ZM6.05832 11.0712L6.0728 10.9219L6.07269 10.9219L6.05832 11.0712ZM2.37387 10.7168L2.38823 10.5675L2.25681 10.5548L2.22759 10.6836L2.37387 10.7168ZM1.875 12.9148L1.72872 12.8816L1.70443 12.9886L1.79906 13.0442L1.875 12.9148ZM10.3519 12.2408L10.2888 12.3769L10.3491 12.4048L10.4103 12.3789L10.3519 12.2408ZM10.5462 12.2056L10.5598 12.0562L10.5582 12.0561L10.5462 12.2056ZM9.47266 11.833L9.48606 11.6836L9.40955 11.9691L9.47266 11.833ZM13.6059 12.2039L13.7184 12.3032L13.9144 12.081L13.6193 12.0545L13.6059 12.2039ZM13.3667 12.475L13.3297 12.6204L13.4186 12.643L13.4792 12.5743L13.3667 12.475ZM13.3434 12.4674L13.3948 12.3265L13.3947 12.3265L13.3434 12.4674ZM13.3057 12.4572L13.3209 12.3079L13.3193 12.3078L13.3057 12.4572ZM19.8008 14.0473L19.7409 14.1848L19.7809 14.2023L19.824 14.1955L19.8008 14.0473ZM19.2251 13.7966L19.1647 13.9339L19.1652 13.9341L19.2251 13.7966ZM26.1761 11.9367L26.2814 12.0435L26.6335 11.6964L26.1479 11.7894L26.1761 11.9367ZM24.9378 12.0511L24.9492 11.9015L24.9491 11.9015L24.9378 12.0511ZM20.8139 12.1699L20.8867 12.3011L20.8867 12.3011L20.8139 12.1699ZM17.8831 12.4075L17.8563 12.5551L17.8611 12.5558L17.8831 12.4075ZM15.1115 11.9057L15.1382 11.7581L15.1379 11.758L15.1115 11.9057ZM14.3768 12.1614L14.2644 12.0619L14.2643 12.0621L14.3768 12.1614ZM13.7832 12.8339L13.6707 12.7347L13.5842 12.8328L13.6696 12.9319L13.7832 12.8339ZM14.9394 14.1749L14.8258 14.2728L14.8707 14.3249H14.9394V14.1749ZM17.9567 14.1749V14.3249H17.9857L18.0126 14.3141L17.9567 14.1749ZM18.9095 13.7919L18.9655 13.9311L18.9656 13.931L18.9095 13.7919ZM26.7333 9.81212L27.091 11.3423L27.3831 11.274L27.0255 9.74384L26.7333 9.81212ZM25.0924 8.50506C25.8788 8.50506 26.5534 9.04172 26.7333 9.81209L27.0255 9.74387C26.8141 8.83864 26.0191 8.20506 25.0924 8.20506V8.50506ZM22.1775 8.50506H25.0924V8.20506H22.1775V8.50506ZM20.1752 7.66855L22.1189 8.49315L22.2361 8.21698L20.2923 7.39237L20.1752 7.66855ZM15.2887 4.52619L20.1526 7.6566L20.3149 7.40433L15.451 4.27392L15.2887 4.52619ZM14.9039 4.06368L15.2534 4.49454L15.4863 4.30557L15.1369 3.8747L14.9039 4.06368ZM15.1839 3.62741L14.9218 3.85617L15.119 4.08221L15.3812 3.85345L15.1839 3.62741ZM15.2317 3.16419C15.3396 3.30745 15.3185 3.5099 15.1839 3.62743L15.3812 3.85343C15.6346 3.63221 15.6737 3.25229 15.4713 2.98366L15.2317 3.16419ZM14.3968 2.05669L15.2317 3.16422L15.4713 2.98363L14.6364 1.8761L14.3968 2.05669ZM13.9381 1.98024C14.0868 1.87925 14.2881 1.9125 14.3969 2.05672L14.6364 1.87606C14.4315 1.60454 14.051 1.54101 13.7696 1.73202L13.9381 1.98024ZM13.5854 2.21995L13.9381 1.98019L13.7695 1.73208L13.4168 1.97184L13.5854 2.21995ZM12.9163 1.61296L13.3846 2.19037L13.6176 2.00142L13.1494 1.42401L12.9163 1.61296ZM12.5747 1.55749C12.6864 1.48622 12.8327 1.51001 12.9165 1.61309L13.1493 1.42388C12.9698 1.20305 12.6541 1.15096 12.4133 1.3046L12.5747 1.55749ZM11.9039 1.98662L12.5749 1.55741L12.4132 1.30469L11.7422 1.7339L11.9039 1.98662ZM11.7171 1.96748C11.7194 1.96948 11.7265 1.97551 11.7348 1.98155L11.9113 1.73896C11.9125 1.73982 11.9131 1.74035 11.9129 1.74021C11.9126 1.73996 11.9122 1.73957 11.9105 1.73816L11.7171 1.96748ZM11.7214 1.97011C11.7179 1.96793 11.7155 1.96616 11.7149 1.96564C11.7145 1.96535 11.7145 1.96533 11.7171 1.96747L11.9105 1.73817C11.9074 1.73552 11.8948 1.72454 11.8787 1.71466L11.7214 1.97011ZM10.4884 1.19019L11.7199 1.96915L11.8802 1.71562L10.6488 0.936658L10.4884 1.19019ZM10.1822 1.21187C10.2685 1.13817 10.3925 1.12951 10.4885 1.19021L10.6488 0.936643C10.4421 0.805972 10.1742 0.824255 9.98741 0.983716L10.1822 1.21187ZM8.42706 2.70481L10.182 1.21205L9.98761 0.983539L8.23268 2.47629L8.42706 2.70481ZM8.2938 4.05798C7.96528 3.64197 8.02397 3.0478 8.42708 2.70479L8.23266 2.47631C7.70644 2.92408 7.62995 3.7014 8.05836 4.2439L8.2938 4.05798ZM9.56628 5.66923L8.29379 4.05797L8.05836 4.24391L9.33084 5.85517L9.56628 5.66923ZM9.08842 6.23814L9.54159 5.87987L9.35553 5.64453L8.90236 6.0028L9.08842 6.23814ZM7.94022 6.27361C8.31084 6.42724 8.67981 6.42046 9.05496 6.25814L8.93582 5.98281C8.63231 6.11414 8.3478 6.11781 8.05509 5.99648L7.94022 6.27361ZM5.78214 3.45235C5.89952 3.76963 6.16554 4.35718 6.53387 4.92115C6.89853 5.47951 7.38115 6.04259 7.94037 6.27368L8.05494 5.99642C7.58413 5.80186 7.14331 5.30567 6.78505 4.75711C6.43046 4.21416 6.17408 3.64716 6.0635 3.34826L5.78214 3.45235ZM5.53807 3.28112C5.64636 3.28112 5.74402 3.34904 5.7821 3.45223L6.06355 3.34838C5.98231 3.12821 5.77294 2.98112 5.53807 2.98112V3.28112ZM4.53458 3.28112H5.53807V2.98112H4.53458V3.28112ZM4.35037 3.35783C4.39955 3.30859 4.46597 3.28112 4.53458 3.28112V2.98112C4.38592 2.98112 4.24327 3.04054 4.13811 3.14582L4.35037 3.35783ZM3.82654 3.88443L4.35058 3.35761L4.13789 3.14604L3.61385 3.67286L3.82654 3.88443ZM1.73215 3.39179C2.10564 3.15199 2.49676 3.19929 2.84494 3.35128C3.19571 3.50441 3.48242 3.75645 3.61554 3.8861L3.82485 3.67119C3.68158 3.53165 3.36434 3.25069 2.96496 3.07634C2.56299 2.90086 2.05776 2.82622 1.57006 3.13935L1.73215 3.39179ZM1.30506 4.43904C1.17943 4.05896 1.3341 3.64725 1.73212 3.39181L1.57009 3.13933C1.07437 3.45746 0.845382 4.00426 1.02022 4.53319L1.30506 4.43904ZM2.506 5.2171C1.77414 5.13921 1.40978 4.75699 1.30511 4.43919L1.02017 4.53304C1.1678 4.98127 1.64575 5.42724 2.47425 5.51542L2.506 5.2171ZM1.61505 9.29607L2.63522 5.40429L2.34503 5.32822L1.32485 9.21999L1.61505 9.29607ZM1.60951 9.40387C1.60398 9.36734 1.60589 9.33062 1.61494 9.29646L1.32496 9.2196C1.305 9.29487 1.30144 9.37308 1.31288 9.44874L1.60951 9.40387ZM1.75693 10.3564L1.60943 9.40336L1.31296 9.44925L1.46046 10.4023L1.75693 10.3564ZM1.15649 13.0491L1.75497 10.4125L1.46241 10.3461L0.863936 12.9827L1.15649 13.0491ZM1.25791 13.3201C1.17338 13.2584 1.13329 13.1516 1.15652 13.049L0.863913 12.9828C0.814348 13.2018 0.89959 13.43 1.08105 13.5624L1.25791 13.3201ZM7.06614 14.8497C3.39118 14.8497 1.32864 13.3716 1.25773 13.32L1.08123 13.5625C1.18491 13.638 3.30816 15.1497 7.06614 15.1497V14.8497ZM9.55173 14.8497H7.06614V15.1497H9.55173V14.8497ZM9.7856 14.7028C9.74197 14.793 9.65102 14.8497 9.55173 14.8497V15.1497C9.76604 15.1497 9.96188 15.0272 10.0556 14.8336L9.7856 14.7028ZM10.6192 12.9877L9.7857 14.7026L10.0555 14.8338L10.8891 13.1189L10.6192 12.9877ZM13.081 13.1154L10.7678 12.9039L10.7405 13.2027L13.0537 13.4141L13.081 13.1154ZM14.5547 14.7596L13.1809 13.1668L12.9537 13.3627L14.3275 14.9555L14.5547 14.7596ZM14.7514 14.85C14.6761 14.85 14.6043 14.8171 14.5547 14.7596L14.3275 14.9555C14.4339 15.0789 14.5886 15.15 14.7514 15.15V14.85ZM18.0352 14.85H14.7514V15.15H18.0352V14.85ZM18.1316 14.8315C18.1012 14.8437 18.0683 14.85 18.0352 14.85V15.15C18.1061 15.15 18.1772 15.1365 18.2437 15.1097L18.1316 14.8315ZM18.9992 14.4828L18.1317 14.8314L18.2436 15.1098L19.1111 14.7611L18.9992 14.4828ZM19.6423 14.714L19.115 14.4844L18.9952 14.7595L19.5226 14.9891L19.6423 14.714ZM19.7854 14.7325C19.7373 14.7396 19.687 14.7333 19.642 14.7139L19.5229 14.9892C19.6202 15.0313 19.727 15.0443 19.8289 15.0294L19.7854 14.7325ZM27.0975 11.3842C27.1308 11.8634 26.8197 12.307 26.2421 12.716C25.669 13.1219 24.8695 13.4667 24.0142 13.7515C22.3059 14.3203 20.4173 14.6363 19.7845 14.7327L19.8297 15.0292C20.4667 14.9323 22.3758 14.6133 24.109 14.0361C24.9744 13.7479 25.8066 13.392 26.4155 12.9608C27.0199 12.5328 27.4412 12.0028 27.3968 11.3634L27.0975 11.3842ZM27.0913 11.3435C27.0944 11.3562 27.0965 11.37 27.0976 11.3849L27.3968 11.3628C27.3946 11.3332 27.3902 11.303 27.3828 11.2728L27.0913 11.3435ZM25.835 11.5896C26.0441 11.5566 26.267 11.5149 26.4373 11.4685L26.3584 11.179C26.2041 11.2211 25.9941 11.2608 25.7883 11.2933L25.835 11.5896ZM25.6617 10.8297V11.4414H25.9617V10.8297H25.6617ZM25.6006 10.7218C25.638 10.7439 25.6617 10.785 25.6617 10.8297H25.9617C25.9617 10.6796 25.8825 10.5398 25.753 10.4634L25.6006 10.7218ZM24.4586 10.0476L25.6005 10.7218L25.753 10.4635L24.6111 9.78927L24.4586 10.0476ZM24.3516 9.8316C24.3485 9.85796 24.3484 9.89668 24.3646 9.93848C24.3818 9.98313 24.4139 10.0215 24.459 10.0479L24.6107 9.78903C24.6228 9.79617 24.6366 9.81031 24.6444 9.83035C24.651 9.84754 24.6502 9.86124 24.6496 9.8667L24.3516 9.8316ZM24.508 9.64643C24.4581 9.66115 24.4177 9.69053 24.3902 9.72967C24.3644 9.76629 24.3553 9.80376 24.3519 9.82967L24.6493 9.86863C24.6487 9.87365 24.6462 9.88706 24.6356 9.90216C24.6232 9.91978 24.6064 9.9302 24.5928 9.9342L24.508 9.64643ZM25.7138 9.28692L24.5076 9.64656L24.5933 9.93406L25.7995 9.57441L25.7138 9.28692ZM26.2268 9.93248C26.1688 9.6842 26.0341 9.47375 25.8553 9.31767L25.658 9.54366C25.7923 9.66089 25.8918 9.81724 25.9346 10.0006L26.2268 9.93248ZM26.5439 11.2896L26.2267 9.93243L25.9346 10.0007L26.2518 11.3579L26.5439 11.2896ZM22.7858 9.4214L22.5639 9.09529L22.3159 9.26408L22.5378 9.59018L22.7858 9.4214ZM22.739 9.95816C22.8802 9.81289 22.9 9.58834 22.7856 9.42112L22.538 9.59045C22.5714 9.63936 22.566 9.70571 22.5239 9.74906L22.739 9.95816ZM21.1035 11.6356L22.7388 9.95833L22.524 9.7489L20.8887 11.4261L21.1035 11.6356ZM24.9888 11.3535C23.0289 11.2055 21.7164 11.2106 20.9623 11.3847L21.0298 11.677C21.7333 11.5146 23.0024 11.5043 24.9662 11.6527L24.9888 11.3535ZM25.0265 11.3564L24.9889 11.3535L24.966 11.6527L25.0036 11.6555L25.0265 11.3564ZM25.0266 11.3564L25.0266 11.3564L25.0036 11.6555L25.0036 11.6555L25.0266 11.3564ZM25.0275 11.3565L25.0273 11.3565L25.003 11.6555L25.0032 11.6555L25.0275 11.3565ZM25.0277 11.3565L25.0271 11.3565L25.0037 11.6555L25.0042 11.6556L25.0277 11.3565ZM25.0279 11.3565L25.0275 11.3565L25.0044 11.6556L25.0048 11.6556L25.0279 11.3565ZM25.0287 11.3566L25.0284 11.3566L25.0044 11.6556L25.0047 11.6556L25.0287 11.3566ZM25.0353 11.3573L25.0353 11.3573L24.9981 11.6549L24.9981 11.6549L25.0353 11.3573ZM25.0289 11.3566L25.0284 11.3566L25.005 11.6556L25.0055 11.6557L25.0289 11.3566ZM25.0287 11.3566L25.0283 11.3566L25.0061 11.6557L25.0065 11.6558L25.0287 11.3566ZM25.1785 11.3672C25.1629 11.3668 25.1144 11.3631 25.0291 11.3566L25.0062 11.6557C25.0847 11.6618 25.1455 11.6665 25.1716 11.6671L25.1785 11.3672ZM25.2504 11.3622C25.2103 11.3658 25.1855 11.3671 25.175 11.3671V11.6671C25.2001 11.6671 25.2366 11.6646 25.277 11.661L25.2504 11.3622ZM25.1137 10.987V11.5116H25.4137V10.987H25.1137ZM24.1804 10.5217L25.1875 11.1162L25.34 10.8578L24.3329 10.2634L24.1804 10.5217ZM23.8076 9.76426C23.77 10.0727 23.9136 10.364 24.1803 10.5217L24.333 10.2634C24.169 10.1665 24.0822 9.99085 24.1054 9.80053L23.8076 9.76426ZM24.3511 9.11899C24.0543 9.2076 23.8451 9.45585 23.8076 9.76426L24.1054 9.80053C24.1286 9.61017 24.2548 9.46082 24.4369 9.40646L24.3511 9.11899ZM24.6295 9.03595L24.3511 9.11899L24.4369 9.40646L24.7152 9.32343L24.6295 9.03595ZM22.4399 9.32969H24.6723V9.02969H22.4399V9.32969ZM8.76333 3.10525C8.5774 3.26374 8.55037 3.53896 8.70193 3.73065L8.93726 3.54459C8.88577 3.47947 8.89485 3.38734 8.95795 3.33356L8.76333 3.10525ZM10.2888 1.80762L8.76345 3.10515L8.95783 3.33366L10.4832 2.03613L10.2888 1.80762ZM11.1399 2.2213L10.4662 1.79511L10.3058 2.04864L10.9795 2.47483L11.1399 2.2213ZM10.4616 2.90884L11.1406 2.47441L10.9789 2.22171L10.2999 2.65615L10.4616 2.90884ZM10.3646 3.24021C10.31 3.12054 10.3519 2.97896 10.4616 2.90889L10.3 2.65611C10.0637 2.8071 9.97541 3.10985 10.0916 3.36468L10.3646 3.24021ZM10.8196 4.23774L10.3646 3.24019L10.0916 3.3647L10.5467 4.36225L10.8196 4.23774ZM10.6318 5.01755C10.8668 4.8314 10.944 4.51084 10.8197 4.23784L10.5467 4.36216C10.6139 4.50984 10.5723 4.682 10.4455 4.78237L10.6318 5.01755ZM10.187 5.36928L10.6317 5.01761L10.4456 4.7823L10.0009 5.13397L10.187 5.36928ZM8.70187 3.73057L9.97626 5.34458L10.2117 5.15867L8.93732 3.54466L8.70187 3.73057ZM4.70562 4.1054H5.26277V3.8054H4.70562V4.1054ZM3.45981 5.41952L4.81192 4.06122L4.59931 3.84958L3.24719 5.20787L3.45981 5.41952ZM3.46936 5.46376L3.49864 5.35158L3.20836 5.27581L3.17908 5.388L3.46936 5.46376ZM6.67503 7.49749L3.4079 5.30139L3.24054 5.55037L6.50767 7.74647L6.67503 7.49749ZM6.84563 7.73062C6.81764 7.63477 6.75701 7.55269 6.67513 7.49755L6.50758 7.7464C6.53187 7.76276 6.54951 7.78681 6.55765 7.81469L6.84563 7.73062ZM7.42759 9.70781L6.84553 7.7303L6.55774 7.81501L7.1398 9.79252L7.42759 9.70781ZM9.40974 10.0988L7.31822 9.60419L7.24917 9.89613L9.3407 10.3908L9.40974 10.0988ZM10.8869 11.3354C10.6159 10.7158 10.0672 10.2542 9.40971 10.0988L9.34073 10.3908C9.90538 10.5242 10.3785 10.9215 10.6121 11.4556L10.8869 11.3354ZM14.0837 11.5442L10.7629 11.2461L10.7361 11.5449L14.0569 11.843L14.0837 11.5442ZM15.2343 11.2165C14.7794 11.135 14.3093 11.2747 13.9696 11.5824L14.171 11.8047C14.4432 11.5582 14.8198 11.447 15.1814 11.5118L15.2343 11.2165ZM17.9971 11.717L15.2346 11.2166L15.1811 11.5118L17.9436 12.0122L17.9971 11.717ZM19.9551 11.7216C19.273 11.8434 18.362 11.7697 17.9919 11.7161L17.9489 12.013C18.3308 12.0683 19.2789 12.147 20.0078 12.0169L19.9551 11.7216ZM19.9453 11.6086C19.8737 11.6819 19.8434 11.7705 19.8328 11.8492L20.1301 11.8894C20.1348 11.8548 20.1456 11.8329 20.1599 11.8182L19.9453 11.6086ZM21.9771 9.52474L19.9452 11.6087L20.16 11.8181L22.1919 9.73417L21.9771 9.52474ZM21.559 9.12437L21.9605 9.71388L22.2084 9.54502L21.807 8.95551L21.559 9.12437ZM19.8243 8.41419L21.6244 9.17802L21.7416 8.90186L19.9415 8.13802L19.8243 8.41419ZM19.7395 8.3691C19.7661 8.38641 19.7946 8.4017 19.8249 8.41442L19.941 8.1378C19.928 8.13236 19.9154 8.12565 19.9032 8.11767L19.7395 8.3691ZM14.7914 5.18467L19.7402 8.36952L19.9025 8.11725L14.9538 4.9324L14.7914 5.18467ZM14.6592 5.06638C14.6969 5.11284 14.7415 5.15286 14.792 5.18503L14.9532 4.93204C14.9304 4.91747 14.9099 4.8992 14.8923 4.87747L14.6592 5.06638ZM12.5111 2.41773L14.6592 5.06641L14.8923 4.87744L12.7441 2.22876L12.5111 2.41773ZM11.2047 3.41168L12.7084 2.44959L12.5467 2.19689L11.043 3.15897L11.2047 3.41168ZM11.5663 3.89369L11.2603 3.22307L10.9874 3.34758L11.2933 4.01821L11.5663 3.89369ZM11.1399 5.66539C11.6744 5.24323 11.8493 4.51417 11.5663 3.89369L11.2933 4.0182C11.5193 4.51351 11.3795 5.09381 10.954 5.42998L11.1399 5.66539ZM9.55748 6.91695L11.14 5.66534L10.9539 5.43004L9.37138 6.68165L9.55748 6.91695ZM9.44684 6.98515C9.48504 6.96724 9.52263 6.94474 9.55794 6.91659L9.37092 6.68201C9.35588 6.694 9.33874 6.7045 9.31948 6.71353L9.44684 6.98515ZM7.62751 7.03523C8.2282 7.28385 8.84339 7.26649 9.44654 6.98529L9.31977 6.71339C8.79055 6.96012 8.26296 6.97356 7.74223 6.75804L7.62751 7.03523ZM5.12489 4.01446C5.27164 4.35707 5.56071 4.96972 5.97768 5.56582C6.39259 6.15897 6.94607 6.75313 7.62749 7.03523L7.74224 6.75804C7.13914 6.50837 6.62621 5.96956 6.22351 5.39386C5.82287 4.82111 5.54316 4.22903 5.40066 3.89634L5.12489 4.01446ZM6.65992 10.7702C6.85471 10.8185 7.04541 10.8815 7.23075 10.9595L7.34716 10.683C7.14719 10.5988 6.94164 10.5309 6.73198 10.479L6.65992 10.7702ZM5.74487 8.31388L6.55406 10.6733L6.83784 10.576L6.02865 8.21656L5.74487 8.31388ZM5.69962 8.25305C5.72082 8.26821 5.73659 8.28953 5.74475 8.31353L6.02877 8.2169C6.00026 8.13312 5.94598 8.06041 5.87413 8.00903L5.69962 8.25305ZM3.16833 6.44272L5.69962 8.25305L5.87413 8.00903L3.34285 6.1987L3.16833 6.44272ZM3.09809 6.42478C3.13251 6.42513 3.15373 6.43228 3.1684 6.44276L3.34278 6.19865C3.26277 6.14149 3.17508 6.12555 3.10113 6.1248L3.09809 6.42478ZM3.02948 5.9503L2.9545 6.23681L3.24472 6.31277L3.3197 6.02626L3.02948 5.9503ZM6.28678 7.89931L3.25826 5.86379L3.09092 6.11277L6.11943 8.1483L6.28678 7.89931ZM6.94602 10.017L6.347 7.98146L6.0592 8.06615L6.65823 10.1017L6.94602 10.017ZM7.03618 10.1031C6.99362 10.093 6.95881 10.0604 6.94603 10.017L6.65823 10.1017C6.70126 10.2479 6.81916 10.36 6.96706 10.395L7.03618 10.1031ZM9.28228 10.6343L7.03614 10.1031L6.9671 10.395L9.21323 10.9262L9.28228 10.6343ZM10.2068 11.2474C9.9831 10.9432 9.65612 10.7224 9.28215 10.6343L9.21336 10.9263C9.51641 10.9977 9.78271 11.1771 9.96512 11.4251L10.2068 11.2474ZM7.98102 11.2978L10.0725 11.4856L10.0994 11.1868L8.00784 10.999L7.98102 11.2978ZM7.22584 10.9573L7.93132 11.2845L8.05754 11.0124L7.35207 10.6852L7.22584 10.9573ZM1.8251 4.26621C1.78199 4.13576 1.83045 3.98175 2.02733 3.85516L1.86507 3.60282C1.59072 3.77923 1.4416 4.06186 1.54025 4.36034L1.8251 4.26621ZM2.68328 4.68197C2.10829 4.65938 1.87642 4.42164 1.82511 4.26624L1.54024 4.36031C1.646 4.68059 2.0282 4.95647 2.67151 4.98173L2.68328 4.68197ZM2.56154 4.73651C2.56011 4.73859 2.56014 4.73853 2.5604 4.73816C2.56081 4.7376 2.56236 4.73552 2.56481 4.73273L2.78998 4.93097C2.79975 4.91988 2.80716 4.90878 2.80873 4.9065L2.56154 4.73651ZM2.58832 4.70349C2.57349 4.71839 2.56307 4.73428 2.56154 4.73651L2.80873 4.9065C2.81054 4.90387 2.81014 4.90449 2.80935 4.90554C2.80833 4.90689 2.80547 4.91058 2.80096 4.91512L2.58832 4.70349ZM3.22732 4.06171L2.58834 4.70347L2.80093 4.91514L3.43991 4.27338L3.22732 4.06171ZM2.02735 3.85514C2.22012 3.73113 2.45201 3.76555 2.69055 3.88318C2.92619 3.99938 3.13035 4.17974 3.2294 4.27543L3.43784 4.05967C3.33082 3.95629 3.10029 3.75074 2.82324 3.61412C2.54909 3.47892 2.1903 3.3936 1.86504 3.60284L2.02735 3.85514ZM5.48657 8.40602L3.05353 6.66607L2.87902 6.9101L5.31207 8.65004L5.48657 8.40602ZM6.22479 10.4725L5.54121 8.47936L5.25743 8.57669L5.94102 10.5699L6.22479 10.4725ZM2.39202 10.3169L6.06854 10.6705L6.09726 10.3719L2.42074 10.0183L2.39202 10.3169ZM2.13692 9.40775L2.25815 10.1906L2.55462 10.1447L2.43339 9.36184L2.13692 9.40775ZM2.82119 6.75003L2.14006 9.34674L2.43025 9.42286L3.11137 6.82614L2.82119 6.75003ZM9.29508 14.025H7.06591V14.325H9.29508V14.025ZM9.88125 12.626L9.16018 14.1094L9.42999 14.2405L10.1511 12.7571L9.88125 12.626ZM7.00636 11.4611L9.95305 12.8276L10.0793 12.5555L7.13258 11.1889L7.00636 11.4611ZM6.04385 11.2205C6.3808 11.2532 6.70942 11.3359 7.01116 11.4632L7.12778 11.1868C6.79738 11.0474 6.43914 10.9574 6.0728 10.9219L6.04385 11.2205ZM2.35951 10.8661L6.04396 11.2205L6.07269 10.9219L2.38823 10.5675L2.35951 10.8661ZM2.02128 12.948L2.52015 10.75L2.22759 10.6836L1.72872 12.8816L2.02128 12.948ZM7.06591 14.025C4.32772 14.025 2.54003 13.1313 1.95094 12.7855L1.79906 13.0442C2.42116 13.4094 4.261 14.325 7.06591 14.325V14.025ZM10.4103 12.3789C10.4549 12.3601 10.4959 12.352 10.5342 12.3551L10.5582 12.0561C10.4597 12.0481 10.3698 12.0703 10.2935 12.1026L10.4103 12.3789ZM9.40955 11.9691L10.2888 12.3769L10.415 12.1047L9.53576 11.6969L9.40955 11.9691ZM13.6193 12.0545L9.48606 11.6836L9.45925 11.9824L13.5925 12.3533L13.6193 12.0545ZM13.4792 12.5743L13.7184 12.3032L13.4934 12.1047L13.2542 12.3758L13.4792 12.5743ZM13.2921 12.6084C13.2986 12.6107 13.3133 12.6162 13.3297 12.6204L13.4037 12.3297C13.4045 12.3299 13.4044 12.3299 13.4028 12.3293C13.401 12.3287 13.3989 12.328 13.3948 12.3265L13.2921 12.6084ZM13.2905 12.6064C13.2853 12.6059 13.2822 12.6049 13.2826 12.605C13.2836 12.6053 13.2853 12.6059 13.2921 12.6084L13.3947 12.3265C13.3853 12.323 13.3557 12.3115 13.3209 12.3079L13.2905 12.6064ZM10.5326 12.355L13.2921 12.6065L13.3193 12.3078L10.5598 12.0562L10.5326 12.355ZM19.8607 13.9098L19.2849 13.659L19.1652 13.9341L19.7409 14.1848L19.8607 13.9098ZM26.0708 11.8299C25.8771 12.0209 25.5597 12.2219 25.1394 12.423C24.7214 12.623 24.2114 12.8187 23.6407 13.0026C22.4994 13.3703 21.1245 13.688 19.7776 13.8991L19.824 14.1955C21.1841 13.9824 22.5744 13.6613 23.7327 13.2881C24.3118 13.1015 24.8352 12.9012 25.2689 12.6936C25.7002 12.4872 26.0526 12.2691 26.2814 12.0435L26.0708 11.8299ZM25.174 12.2168C25.3005 12.2168 25.776 12.1661 26.2043 12.0841L26.1479 11.7894C25.7262 11.8702 25.2724 11.9168 25.174 11.9168V12.2168ZM24.9265 12.2007C25.0525 12.2103 25.1439 12.2168 25.174 12.2168V11.9168C25.1741 11.9168 25.1736 11.9168 25.1726 11.9168C25.1715 11.9167 25.1701 11.9167 25.1683 11.9166C25.1646 11.9165 25.1598 11.9163 25.1538 11.9159C25.1418 11.9153 25.1259 11.9143 25.1063 11.913C25.067 11.9104 25.0142 11.9065 24.9492 11.9015L24.9265 12.2007ZM20.8867 12.3011C21.0106 12.2323 21.3009 12.1495 21.9346 12.1147C22.5621 12.0802 23.5079 12.0933 24.9265 12.2007L24.9491 11.9015C23.5242 11.7937 22.5639 11.7797 21.9182 11.8151C21.2787 11.8503 20.9289 11.9346 20.7411 12.0387L20.8867 12.3011ZM17.8611 12.5558C17.9056 12.5624 18.4118 12.6339 19.027 12.638C19.634 12.642 20.3815 12.5813 20.8867 12.3011L20.7411 12.0387C20.3101 12.2779 19.6329 12.342 19.029 12.338C18.4332 12.334 17.9421 12.2646 17.9051 12.2591L17.8611 12.5558ZM15.0848 12.0533L17.8563 12.5551L17.9098 12.2599L15.1382 11.7581L15.0848 12.0533ZM14.4891 12.2608C14.6371 12.0936 14.8669 12.0144 15.0852 12.0533L15.1379 11.758C14.817 11.7007 14.482 11.8162 14.2644 12.0619L14.4891 12.2608ZM13.8957 12.9332L14.4892 12.2606L14.2643 12.0621L13.6707 12.7347L13.8957 12.9332ZM15.053 14.077L13.8968 12.736L13.6696 12.9319L14.8258 14.2728L15.053 14.077ZM17.9567 14.0249H14.9394V14.3249H17.9567V14.0249ZM18.8536 13.6527L17.9007 14.0357L18.0126 14.3141L18.9655 13.9311L18.8536 13.6527ZM19.2854 13.6592C19.1473 13.5985 18.9915 13.5971 18.8535 13.6528L18.9656 13.931C19.0295 13.9052 19.1014 13.906 19.1647 13.9339L19.2854 13.6592Z" fill="white"/>
<path fill-rule="evenodd" clip-rule="evenodd" d="M11.0208 8.80906L11.7966 7.54205C11.943 7.30339 12.1841 7.13759 12.4588 7.08672L14.2012 6.76584C14.5695 6.69738 14.9359 6.84118 15.1611 7.13786C15.7514 7.91572 16.0924 8.33009 16.2401 8.48736C16.4416 8.44502 16.8274 8.4013 17.6073 8.35538C17.6607 8.35263 17.7121 8.36418 17.7578 8.3903L19.4681 9.35843C19.5686 9.41535 19.6228 9.52973 19.6036 9.64411C19.5839 9.7585 19.4952 9.84813 19.3817 9.86848L17.2382 10.2523C17.222 10.2553 17.2061 10.2567 17.19 10.2567C17.1629 10.2567 17.1361 10.2526 17.1101 10.2446L14.9887 9.59435L11.5697 9.74695C11.3456 9.76097 11.1302 9.64109 11.0148 9.44394C10.8993 9.24707 10.9015 9.00401 11.0208 8.80934V8.80906ZM14.3002 7.30676L12.5575 7.62764C12.4355 7.65046 12.3282 7.72415 12.2626 7.83028L11.4867 9.0973C11.4698 9.12479 11.4772 9.14926 11.4862 9.16494C11.4955 9.18006 11.5147 9.19793 11.5456 9.19711L15.0114 9.04258C15.0155 9.0423 15.0193 9.0423 15.0234 9.0423C15.0505 9.0423 15.0773 9.04643 15.1033 9.0544L17.2069 9.69946L18.5352 9.46162L17.5594 8.90922C17.0424 8.94139 16.4538 8.99446 16.317 9.03158C16.2694 9.0577 16.2155 9.0698 16.161 9.06705C16.0138 9.05715 15.9251 9.05083 14.7262 7.47146C14.6264 7.34003 14.4627 7.27789 14.3002 7.30676Z" fill="white"/>
<path fill-rule="evenodd" clip-rule="evenodd" d="M10.402 7.82747C10.402 8.20609 10.0953 8.51405 9.71847 8.51405C9.34165 8.51405 9.03516 8.20609 9.03516 7.82747C9.03516 7.44885 9.34165 7.14062 9.71847 7.14062C10.0953 7.14062 10.402 7.44885 10.402 7.82747ZM9.855 7.82805C9.855 7.75271 9.7937 7.69112 9.71872 7.69112C9.64347 7.69112 9.58272 7.75271 9.58272 7.82805C9.58272 7.90339 9.64374 7.9647 9.71872 7.9647C9.7937 7.9647 9.855 7.90339 9.855 7.82805Z" fill="white"/>
<path fill-rule="evenodd" clip-rule="evenodd" d="M12.2651 6.30083C12.2651 6.67945 11.9586 6.98768 11.5817 6.98768C11.2049 6.98768 10.8984 6.67945 10.8984 6.30083C10.8984 5.92221 11.2049 5.61426 11.5817 5.61426C11.9586 5.61426 12.2651 5.92221 12.2651 6.30083ZM11.7181 6.3014C11.7181 6.22607 11.6571 6.16475 11.5821 6.16475C11.5072 6.16475 11.4461 6.22607 11.4461 6.3014C11.4461 6.37674 11.5072 6.43833 11.5821 6.43833C11.6571 6.43833 11.7181 6.37674 11.7181 6.3014Z" fill="white"/>
</svg>
