<svg width="19" height="20" viewBox="0 0 19 20" fill="none" xmlns="http://www.w3.org/2000/svg">
<path d="M17.7095 4.56198L15.4854 0.749296C15.2312 0.304487 14.7547 0.050293 14.278 0.050293H3.76118C3.25276 0.050293 2.80793 0.304504 2.55375 0.749296L0.329708 4.56198C0.0118883 5.10209 -0.0834075 5.67415 0.0754965 6.21423C0.202492 6.62734 0.488612 6.97683 0.869818 7.19913V17.7795C0.869818 18.4785 1.44162 19.0503 2.14062 19.0503H15.8665C16.5655 19.0503 17.1373 18.4785 17.1373 17.7795L17.1375 7.19913C17.5187 6.94492 17.8049 6.59539 17.9318 6.21423C18.1224 5.70581 18.0271 5.13401 17.7093 4.56198H17.7095ZM11.5455 1.00348H14.278C14.4369 1.00348 14.5958 1.09878 14.6592 1.226L16.8832 5.03868C17.0738 5.3565 17.1375 5.64242 17.0422 5.89661C16.9785 6.11913 16.7562 6.34142 16.4704 6.4684C16.1845 6.5954 15.8666 6.65901 15.4535 6.65901C15.1357 6.65901 14.8498 6.62732 14.5639 6.56371C13.3564 6.2778 12.3715 5.45154 12.2445 4.72088L11.5455 1.00348ZM10.5606 1.00348L11.3232 4.91148C11.4185 5.3246 11.2279 5.67409 11.0373 5.89639C10.6242 6.37311 9.86156 6.69093 9.03558 6.69093C8.20954 6.69093 7.44694 6.40503 7.03383 5.89661C7.00214 5.833 6.93853 5.76962 6.90684 5.70601C6.81154 5.5471 6.71623 5.3248 6.74793 5.07061C6.74793 5.007 6.74793 4.97531 6.77962 4.9117L7.54223 1.00369L10.5606 1.00348ZM1.15586 5.07041L3.3799 1.25772C3.4752 1.13072 3.60242 1.0352 3.76111 1.0352H6.49357L5.76286 4.75262C5.57225 5.67392 4.17421 6.72249 2.55385 6.72249C2.14074 6.72249 1.79125 6.65888 1.53701 6.53188C1.2511 6.40489 1.06051 6.21406 0.96521 5.96008C0.933295 5.67418 0.964989 5.35634 1.15581 5.07045L1.15586 5.07041ZM16.2162 17.7795C16.2162 17.9702 16.0573 18.0974 15.8984 18.0974H2.1725C1.9819 18.0974 1.85468 17.9385 1.85468 17.7795L1.8549 7.58046C1.91851 7.58046 2.01381 7.61215 2.07742 7.61215C2.10911 7.61215 2.17272 7.61215 2.20441 7.64385C2.33141 7.64385 2.45863 7.67554 2.58562 7.67554C2.74453 7.67554 2.90344 7.67554 3.03043 7.64385H3.15742C3.28442 7.64385 3.37994 7.61215 3.50694 7.58024C3.53863 7.58024 3.57055 7.58024 3.60224 7.54855C3.76115 7.51685 3.88814 7.48494 4.01535 7.42155C4.04705 7.42155 4.07896 7.38986 4.11066 7.38986C4.23765 7.35816 4.33317 7.32625 4.42848 7.26286C4.46017 7.23117 4.49208 7.23117 4.55547 7.19925C4.68246 7.13565 4.77799 7.10395 4.90498 7.04035C4.93668 7.04035 4.93668 7.00865 4.96859 7.00865C5.09559 6.94504 5.2228 6.84974 5.3181 6.78613C5.3498 6.75444 5.38171 6.75444 5.41341 6.72253C5.50871 6.65892 5.57232 6.59553 5.66762 6.53192C5.69931 6.50023 5.73122 6.50023 5.76292 6.46832C5.85822 6.37301 5.95352 6.27771 6.04882 6.18241L6.08052 6.2141C6.14412 6.30941 6.20751 6.40471 6.27112 6.50001C6.87486 7.23073 7.89148 7.64383 9.0353 7.64383C10.1791 7.64383 11.1957 7.19902 11.7995 6.50001C11.8631 6.40471 11.9265 6.30941 11.9901 6.2141L12.0218 6.18241L12.3077 6.46832C12.3394 6.50001 12.3713 6.50001 12.403 6.53192C12.4983 6.59553 12.5619 6.65892 12.6572 6.72253C12.6889 6.75422 12.7208 6.75422 12.7525 6.78613C12.8795 6.84974 12.975 6.94504 13.102 7.00865C13.1337 7.00865 13.1337 7.04035 13.1656 7.04035C13.2609 7.10395 13.3881 7.16734 13.5151 7.19925C13.5468 7.23095 13.5787 7.23095 13.6421 7.26286C13.7374 7.29456 13.8646 7.35816 13.9916 7.38986C14.0233 7.38986 14.0552 7.42155 14.0869 7.42155C14.2139 7.45324 14.3728 7.51685 14.5001 7.54855C14.5317 7.54855 14.5637 7.54855 14.5954 7.58024C14.7224 7.61193 14.8179 7.61193 14.9449 7.64385H15.0719C15.2308 7.64385 15.3578 7.67554 15.5167 7.67554C15.6437 7.67554 15.7709 7.67554 15.8979 7.64385C15.9296 7.64385 15.9932 7.64385 16.0249 7.61215C16.0885 7.61215 16.1838 7.58046 16.2474 7.58046L16.2481 17.7795H16.2162Z" fill="white"/>
<path d="M13.1022 15.5553H5.15899C4.45998 15.5553 3.88818 14.9835 3.88818 14.2845V11.139C3.88818 10.44 4.45998 9.86816 5.15899 9.86816H13.1022C13.8012 9.86816 14.373 10.44 14.373 11.139V14.2845C14.373 14.9835 13.8012 15.5553 13.1022 15.5553ZM5.15899 10.8211C4.96838 10.8211 4.84117 10.98 4.84117 11.1389V14.2845C4.84117 14.4751 5.00008 14.6023 5.15899 14.6023H13.1022C13.2928 14.6023 13.42 14.4434 13.42 14.2845V11.1389C13.42 10.9483 13.2611 10.8211 13.1022 10.8211H5.15899Z" fill="white"/>
</svg>
