<svg width="17" height="22" viewBox="0 0 17 22" fill="none" xmlns="http://www.w3.org/2000/svg">
<path fill-rule="evenodd" clip-rule="evenodd" d="M8.5 1C6.42648 1 4.75 2.75788 4.75 4.92675V6.86724H1.44118C1.19853 6.86724 1 7.07273 1 7.32385V18.0539C1 19.8117 2.38971 21.25 4.08821 21.25H12.9118C14.6103 21.25 16 19.8117 16 18.0539V7.32385C16 7.07273 15.8015 6.86724 15.5588 6.86724H12.25V4.92675C12.25 2.75788 10.5735 1 8.5 1ZM5.6326 4.92667C5.6326 3.2601 6.91196 1.91311 8.50021 1.91311C10.0885 1.91311 11.3679 3.2601 11.3679 4.92667V6.86716H5.6326V4.92667ZM15.1181 18.0771V7.80371H12.2505V9.21916C12.2505 9.47028 12.052 9.67578 11.8093 9.67578C11.5666 9.67578 11.3681 9.47028 11.3681 9.21916V7.80371H5.63285V9.21916C5.63285 9.47028 5.43429 9.67578 5.19165 9.67578C4.94902 9.67578 4.75046 9.47028 4.75046 9.21916V7.80371H1.88281V18.0771C1.88281 19.3328 2.8755 20.3601 4.08867 20.3601H12.9123C14.1255 20.3601 15.1181 19.3328 15.1181 18.0771Z" fill="white"/>
<path d="M4.75 6.86724V7.17539H5.05815V6.86724H4.75ZM12.25 6.86724H11.9418V7.17539H12.25V6.86724ZM11.3679 6.86716V7.17531H11.6761V6.86716H11.3679ZM5.6326 6.86716H5.32445V7.17531H5.6326V6.86716ZM15.1181 7.80371H15.4263V7.49556H15.1181V7.80371ZM12.2505 7.80371V7.49556H11.9423V7.80371H12.2505ZM11.3681 7.80371H11.6763V7.49556H11.3681V7.80371ZM5.63285 7.80371V7.49556H5.3247V7.80371H5.63285ZM4.75046 7.80371H5.05861V7.49556H4.75046V7.80371ZM1.88281 7.80371V7.49556H1.57466V7.80371H1.88281ZM5.05815 4.92675C5.05815 2.91441 6.61 1.30815 8.5 1.30815V0.691848C6.24295 0.691848 4.44185 2.60134 4.44185 4.92675H5.05815ZM5.05815 6.86724V4.92675H4.44185V6.86724H5.05815ZM1.44118 7.17539H4.75V6.55908H1.44118V7.17539ZM1.30815 7.32385C1.30815 7.23284 1.37863 7.17539 1.44118 7.17539V6.55908C1.01843 6.55908 0.691848 6.91263 0.691848 7.32385H1.30815ZM1.30815 18.0539V7.32385H0.691848V18.0539H1.30815ZM4.08821 20.9418C2.56979 20.9418 1.30815 19.6516 1.30815 18.0539H0.691848C0.691848 19.9719 2.20963 21.5582 4.08821 21.5582V20.9418ZM12.9118 20.9418H4.08821V21.5582H12.9118V20.9418ZM15.6918 18.0539C15.6918 19.6516 14.4302 20.9418 12.9118 20.9418V21.5582C14.7904 21.5582 16.3082 19.9719 16.3082 18.0539H15.6918ZM15.6918 7.32385V18.0539H16.3082V7.32385H15.6918ZM15.5588 7.17539C15.6214 7.17539 15.6918 7.23282 15.6918 7.32385H16.3082C16.3082 6.91264 15.9816 6.55908 15.5588 6.55908V7.17539ZM12.25 7.17539H15.5588V6.55908H12.25V7.17539ZM11.9418 4.92675V6.86724H12.5582V4.92675H11.9418ZM8.5 1.30815C10.39 1.30815 11.9418 2.91441 11.9418 4.92675H12.5582C12.5582 2.60134 10.757 0.691848 8.5 0.691848V1.30815ZM8.50021 1.60495C6.72737 1.60495 5.32445 3.10468 5.32445 4.92667H5.94075C5.94075 3.41552 7.09655 2.22126 8.50021 2.22126V1.60495ZM11.6761 4.92667C11.6761 3.10467 10.273 1.60495 8.50021 1.60495V2.22126C9.90389 2.22126 11.0597 3.41553 11.0597 4.92667H11.6761ZM11.6761 6.86716V4.92667H11.0597V6.86716H11.6761ZM5.6326 7.17531H11.3679V6.559H5.6326V7.17531ZM5.32445 4.92667V6.86716H5.94075V4.92667H5.32445ZM14.81 7.80371V18.0771H15.4263V7.80371H14.81ZM12.2505 8.11186H15.1181V7.49556H12.2505V8.11186ZM12.5586 9.21916V7.80371H11.9423V9.21916H12.5586ZM11.8093 9.98393C12.2321 9.98393 12.5586 9.63037 12.5586 9.21916H11.9423C11.9423 9.31019 11.8719 9.36762 11.8093 9.36762V9.98393ZM11.06 9.21916C11.06 9.63034 11.3865 9.98393 11.8093 9.98393V9.36762C11.7468 9.36762 11.6763 9.31022 11.6763 9.21916H11.06ZM11.06 7.80371V9.21916H11.6763V7.80371H11.06ZM5.63285 8.11186H11.3681V7.49556H5.63285V8.11186ZM5.941 9.21916V7.80371H5.3247V9.21916H5.941ZM5.19165 9.98393C5.61437 9.98393 5.941 9.6304 5.941 9.21916H5.3247C5.3247 9.31015 5.25421 9.36762 5.19165 9.36762V9.98393ZM4.44231 9.21916C4.44231 9.6304 4.76894 9.98393 5.19165 9.98393V9.36762C5.1291 9.36762 5.05861 9.31015 5.05861 9.21916H4.44231ZM4.44231 7.80371V9.21916H5.05861V7.80371H4.44231ZM1.88281 8.11186H4.75046V7.49556H1.88281V8.11186ZM2.19096 18.0771V7.80371H1.57466V18.0771H2.19096ZM4.08867 20.0519C3.05558 20.0519 2.19096 19.1726 2.19096 18.0771H1.57466C1.57466 19.4929 2.69542 20.6683 4.08867 20.6683V20.0519ZM12.9123 20.0519H4.08867V20.6683H12.9123V20.0519ZM14.81 18.0771C14.81 19.1726 13.9454 20.0519 12.9123 20.0519V20.6683C14.3056 20.6683 15.4263 19.4929 15.4263 18.0771H14.81Z" fill="white"/>
</svg>
