<svg width="21" height="23" viewBox="0 0 21 23" fill="none" xmlns="http://www.w3.org/2000/svg">
<path d="M20.5057 5.75458L17.9305 1.33989C17.6361 0.824848 17.0844 0.530518 16.5324 0.530518H4.35505C3.76635 0.530518 3.25129 0.824867 2.95697 1.33989L0.381767 5.75458C0.0137654 6.37997 -0.0965771 7.04235 0.087417 7.66771C0.234464 8.14605 0.565761 8.55072 1.00716 8.80812V21.0591C1.00716 21.8684 1.66924 22.5305 2.47861 22.5305H18.3717C19.1811 22.5305 19.8432 21.8684 19.8432 21.0591L19.8434 8.80812C20.2848 8.51377 20.6162 8.10905 20.7632 7.66771C20.9839 7.07901 20.8735 6.41692 20.5055 5.75458H20.5057ZM13.3685 1.63421H16.5324C16.7164 1.63421 16.9004 1.74456 16.9738 1.89186L19.549 6.30655C19.7697 6.67455 19.8434 7.00562 19.733 7.29993C19.6594 7.55759 19.402 7.81498 19.0709 7.96202C18.7399 8.10906 18.3719 8.18271 17.8935 8.18271C17.5255 8.18271 17.1945 8.14602 16.8634 8.07236C15.4654 7.74132 14.3249 6.7846 14.1779 5.93857L13.3685 1.63421ZM12.2281 1.63421L13.1111 6.15927C13.2215 6.63761 13.0008 7.04228 12.7801 7.29968C12.3017 7.85167 11.4186 8.21968 10.4622 8.21968C9.50578 8.21968 8.62277 7.88863 8.14444 7.29994C8.10774 7.22629 8.03409 7.15289 7.99739 7.07924C7.88704 6.89524 7.77669 6.63785 7.81339 6.34352C7.81339 6.26986 7.81339 6.23317 7.85009 6.15951L8.7331 1.63446L12.2281 1.63421ZM1.33836 6.34328L3.91357 1.92859C4.02392 1.78154 4.17122 1.67094 4.35497 1.67094H7.51888L6.67278 5.97532C6.45208 7.04209 4.8333 8.25622 2.95709 8.25622C2.47875 8.25622 2.07408 8.18256 1.77969 8.03552C1.44865 7.88847 1.22795 7.66751 1.11761 7.37343C1.08066 7.04239 1.11736 6.67437 1.33831 6.34333L1.33836 6.34328ZM18.7766 21.0591C18.7766 21.2798 18.5926 21.4271 18.4086 21.4271H2.51553C2.29483 21.4271 2.14752 21.2431 2.14752 21.0591L2.14778 9.24966C2.22143 9.24966 2.33178 9.28636 2.40543 9.28636C2.44213 9.28636 2.51578 9.28636 2.55248 9.32305C2.69953 9.32305 2.84683 9.35975 2.99388 9.35975C3.17788 9.35975 3.36188 9.35975 3.50892 9.32305H3.65597C3.80301 9.32305 3.91362 9.28636 4.06066 9.2494C4.09736 9.2494 4.13432 9.2494 4.17101 9.21271C4.35501 9.17601 4.50206 9.13905 4.64936 9.06566C4.68605 9.06566 4.72301 9.02896 4.75971 9.02896C4.90675 8.99226 5.01736 8.95531 5.12771 8.88191C5.16441 8.84522 5.20136 8.84522 5.27475 8.80826C5.4218 8.73461 5.53241 8.69791 5.67945 8.62426C5.71615 8.62426 5.71615 8.58756 5.75311 8.58756C5.90015 8.51391 6.04745 8.40356 6.1578 8.32991C6.1945 8.29322 6.23146 8.29322 6.26815 8.25626C6.3785 8.18261 6.45215 8.10921 6.5625 8.03556C6.5992 7.99887 6.63615 7.99887 6.67285 7.96191C6.7832 7.85156 6.89355 7.74121 7.0039 7.63086L7.0406 7.66756C7.11425 7.77791 7.18764 7.88826 7.26129 7.99861C7.96036 8.8447 9.1375 9.32304 10.4619 9.32304C11.7864 9.32304 12.9635 8.80799 13.6626 7.99861C13.7362 7.88826 13.8096 7.77791 13.8833 7.66756L13.92 7.63086L14.251 7.96191C14.2877 7.99861 14.3247 7.99861 14.3614 8.03556C14.4717 8.10921 14.5454 8.18261 14.6557 8.25626C14.6924 8.29296 14.7294 8.29296 14.766 8.32991C14.9131 8.40356 15.0237 8.51391 15.1707 8.58756C15.2074 8.58756 15.2074 8.62426 15.2444 8.62426C15.3547 8.69791 15.5021 8.77131 15.6491 8.80826C15.6858 8.84496 15.7228 8.84496 15.7961 8.88191C15.9065 8.91861 16.0538 8.99226 16.2008 9.02896C16.2375 9.02896 16.2745 9.06566 16.3112 9.06566C16.4582 9.10236 16.6422 9.17601 16.7895 9.21271C16.8262 9.21271 16.8632 9.21271 16.8999 9.2494C17.0469 9.2861 17.1575 9.2861 17.3046 9.32305H17.4516C17.6356 9.32305 17.7827 9.35975 17.9667 9.35975C18.1137 9.35975 18.261 9.35975 18.4081 9.32305C18.4448 9.32305 18.5184 9.32305 18.5551 9.28636C18.6288 9.28636 18.7391 9.24966 18.8128 9.24966L18.8135 21.0591H18.7766Z" fill="white"/>
<path d="M15.1713 18.4838H5.9739C5.16452 18.4838 4.50244 17.8217 4.50244 17.0124V13.3701C4.50244 12.5608 5.16452 11.8987 5.9739 11.8987H15.1713C15.9807 11.8987 16.6428 12.5608 16.6428 13.3701V17.0124C16.6428 17.8217 15.9807 18.4838 15.1713 18.4838ZM5.9739 13.0021C5.7532 13.0021 5.60589 13.1861 5.60589 13.3701V17.0123C5.60589 17.233 5.7899 17.3804 5.9739 17.3804H15.1713C15.392 17.3804 15.5393 17.1963 15.5393 17.0123V13.3701C15.5393 13.1494 15.3553 13.0021 15.1713 13.0021H5.9739Z" fill="white"/>
</svg>
