<?xml version="1.0" encoding="UTF-8"?>
<svg width="35px" height="39px" viewBox="0 0 35 39" version="1.1" xmlns="http://www.w3.org/2000/svg" xmlns:xlink="http://www.w3.org/1999/xlink">
    <title>noun_presentation_4038429</title>
    <g id="SPIN---MOBILE" stroke="none" stroke-width="1" fill="none" fill-rule="evenodd">
        <g id="SPIN---BUSINESS-MENU---NOTIFICATIONS" transform="translate(-65.000000, -265.000000)" fill="#FFFFFF">
            <g id="Group-2" transform="translate(0.000000, 69.000000)">
                <g id="Group-9" transform="translate(41.000000, 174.000000)">
                    <g id="Shape" transform="translate(24.000000, 22.000000)">
                        <path d="M16.0416667,2.88886214 L16.0416667,1.44443107 C16.0416667,0.647105119 16.695,0 17.5,0 C18.305,0 18.9583333,0.647105119 18.9583333,1.44443107 L18.9583333,2.88886214 L30.625,2.88886214 C31.784375,2.88886214 32.8970833,3.34530236 33.718125,4.15851705 C34.5391667,4.97173174 35,6.07383265 35,7.22215535 L35,27.4441903 C35,28.5939575 34.5391667,29.6960584 33.718125,30.5092731 C32.8970833,31.3210433 31.784375,31.7774835 30.625,31.7774835 L21.0204167,31.7774835 L25.8227083,36.5339951 C26.3914583,37.0973232 26.3914583,38.0130925 25.8227083,38.5764206 C25.2539583,39.1411931 24.329375,39.1411931 23.760625,38.5764206 L17.5,32.375478 L11.239375,38.5764206 C10.670625,39.1411931 9.74604167,39.1411931 9.17729167,38.5764206 C8.60708333,38.0130925 8.60708333,37.0973232 9.17729167,36.5339951 L13.9795833,31.7774835 L4.375,31.7774835 C3.21416667,31.7774835 2.10145833,31.3210433 1.28041667,30.5092731 C0.460833333,29.6960584 0,28.5939575 0,27.4441903 C0,22.4421255 0,12.2242201 0,7.22215535 C0,6.07383265 0.460833333,4.97173174 1.28041667,4.15851705 C2.10145833,3.34530236 3.21416667,2.88886214 4.375,2.88886214 L16.0416667,2.88886214 Z M30.625,5.77772428 L4.375,5.77772428 C3.98854167,5.77772428 3.61666667,5.93083397 3.34395833,6.20094258 C3.06979167,6.47249563 2.91666667,6.83938112 2.91666667,7.22215535 C2.91666667,12.2242201 2.91666667,22.4421255 2.91666667,27.4441903 C2.91666667,27.8269646 3.06979167,28.1952945 3.34395833,28.4654031 C3.61666667,28.7369561 3.98854167,28.8886214 4.375,28.8886214 C10.4752083,28.8886214 24.5233333,28.8886214 30.625,28.8886214 C31.0114583,28.8886214 31.381875,28.7369561 31.6560417,28.4654031 C31.92875,28.1952945 32.0833333,27.8269646 32.0833333,27.4441903 L32.0833333,7.22215535 C32.0833333,6.83938112 31.92875,6.47249563 31.6560417,6.20094258 C31.381875,5.93083397 31.0114583,5.77772428 30.625,5.77772428 Z M13.1745833,16.2137388 L8.16666667,19.9331488 C7.52208333,20.4112555 6.60770833,20.2827011 6.125,19.6442626 C5.64229167,19.0072685 5.77208333,18.1001657 6.41666667,17.6220591 L12.25,13.2887658 C12.744375,12.9218804 13.4195833,12.9031027 13.9329167,13.2425441 L21.8254167,18.4540514 L26.8333333,14.7331969 C27.4764583,14.2550902 28.3922917,14.385089 28.875,15.0220831 C29.3577083,15.6605217 29.2264583,16.5661799 28.5833333,17.0442866 L22.75,21.3775798 C22.255625,21.7459098 21.5804167,21.7632429 21.065625,21.4238016 L13.1745833,16.2137388 Z"></path>
                    </g>
                </g>
            </g>
        </g>
    </g>
</svg>