<svg xmlns="http://www.w3.org/2000/svg" viewBox="0 0 42 24"><g fill="#000" fill-rule="nonzero"><path d="M42 17.2l-.6-2.4a3 3 0 00-2.9-2.3H34l-3.2-1.3L23 6.3l-.6-.6.4-.4c.3-.3.4-.7.1-1l-1.3-1.8a.8.8 0 00-1-.2l-.6.4-.8-.9a.7.7 0 00-.8-.1l-1.1.6-2-1.2a.7.7 0 00-.8 0l-2.8 2.4c-.7.6-.8 1.7-.2 2.4l2 2.6-.7.5a2 2 0 01-1.6 0c-1.7-.6-3-3.3-3.3-4.2a.7.7 0 00-.6-.5H5.7l-.5.2-.9.9C4 4.9 2.4 3.7 1 4.6.3 5 0 5.8.3 6.5c.2.6.8 1.2 2 1.4l-1.5 6v.3l.2 1.5L0 20c0 .2 0 .5.3.6A17 17 0 009.7 23h4c.2 0 .5-.2.6-.4l1.3-2.7 3.7.3 2.2 2.5c.1.2.3.3.5.3h5.5l1.4-.6.8.3h.4c2-.2 12.1-2 11.9-5.4v-.1zm-1.4 0l-1 .2v-1l-.1-.4-1.9-1v-.1-.1l2-.6c.2.2.4.5.5.9l.5 2.1zm-6-2.9l-.3-.5h3.5l-.4.2a1 1 0 00-.2 1.7l1.6 1v.8h-.1-.4c-3.1-.3-5.2-.2-6.3 0l2.6-2.6c.1-.2.2-.4 0-.6zM12.5 5.1a.5.5 0 010-.6l2.5-2 1 .6-1 .7c-.3.2-.4.5-.2.8l.7 1.6c.1.3 0 .7-.3 1l-.7.5-2-2.6zm-6.6.5h1c.4 1.1 1.7 3.8 3.8 4.7a3.3 3.3 0 002.8-.2l2.6-2a2 2 0 00.6-2.5l-.5-1L18.6 3 22 7.2l.2.2 7.9 5 3 1.2.6 1-3.2 3.2-.2.3a12 12 0 01-3.2 0l-4.4-.8c-.6-.2-1.3 0-1.8.5l-5.3-.5c-.4-.9-1.2-1.6-2.2-1.8l-3.4-.8-.9-3c0-.2 0-.3-.2-.3L3.7 7.9v-.1L6 5.6zm4.2 10.8l-1-.3-1.3-3.7-.1-.2-4-2.9h-.3v-.5l5 3.2.9 3.2c0 .2.1.3.3.3l3.6.8c.5.2 1 .5 1.3 1l-3.3-.4-1.1-.5zM1 6.2c-.1-.3 0-.7.4-1 .8-.4 1.9.5 2.2.8l-1 1c-1 0-1.5-.4-1.6-.8zm2 3.9l4 2.7L8 16l-5.9-.5-.1-1.2L3 10zm10.2 11.6H9.7c-4.4 0-7.3-1.4-8.3-2l.8-3.5 5.9.6c.5 0 1.1.2 1.6.4l4.7 2.1-1.1 2.4zm2-3.1H15l-1.5-.6 6.7.6-.4.4h-.1l-4.4-.4zM30 21.5l-1-.4h-.5l-1.5.6h-4.8l-1.9-2.1 1-1c.3-.4.7-.6 1.2-.5l4.4.8c.1 0 3.2.4 4.7-.4.5-.2 2-.5 6.6-.2h.3l1.6-.1a24.5 24.5 0 01-10.1 3.3z"/><path d="M17.3 11.3l-1.3 2a1 1 0 000 1c.2.3.5.4.9.4l5.5-.2 3.4 1a.4.4 0 00.2 0l3.4-.6c.2 0 .3-.2.3-.3 0-.2 0-.4-.2-.5l-2.7-1.5h-.2l-2.2.1-1.8-2c-.3-.5-.9-.8-1.5-.7l-2.8.5c-.4.1-.8.4-1 .8zm1.2.1l2.8-.5c.2 0 .5 0 .6.3 2 2.4 2.1 2.4 2.3 2.5l.3-.1 2-.2 1.5.9-2 .3-3.5-1h-.1l-5.5.3h-.1v-.2l1.2-2c.1-.2.3-.3.5-.3zM14 12.8c.5 0 1-.5 1-1 0-.7-.5-1.2-1-1.2a1 1 0 00-1.2 1.1c0 .6.5 1 1.1 1zm0-1.3s.2 0 .2.2c0 .1-.1.2-.3.2a.2.2 0 01-.2-.2l.2-.2zM17 10.4c.5 0 1-.5 1-1 0-.7-.5-1.2-1-1.2a1 1 0 00-1.2 1.1c0 .6.5 1 1.1 1zM17 9l.1.2c0 .1 0 .2-.2.2a.2.2 0 01-.2-.2l.2-.2z"/></g></svg>