<svg xmlns="http://www.w3.org/2000/svg" width="95" height="55" viewBox="0 0 95 55">
    <g fill="none" fill-rule="evenodd">
        <g fill="#000">
            <g>
                <text font-family="Roobert-SemiBold, Roobert" font-size="43.2" font-weight="500" transform="translate(-160 -88) translate(160 88)">
                    <tspan x=".306" y="43">SPIN</tspan>
                </text>
                <g fill-rule="nonzero">
                    <g>
                        <path d="M1.046 5.535v.535H.014V.001h1.032v2.332c.248-.344.688-.583 1.252-.583 1.252 0 2.007.898 2.007 2.189 0 1.3-.755 2.188-2.026 2.188-.516.01-.994-.22-1.233-.592zm2.227-1.587c0-.783-.46-1.3-1.147-1.3-.688 0-1.147.517-1.147 1.3 0 .784.459 1.3 1.147 1.3.688-.01 1.147-.516 1.147-1.3zM7.066 5.869L6.407 7.79 5.423 7.79 6.025 6.07 4.477 1.826 5.528 1.826 6.512 4.742 7.487 1.826 8.548 1.826z" transform="translate(-160 -88) translate(160 88) translate(2.34 46.8)"/>
                    </g>
                    <g>
                        <path d="M28.338 1.454c-1.223 0-2.207 1.003-2.207 2.313 0 1.319.994 2.293 2.207 2.293 1.223 0 2.217-.984 2.217-2.293 0-1.31-.994-2.313-2.217-2.313zm0 3.584c-.602 0-1.09-.516-1.09-1.252 0-.765.488-1.29 1.09-1.29.602 0 1.08.525 1.08 1.29.01.736-.478 1.252-1.08 1.252zM23.321 5.038c-.611 0-1.108-.516-1.108-1.252 0-.765.497-1.29 1.108-1.29.478 0 .88.324 1.042.821h1.185c-.21-1.08-1.128-1.854-2.217-1.854-1.242 0-2.255 1.004-2.255 2.313 0 1.32 1.013 2.294 2.255 2.294 1.099 0 2.026-.765 2.226-1.854h-1.185c-.162.497-.573.822-1.05.822zM1.19 4.178V.02H.061v4.167c0 1.138.65 1.873 1.863 1.873h.402V4.952h-.392c-.545.01-.746-.22-.746-.774zM5.117 1.415c-1.328 0-2.265 1.042-2.265 2.313 0 1.262.946 2.294 2.112 2.294h2.408V3.728c0-1.27-.927-2.313-2.255-2.313zm0 3.565c-.621 0-1.128-.535-1.128-1.242 0-.726.507-1.262 1.128-1.262.621 0 1.128.564 1.128 1.262 0 .315.01 1.252.01 1.252l-1.138-.01zM18.17 1.415c-1.328 0-2.264 1.042-2.264 2.313 0 1.262.946 2.294 2.112 2.294h2.408V3.728c0-1.27-.927-2.313-2.255-2.313zm0 3.565c-.62 0-1.127-.535-1.127-1.242 0-.726.506-1.262 1.128-1.262.62 0 1.127.564 1.127 1.262 0 .315.01 1.252.01 1.252l-1.137-.01zM14.644 4.216V.03h-1.137v4.186c0 1.204.679 1.969 1.969 1.835V5.028c-.555.039-.832-.19-.832-.812zM10.602 1.463h-1.27V.03H8.183l.01 3.727c0 1.271.927 2.313 2.255 2.313 1.329 0 2.265-1.042 2.265-2.313 0-1.271-.946-2.294-2.112-2.294zM10.45 5.01c-.573 0-1.041-.468-1.118-1.09V2.497l1.118.01c.621 0 1.128.534 1.128 1.242 0 .726-.507 1.261-1.128 1.261z" transform="translate(-160 -88) translate(160 88) translate(2.34 46.8) translate(59.04 .72)"/>
                    </g>
                </g>
            </g>
        </g>
    </g>
</svg>
