<svg xmlns="http://www.w3.org/2000/svg" width="64.338" height="122.48" viewBox="0 0 64.338 122.48">
  <g>
    <g>
      <path d="M0,122.48v-15A41.535,41.535,0,0,0,41.488,65.991h15A56.553,56.553,0,0,1,0,122.48Z"/>
      <path d="M15.069,65.959h-15A56.553,56.553,0,0,1,56.558,9.471v15A41.535,41.535,0,0,0,15.069,65.959Z"/>
    </g>
    <g>
      <polygon points="58.57 0.646 59.835 0.646 59.835 0 56.557 0 56.557 0.646 57.816 0.646 57.816 4.037 58.57 4.037 58.57 0.646"/>
      <path d="M64.338,4.037V0H63.323l-.651,1.921c-.152.477-.347,1.356-.347,1.356h-.016s-.2-.884-.353-1.356L61.294,0H60.3V4.037h.673v-2.1c0-.44-.049-1.259-.049-1.259h.011s.168.743.3,1.145l.771,2.219h.608l.765-2.219c.13-.4.3-1.145.3-1.145h.011s-.049.819-.049,1.259V4.037Z"/>
    </g>
  </g>
</svg>
