<svg width="94" height="94" viewBox="0 0 94 94" fill="none" xmlns="http://www.w3.org/2000/svg">
<circle cx="47" cy="47" r="47" fill="black"/>
<path d="M34.0283 70.6498V64.637C43.2507 64.6266 50.7243 57.1867 50.7345 48.0061H56.7747C56.7605 60.5058 46.585 70.6354 34.0283 70.6498V70.6498Z" fill="white"/>
<path d="M40.0959 47.9926H34.0558C34.0702 35.4929 44.2459 25.3635 56.8026 25.3494V31.3621C47.5801 31.3723 40.1064 38.812 40.0959 47.9926Z" fill="white"/>
<path d="M57.598 21.8034H58.098V21.5244H56.8024V21.8034H57.3V23.2678H57.598V21.8034Z" fill="white"/>
<path d="M59.8782 23.2678V21.5244H59.4771L59.2197 22.354C59.1597 22.56 59.0826 22.9396 59.0826 22.9396H59.0763C59.0763 22.9396 58.9972 22.5578 58.9368 22.354L58.6751 21.5244H58.2822V23.2678H58.5482V22.3609C58.5482 22.1709 58.5289 21.8172 58.5289 21.8172H58.5332C58.5332 21.8172 58.5996 22.1381 58.6518 22.3117L58.9565 23.2699H59.1968L59.4992 22.3117C59.5506 22.1389 59.6178 21.8172 59.6178 21.8172H59.6221C59.6221 21.8172 59.6027 22.1709 59.6027 22.3609V23.2678H59.8782Z" fill="white"/>
</svg>
