<?xml version="1.0" encoding="UTF-8"?>
<svg width="101px" height="101px" viewBox="0 0 101 101" version="1.1" xmlns="http://www.w3.org/2000/svg" xmlns:xlink="http://www.w3.org/1999/xlink">
    <title>Group 5</title>
    <g id="SPIN---MOBILE" stroke="none" stroke-width="1" fill="none" fill-rule="evenodd">
        <g id="SPIN---USER-PROFILE---STORE---NO-CONTENT" transform="translate(-157.000000, -432.000000)">
            <g id="Group-5" transform="translate(158.000000, 433.000000)">
                <g id="Group-16" opacity="0.604073661" stroke="#FFFFFF">
                    <circle id="Oval" cx="49.5" cy="49.5" r="49.5"></circle>
                </g>
                <path d="M49.5,24 C44.6617802,24 40.75,28.0800072 40.75,33.1139278 L40.75,37.6177834 L33.0294176,37.6177834 C32.4632363,37.6177834 32,38.0947401 32,38.677574 L32,63.5818051 C32,67.6618123 35.2426538,71 39.2058242,71 L59.7941758,71 C63.7573791,71 67,67.6618123 67,63.5818051 L67,38.677574 C67,38.0947401 66.5368626,37.6177834 65.9705495,37.6177834 L58.25,37.6177834 L58.25,33.1139278 C58.25,28.0800072 54.3382198,24 49.5,24 Z M42.8089011,33.1139278 C42.8089011,29.2458448 45.7940769,26.1194964 49.5,26.1194964 C53.2059231,26.1194964 56.1912637,29.2458448 56.1912637,33.1139278 L56.1912637,37.6177834 L42.8089011,37.6177834 L42.8089011,33.1139278 Z M64.9412637,39.7903032 L64.9412637,63.6347437 C64.9412637,66.549083 62.6250824,68.9335271 59.7941758,68.9335271 L39.2058242,68.9335271 C36.3750824,68.9335271 34.0588187,66.549083 34.0588187,63.6347437 L34.0588187,39.7903032 L40.75,39.7903032 L40.75,43.0755523 C40.75,43.6583863 41.2133022,44.135343 41.7794505,44.135343 C42.3455989,44.135343 42.8089011,43.6583863 42.8089011,43.0755523 L42.8089011,39.7903032 L56.1912637,39.7903032 L56.1912637,43.0755523 C56.1912637,43.6583863 56.6544011,44.135343 57.2205495,44.135343 C57.7868626,44.135343 58.25,43.6583863 58.25,43.0755523 L58.25,39.7903032 L64.9412637,39.7903032 Z" id="Shape" stroke="#898989" stroke-width="1.25" fill="#898989" fill-rule="nonzero"></path>
            </g>
        </g>
    </g>
</svg>