<svg xmlns="http://www.w3.org/2000/svg" width="17px" height="23px" viewBox="0 0 19 25" fill="#fff">
    <path fillRule="nonzero" fill="#fff" stroke="#fff" d="M9.46 1a4.32 4.32 0 00-4.23 4.41V7.6H1.5a.5.5 0 00-.5.52v12.05c0 1.98 1.57 3.6 3.48 3.6h9.96a3.55 3.55 0 003.48-3.6V8.11a.5.5 0 00-.5-.52H13.7V5.41C13.7 2.98 11.8 1 9.46 1zM6.23 5.41a3.3 3.3 0 013.23-3.38A3.3 3.3 0 0112.7 5.4V7.6H6.23V5.41zm10.7 3.23V20.2a2.54 2.54 0 01-2.5 2.56H4.49A2.54 2.54 0 012 20.2V8.64h3.23v1.6c0 .28.22.5.5.5a.5.5 0 00.5-.5v-1.6h6.47v1.6c0 .28.22.5.5.5a.5.5 0 00.5-.5v-1.6h3.23z" />
</svg>