<svg width="39" height="40" xmlns="http://www.w3.org/2000/svg">
    <g transform="translate(1 1.93)" fill="none" fillRule="evenodd">
        <ellipse stroke="#FFF" strokeWidth="1.28" cx="18.34" cy="18.53" rx="18.34" ry="18.53" />
        <path d="M20.81 29.35c-.2 0-.4-.07-.53-.21l-3.43-3.42a.8.8 0 01-.23-.56c0-.2.1-.4.23-.55.3-.3.81-.33 1.11-.03l3.4 3.4c.24.23.28.56.17.86a.8.8 0 01-.72.5zm-4.56 0c-.21 0-.4-.07-.53-.21a.83.83 0 01-.26-.56c0-.2.07-.41.23-.55l.74-.76a.8.8 0 01.56-.24c.2 0 .4.1.56.24.3.3.32.8.02 1.1l-.77.75a.6.6 0 01-.25.16c-.1.04-.2.07-.3.07zm7.2-2.66c-.2 0-.4-.07-.53-.21l-.77-.76a.77.77 0 010-1.1c.3-.3.81-.31 1.11-.01l.75.74c.23.23.27.55.16.85a.79.79 0 01-.72.49zm-9.86 0c-.21 0-.4-.07-.54-.21a.83.83 0 01-.25-.56c0-.2.07-.41.23-.55l3.4-3.4a.8.8 0 01.56-.23c.2 0 .4.1.56.23.3.3.32.8.02 1.11l-3.43 3.38a.6.6 0 01-.25.16.64.64 0 01-.3.07zm6.48-1.16c-.2 0-.4-.07-.56-.23l-.02-.02a.77.77 0 010-1.09l2.22-2.22c.3-.3.79-.3 1.1 0 .3.3.32.8.01 1.11L20.6 25.3a.75.75 0 01-.53.23zm6.04-1.48a.8.8 0 01-.55-.23l-3.4-3.4a.77.77 0 010-1.09.8.8 0 01.55-.23c.2 0 .42.07.55.21l3.4 3.4c.24.23.29.55.17.86a.81.81 0 01-.72.48zm-15.16 0a.77.77 0 01-.54-.2.74.74 0 01-.25-.56c0-.21.07-.42.23-.58l.74-.76a.8.8 0 01.56-.23c.2 0 .41.09.55.23.3.3.33.8.03 1.1l-.74.75a.6.6 0 01-.26.16.63.63 0 01-.32.1zm8.68-1.18c-.2 0-.4-.07-.53-.2l-2.23-2.23a.77.77 0 010-1.08.8.8 0 01.56-.23c.2 0 .42.06.56.2l2.22 2.22a.8.8 0 01.23.56c0 .2-.1.4-.23.55-.16.12-.37.21-.58.21zm-5.3 0c-.21 0-.4-.07-.54-.2l-2.22-2.23a.8.8 0 01-.23-.55c0-.21.1-.4.23-.56.3-.3.81-.32 1.11-.02l2.23 2.22a.8.8 0 01.23.56c0 .2-.1.39-.23.55a.91.91 0 01-.58.23zm14.42-1.46a.8.8 0 01-.55-.23l-.75-.76a.8.8 0 01-.23-.55c0-.21.1-.4.23-.56.3-.3.82-.32 1.12-.02l.74.74c.23.23.28.55.16.85-.12.3-.4.53-.72.53zm-20.44 0a.77.77 0 01-.54-.2.74.74 0 01-.25-.56c0-.2.07-.41.23-.55l3.4-3.4a.8.8 0 01.56-.23c.2 0 .4.09.56.23.3.3.32.8.02 1.1l-3.43 3.38a.6.6 0 01-.25.17c-.1.04-.21.06-.3.06zm11.76-1.17c-.2 0-.4-.07-.56-.24l-.02-.02a.8.8 0 01-.23-.55c0-.21.1-.4.23-.56l2.22-2.22c.3-.3.79-.3 1.1 0a.8.8 0 01.22.56c0 .2-.07.41-.2.55l-2.23 2.22a.63.63 0 01-.53.26zm-5.3 0c-.21 0-.4-.07-.56-.24l-.02-.02a.8.8 0 01-.23-.55c0-.21.09-.4.23-.56l2.22-2.22c.3-.3.79-.3 1.09 0a.8.8 0 01.23.56c0 .2-.07.41-.2.55l-2.23 2.22a.63.63 0 01-.53.26zm10.6 0c-.2 0-.4-.1-.55-.24l-.03-.02a.77.77 0 010-1.09l3.4-3.4a.77.77 0 011.1 1.1L25.9 20a.75.75 0 01-.53.24zM9.05 17.58a.72.72 0 01-.56-.24l-.74-.74a.77.77 0 011.09-1.09l.76.75a.8.8 0 01.24.55c0 .21-.07.42-.24.56a.97.97 0 01-.55.2zm5.28 0c-.21 0-.4-.07-.54-.24l-3.4-3.37a.77.77 0 011.09-1.09l3.4 3.38a.8.8 0 01.23.55c0 .21-.09.4-.23.56a.79.79 0 01-.55.2zm5.3 0c-.2 0-.4-.07-.53-.21l-2.23-2.22a.8.8 0 01-.23-.56c0-.2.1-.4.23-.55.3-.3.81-.33 1.12-.03l2.22 2.22a.8.8 0 01.23.56c0 .2-.1.4-.23.55a.8.8 0 01-.58.24zm5.3 0a.79.79 0 01-.55-.21l-2.23-2.22a.77.77 0 010-1.09.8.8 0 01.56-.23c.2 0 .42.07.55.2l2.23 2.23c.3.3.3.78 0 1.08a.8.8 0 01-.56.24zm-10.16-2.64c-.21 0-.4-.07-.56-.23l-.02-.03a.77.77 0 010-1.08l2.22-2.22a.8.8 0 01.56-.23c.2 0 .39.09.55.23.3.3.33.8.03 1.1l-2.23 2.23a.75.75 0 01-.55.23zm5.3 0a.8.8 0 01-.56-.23l-.02-.03a.77.77 0 010-1.08l3.4-3.4a.77.77 0 011.1 1.09l-3.37 3.42a.85.85 0 01-.55.23zm5.28 0c-.21 0-.4-.1-.56-.23a.8.8 0 01-.23-.56c0-.2.1-.39.23-.55l.74-.74a.77.77 0 011.1 1.08l-.73.77a.77.77 0 01-.55.23c.02 0 0 0 0 0zM14.33 12.3c-.21 0-.4-.07-.56-.23l-.74-.74a.77.77 0 011.09-1.09l.76.74a.8.8 0 01.23.56c0 .2-.09.42-.23.55a.9.9 0 01-.55.21zm5.3-.02c-.2 0-.4-.07-.53-.2l-3.4-3.4a.77.77 0 011.09-1.09l3.4 3.37a.8.8 0 01.23.56c0 .2-.1.39-.24.55a.79.79 0 01-.55.21zm.44-2.64c-.2 0-.4-.09-.56-.23a.8.8 0 01-.23-.55c0-.21.1-.4.23-.56l.74-.74a.77.77 0 011.1 1.09l-.75.76a.75.75 0 01-.53.23z" fill="#FFF" fillRule="nonzero" />
    </g>
</svg>