<svg xmlns="http://www.w3.org/2000/svg" width="25" height="21" viewBox="0 0 25 21">
    <g fill="none" fill-rule="evenodd">
        <g fill="#000" fill-rule="nonzero">
            <g>
                <path d="M1.414 9.334h21.883c.514 0 .977-.308 1.183-.771.206-.463.103-1.029-.257-1.389L17.949.643c-.489-.514-1.286-.54-1.8-.052-.515.489-.54 1.286-.052 1.8l4.192 4.372H1.414C.72 6.763.13 7.329.13 8.049c0 .72.565 1.285 1.285 1.285zM23.271 11.751H1.414c-.514 0-.977.309-1.183.772-.205.463-.102 1.028.258 1.388l6.248 6.532c.257.257.592.386.926.386.308 0 .643-.129.874-.36.514-.489.54-1.286.052-1.8l-4.192-4.372h18.874c.695 0 1.286-.566 1.286-1.286 0-.694-.566-1.26-1.286-1.26z" transform="translate(-44 -709) translate(44 709)"/>
            </g>
        </g>
    </g>
</svg>
