<?xml version="1.0" encoding="UTF-8"?>
<svg width="30px" height="40px" viewBox="0 0 30 40" version="1.1" xmlns="http://www.w3.org/2000/svg" xmlns:xlink="http://www.w3.org/1999/xlink">
    <title>noun_contract_1556737</title>
    <g id="SPIN---MOBILE" stroke="none" stroke-width="1" fill="none" fill-rule="evenodd">
        <g id="SPIN---MENU-2.0-" transform="translate(-192.000000, -265.000000)" fill="#FFFFFF" fill-rule="nonzero">
            <g id="Group" transform="translate(192.000000, 265.000000)">
                <path d="M3,0 C1.36024286,0 0,1.35059503 0,2.97872182 L0,37.0212782 C0,38.649405 1.36024286,40 3,40 L27,40 C28.6397571,40 30,38.649405 30,37.0212782 L30,2.97872182 C30,1.35059503 28.6397571,0 27,0 L3,0 Z M3,2.55319013 L27,2.55319013 C27.2596714,2.55319013 27.4285714,2.72091345 27.4285714,2.97872182 L27.4285714,37.0212782 C27.4285714,37.2790653 27.2596714,37.4468099 27,37.4468099 L3,37.4468099 C2.74032857,37.4468099 2.57142857,37.2790653 2.57142857,37.0212782 L2.57142857,2.97872182 C2.57142857,2.72091345 2.74032857,2.55319013 3,2.55319013 Z M19.6071429,5.09309091 C19.2790119,5.12304834 18.9648716,5.28387379 18.75,5.53192046 L13.5267857,11.4494705 L11.0625,9.6143651 C10.5269473,9.20008447 9.65776543,9.31301207 9.24760157,9.85016923 C8.83743771,10.3873221 8.96259086,11.2487813 9.50892857,11.6489385 L12.9375,14.2021286 C13.4486893,14.5868859 14.2542381,14.5068987 14.6785714,14.0292564 L20.6785714,7.22074935 C21.0231891,6.84233679 21.1047013,6.24980519 20.8749137,5.79348628 C20.6451261,5.33717163 20.1188074,5.04640157 19.6071429,5.09309091 Z M6.42857143,17.8723565 C5.71851429,17.8723565 5.14285714,18.4439306 5.14285714,19.1489473 C5.14285714,19.8540107 5.71851429,20.4255423 6.42857143,20.4255423 L23.5714286,20.4255423 C24.2814857,20.4255423 24.8571429,19.8540107 24.8571429,19.1489473 C24.8571429,18.4439306 24.2814857,17.8723565 23.5714286,17.8723565 L6.42857143,17.8723565 Z M6.42857143,24.6808592 C5.71851429,24.6808592 5.14285714,25.2524334 5.14285714,25.9574543 C5.14285714,26.6625177 5.71851429,27.2340493 6.42857143,27.2340493 L23.5714286,27.2340493 C24.2814857,27.2340493 24.8571429,26.6625177 24.8571429,25.9574543 C24.8571429,25.2524334 24.2814857,24.6808592 23.5714286,24.6808592 L6.42857143,24.6808592 Z M6.42857143,31.4893662 C5.71851429,31.4893662 5.14285714,32.0609404 5.14285714,32.7659613 C5.14285714,33.4710247 5.71851429,34.0425564 6.42857143,34.0425564 L23.5714286,34.0425564 C24.2814857,34.0425564 24.8571429,33.4710247 24.8571429,32.7659613 C24.8571429,32.0609404 24.2814857,31.4893662 23.5714286,31.4893662 L6.42857143,31.4893662 Z" id="Shape"></path>
            </g>
        </g>
    </g>
</svg>