<?xml version="1.0" encoding="UTF-8"?>
<svg width="24px" height="24px" viewBox="0 0 24 24" version="1.1" xmlns="http://www.w3.org/2000/svg" xmlns:xlink="http://www.w3.org/1999/xlink">
    <title>Shape</title>
    <g id="SPIN---MOBILE" stroke="none" stroke-width="1" fill="none" fill-rule="evenodd">
        <g id="SPIN---USER-PROFILE---VAULT---NO-CONTENT" transform="translate(-195.000000, -312.000000)" fill="#FFFFFF" fill-rule="nonzero" stroke="#FFFFFF" stroke-width="0.73336823">
            <path d="M213.227867,313 L200.773179,313 C198.141435,313 196,315.141231 196,317.773773 L196,330.226227 C196,332.858769 198.141435,335 200.773179,335 L213.226819,335 C215.858564,335 218,332.858769 218,330.226227 L218,317.773773 C218.001047,315.141231 215.859611,313 213.227867,313 Z M216.756416,330.22518 C216.756416,332.170516 215.173388,333.753393 213.227867,333.753393 L200.773179,333.753393 C198.827658,333.753393 197.244631,332.170516 197.244631,330.22518 L197.244631,317.773773 C197.244631,315.828437 198.827658,314.24556 200.773179,314.24556 L213.226819,314.24556 C215.172341,314.24556 216.755368,315.828437 216.755368,317.773773 L216.755368,330.22518 L216.756416,330.22518 Z M213.981141,323.37722 L213.197485,323.37722 C213.093765,322.690015 212.827658,322.060426 212.431639,321.525118 L212.98376,320.973049 C213.226819,320.730013 213.226819,320.336127 212.98376,320.092043 C212.740701,319.849007 212.346778,319.849007 212.103718,320.092043 L211.550549,320.64516 C211.01519,320.249179 210.385541,319.983096 209.697223,319.879387 L209.697223,319.094757 C209.697223,318.751155 209.418543,318.472501 209.074908,318.472501 C208.731272,318.472501 208.452592,318.751155 208.452592,319.094757 L208.452592,319.878339 C207.765322,319.982048 207.135673,320.248131 206.599266,320.644112 L206.046097,320.090996 C205.803038,319.84796 205.409114,319.84796 205.166055,320.090996 C204.922996,320.334032 204.922996,320.727918 205.166055,320.972001 L205.718177,321.52407 C205.322158,322.059378 205.05605,322.688967 204.952331,323.376173 L204.17077,323.376173 C203.827134,323.376173 203.548454,323.654826 203.548454,323.998429 C203.548454,324.342031 203.827134,324.620685 204.17077,324.620685 L204.954426,324.620685 C205.058145,325.30789 205.324253,325.937479 205.720272,326.472787 L205.16815,327.024856 C204.925091,327.267892 204.925091,327.661778 205.16815,327.905862 C205.28968,328.02738 205.448926,328.088139 205.608171,328.088139 C205.767417,328.088139 205.926663,328.02738 206.048192,327.905862 L206.601361,327.352745 C207.13672,327.748726 207.766369,328.014809 208.454688,328.118518 L208.454688,328.9021 C208.454688,329.245703 208.733368,329.524356 209.077003,329.524356 C209.420638,329.524356 209.699318,329.245703 209.699318,328.9021 L209.699318,328.118518 C210.386589,328.014809 211.016238,327.748726 211.552645,327.352745 L212.105814,327.905862 C212.227343,328.02738 212.386589,328.088139 212.545835,328.088139 C212.70508,328.088139 212.864326,328.02738 212.985856,327.905862 C213.228915,327.662826 213.228915,327.26894 212.985856,327.024856 L212.433734,326.472787 C212.829753,325.937479 213.095861,325.30789 213.19958,324.620685 L213.983236,324.620685 C214.326872,324.620685 214.605552,324.342031 214.605552,323.998429 C214.605552,323.654826 214.324776,323.37722 213.981141,323.37722 Z M209.075955,326.937908 C207.455212,326.937908 206.136196,325.619018 206.136196,323.999476 C206.136196,322.379934 207.456259,321.061045 209.075955,321.061045 C210.695651,321.061045 212.015714,322.379934 212.015714,323.999476 C212.015714,325.619018 210.696699,326.937908 209.075955,326.937908 Z M200.904138,319.528451 L200.904138,321.603686 C200.904138,321.947288 200.625458,322.225942 200.281823,322.225942 C199.938187,322.225942 199.659507,321.947288 199.659507,321.603686 L199.659507,319.528451 C199.659507,319.184848 199.938187,318.906192 200.281823,318.906192 C200.625458,318.905147 200.904138,319.183801 200.904138,319.528451 Z M200.904138,326.395267 L200.904138,328.470501 C200.904138,328.814104 200.625458,329.092757 200.281823,329.092757 C199.938187,329.092757 199.659507,328.814104 199.659507,328.470501 L199.659507,326.395267 C199.659507,326.051664 199.938187,325.773011 200.281823,325.773011 C200.625458,325.773011 200.904138,326.051664 200.904138,326.395267 Z" id="Shape"></path>
        </g>
    </g>
</svg>