<?xml version="1.0" encoding="UTF-8"?>
<svg width="101px" height="101px" viewBox="0 0 101 101" version="1.1" xmlns="http://www.w3.org/2000/svg" xmlns:xlink="http://www.w3.org/1999/xlink">
    <title>Group 5</title>
    <g id="SPIN---MOBILE" stroke="none" stroke-width="1" fill="none" fill-rule="evenodd">
        <g id="SPIN---USER-PROFILE---VAULT---NO-CONTENT" transform="translate(-157.000000, -446.000000)" stroke="#FFFFFF">
            <g id="Group-2" transform="translate(158.000000, 447.000000)">
                <g id="Group-16" opacity="0.604073661">
                    <circle id="Oval" cx="49.5" cy="49.5" r="49.5"></circle>
                </g>
                <path d="M62.2388184,27 L36.7633214,27 C31.3802083,27 27,31.3797914 27,36.764535 L27,62.235465 C27,67.6202086 31.3802083,72 36.7633214,72 L62.2366755,72 C67.6197886,72 72,67.6202086 72,62.235465 L72,36.764535 C72.0021398,31.3797914 67.6219315,27 62.2388184,27 Z M69.4563045,62.2333222 C69.4563045,66.2124185 66.2182934,69.4501214 62.2388184,69.4501214 L36.7633214,69.4501214 C32.7838464,69.4501214 29.5458353,66.2124185 29.5458353,62.2333222 L29.5458353,36.764535 C29.5458353,32.7854388 32.7838464,29.5477358 36.7633214,29.5477358 L62.2366755,29.5477358 C66.2161504,29.5477358 69.4541615,32.7854388 69.4541615,36.764535 L69.4541615,62.2333222 L69.4563045,62.2333222 Z M63.779606,48.2261321 L62.1766726,48.2261321 C61.9645197,46.8204847 61.4202081,45.5326889 60.6101696,44.4377411 L61.739509,43.3085091 C62.2366755,42.8113899 62.2366755,42.005714 61.739509,41.5064521 C61.2423425,41.0093329 60.4365899,41.0093329 59.9394234,41.5064521 L58.807941,42.6378268 C57.7128889,41.8278653 56.4249706,41.2836055 55.0170465,41.0714728 L55.0170465,39.4665492 C55.0170465,38.7637255 54.4470194,38.1937527 53.7441288,38.1937527 C53.0412382,38.1937527 52.4712111,38.7637255 52.4712111,39.4665492 L52.4712111,41.06933 C51.06543,41.2814628 49.7775116,41.8257226 48.6803166,42.635684 L47.5488342,41.5043093 C47.0516677,41.0071901 46.2459151,41.0071901 45.7487486,41.5043093 C45.2515821,42.0014285 45.2515821,42.8071044 45.7487486,43.3063664 L46.878088,44.4355983 C46.0680495,45.5305462 45.5237379,46.818342 45.311585,48.2239893 L43.7129375,48.2239893 C43.010047,48.2239893 42.4400199,48.7939622 42.4400199,49.4967859 C42.4400199,50.1996095 43.010047,50.7695824 43.7129375,50.7695824 L45.3158709,50.7695824 C45.5280239,52.1752298 46.0723354,53.4630256 46.882374,54.5579734 L45.7530346,55.6872054 C45.2558681,56.1843246 45.2558681,56.9900005 45.7530346,57.4892624 C46.0016178,57.737822 46.3273476,57.8621018 46.6530773,57.8621018 C46.9788071,57.8621018 47.3045369,57.737822 47.5531201,57.4892624 L48.6846025,56.3578877 C49.7796546,57.1678492 51.067573,57.7121089 52.4754971,57.9242417 L52.4754971,59.5270225 C52.4754971,60.2298462 53.0455242,60.7998191 53.7484147,60.7998191 C54.4513053,60.7998191 55.0213324,60.2298462 55.0213324,59.5270225 L55.0213324,57.9242417 C56.4271135,57.7121089 57.7150319,57.1678492 58.8122269,56.3578877 L59.9437093,57.4892624 C60.1922926,57.737822 60.5180223,57.8621018 60.8437521,57.8621018 C61.1694819,57.8621018 61.4952117,57.737822 61.7437949,57.4892624 C62.2409614,56.9921432 62.2409614,56.1864673 61.7437949,55.6872054 L60.6144555,54.5579734 C61.424494,53.4630256 61.9688056,52.1752298 62.1809585,50.7695824 L63.7838919,50.7695824 C64.4867825,50.7695824 65.0568096,50.1996095 65.0568096,49.4967859 C65.0568096,48.7939622 64.4824966,48.2261321 63.779606,48.2261321 Z M53.7462718,55.5093567 C50.4311141,55.5093567 47.7331287,52.811628 47.7331287,49.4989286 C47.7331287,46.1862292 50.4332571,43.4885005 53.7462718,43.4885005 C57.0592864,43.4885005 59.7594148,46.1862292 59.7594148,49.4989286 C59.7594148,52.811628 57.0614294,55.5093567 53.7462718,55.5093567 Z M37.0311913,40.3536498 L37.0311913,44.5984477 C37.0311913,45.3012714 36.4611642,45.8712442 35.7582736,45.8712442 C35.055383,45.8712442 34.4853559,45.3012714 34.4853559,44.5984477 L34.4853559,40.3536498 C34.4853559,39.6508262 35.055383,39.0808473 35.7582736,39.0808473 C36.4611642,39.0787105 37.0311913,39.6486834 37.0311913,40.3536498 Z M37.0311913,54.3994096 L37.0311913,58.6442074 C37.0311913,59.3470311 36.4611642,59.917004 35.7582736,59.917004 C35.055383,59.917004 34.4853559,59.3470311 34.4853559,58.6442074 L34.4853559,54.3994096 C34.4853559,53.6965859 35.055383,53.126613 35.7582736,53.126613 C36.4611642,53.126613 37.0311913,53.6965859 37.0311913,54.3994096 Z" id="Shape" stroke-width="1.50007138" fill="#FFFFFF" fill-rule="nonzero" opacity="0.5"></path>
            </g>
        </g>
    </g>
</svg>