<?xml version="1.0" encoding="UTF-8"?>
<svg width="53px" height="40px" viewBox="0 0 53 40" version="1.1" xmlns="http://www.w3.org/2000/svg" xmlns:xlink="http://www.w3.org/1999/xlink">
    <title>noun_voucher_3646855</title>
    <g id="SPIN---MOBILE" stroke="none" stroke-width="1" fill="none" fill-rule="evenodd">
        <g id="SPIN---MOBILE---BUSINESS-PROFILE---VOUCHERS" transform="translate(-26.000000, -475.000000)" fill="#FFFFFF">
            <g id="noun_voucher_3646855" transform="translate(26.000000, 475.000000)">
                <path d="M4.96875,0 C2.22459219,0 0,2.23856667 0,5 L0,11.6666667 C0,12.5871333 0.741527969,13.3333333 1.65625,13.3333333 C5.31513812,13.3333333 8.28125,16.3181 8.28125,20 C8.28125,23.6818333 5.31513812,26.6666667 1.65625,26.6666667 C0.741527969,26.6666667 0,27.4128333 0,28.3333333 L0,35 C0,37.7615 2.22459219,40 4.96875,40 L48.03125,40 C50.7754906,40 53,37.7615 53,35 L53,28.3333333 C53,27.4128333 52.2584969,26.6666667 51.34375,26.6666667 C47.6849281,26.6666667 44.71875,23.6818333 44.71875,20 C44.71875,16.3181 47.6849281,13.3333333 51.34375,13.3333333 C52.2584969,13.3333333 53,12.5871333 53,11.6666667 L53,5 C53,2.23858333 50.7754906,0 48.03125,0 L4.96875,0 Z M3.3125,5 C3.3125,4.07953333 4.05401969,3.33333333 4.96875,3.33333333 L16.5625,3.33333333 L16.5625,5.18518333 C16.5625,6.10565 17.3040031,6.85185 18.21875,6.85185 C19.1334969,6.85185 19.875,6.10565 19.875,5.18518333 L19.875,3.33333333 L48.03125,3.33333333 C48.9459969,3.33333333 49.6875,4.07953333 49.6875,5 L49.6875,10.1382667 C44.9875594,10.9317333 41.40625,15.045 41.40625,20 C41.40625,24.955 44.9875594,29.0683333 49.6875,29.8616667 L49.6875,35 C49.6875,35.9205 48.9459969,36.6666667 48.03125,36.6666667 L19.875,36.6666667 L19.875,34.8148333 C19.875,33.8943333 19.1334969,33.1481667 18.21875,33.1481667 C17.3040031,33.1481667 16.5625,33.8943333 16.5625,34.8148333 L16.5625,36.6666667 L4.96875,36.6666667 C4.05403625,36.6666667 3.3125,35.9205 3.3125,35 L3.3125,29.8616667 C8.01245719,29.0683333 11.59375,24.955 11.59375,20 C11.59375,15.045 8.01245719,10.9317333 3.3125,10.1382667 L3.3125,5 Z M16.5625,27.4073333 C16.5625,28.3278333 17.3040031,29.074 18.21875,29.074 C19.1334969,29.074 19.875,28.3278333 19.875,27.4073333 L19.875,23.7036667 C19.875,22.7831667 19.1334969,22.037 18.21875,22.037 C17.3040031,22.037 16.5625,22.7831667 16.5625,23.7036667 L16.5625,27.4073333 Z M16.5625,16.2963 C16.5625,17.2168333 17.3040031,17.963 18.21875,17.963 C19.1334969,17.963 19.875,17.2168333 19.875,16.2963 L19.875,12.5925833 C19.875,11.6721167 19.1334969,10.9259167 18.21875,10.9259167 C17.3040031,10.9259167 16.5625,11.6721167 16.5625,12.5925833 L16.5625,16.2963 Z" id="Shape"></path>
            </g>
        </g>
    </g>
</svg>