<svg width="24" height="13" viewBox="0 0 24 13" fill="none" xmlns="http://www.w3.org/2000/svg">
<path fill-rule="evenodd" clip-rule="evenodd" d="M16.1452 13H20.2339C22.0686 13 23.5363 11.506 23.5363 9.64516V3.35484C23.5363 1.49395 22.0423 0 20.1815 0H3.35484C1.49395 0 0 1.52016 0 3.35484V9.64516C0 11.506 1.49395 13 3.35484 13H7.41734C8.36089 13 9.22581 12.5282 9.72379 11.7157L11.0081 8.33468C11.1653 7.94153 11.506 7.81048 11.7681 7.81048C12.0302 7.81048 12.371 7.94153 12.5282 8.33468L13.7863 11.6371L13.8387 11.7157C14.3367 12.5282 15.2016 13 16.1452 13ZM16.1714 11.9779C15.5686 11.9779 15.0444 11.6896 14.7299 11.2178L13.5242 7.96778C13.2359 7.26012 12.5807 6.81455 11.8206 6.81455C11.0605 6.81455 10.3791 7.26012 10.117 7.96778L8.88511 11.2178C8.54438 11.6896 8.02019 11.9779 7.44357 11.9779H3.35486C2.04438 11.9779 0.995993 10.9295 0.995993 9.6452V3.35488C0.995993 2.0706 2.04438 1.02222 3.35486 1.02222H20.2077C21.5182 1.02222 22.5666 2.0706 22.5666 3.35488V9.6452C22.5666 10.9295 21.5182 11.9779 20.2601 11.9779H16.1714ZM17.6391 8.70163C16.2761 8.70163 15.1753 7.60083 15.1753 6.26413C15.1753 4.92744 16.2761 3.82663 17.6391 3.82663C19.002 3.82663 20.1028 4.92744 20.1028 6.26413C20.0766 7.62704 19.002 8.70163 17.6391 8.70163ZM16.1976 6.26408C16.1976 5.47779 16.8267 4.82255 17.6392 4.82255C18.4255 4.82255 19.0807 5.47779 19.0807 6.26408C19.0807 7.07658 18.4517 7.70561 17.6392 7.70561C16.8529 7.70561 16.1976 7.05037 16.1976 6.26408ZM6.10686 8.70163C4.74396 8.70163 3.64315 7.60083 3.64315 6.26413C3.64315 4.92744 4.74396 3.82663 6.10686 3.82663C7.46977 3.82663 8.57057 4.92744 8.57057 6.26413C8.57057 7.62704 7.49598 8.70163 6.10686 8.70163ZM4.66529 6.26408C4.66529 5.47779 5.29432 4.82255 6.10682 4.82255C6.91932 4.82255 7.57456 5.47779 7.54835 6.26408C7.54835 7.07658 6.91932 7.70561 6.10682 7.70561C5.32053 7.70561 4.66529 7.05037 4.66529 6.26408Z" fill="white"/>
</svg>
