<?xml version="1.0" encoding="UTF-8"?>
<svg width="31px" height="25px" viewBox="0 0 31 25" version="1.1" xmlns="http://www.w3.org/2000/svg" xmlns:xlink="http://www.w3.org/1999/xlink">
    <!-- Generator: Sketch 61.2 (89653) - https://sketch.com -->
    <title>noun_Wallet_1884380</title>
    <desc>Created with Sketch.</desc>
    <g id="Symbols" stroke="none" stroke-width="1" fill="none" fill-rule="evenodd">
        <g id="noun_Wallet_1884380" transform="translate(1.000000, 1.000000)" fill="#FFFFFF" fill-rule="nonzero" stroke="#FFFFFF" stroke-width="0.720520422">
            <path d="M22.3361047,10.8078063 C21.1441906,10.8078063 20.1745718,11.7774819 20.1745718,12.9693392 C20.1745718,14.1612533 21.1442473,15.1309289 22.3361047,15.1309289 C23.5280188,15.1309289 24.4976943,14.1612533 24.4976943,12.9693392 C24.4976943,11.7774819 23.5280188,10.8078063 22.3361047,10.8078063 Z M22.3361047,13.9956104 C21.7702619,13.9956104 21.3098903,13.5352387 21.3098903,12.9693392 C21.3098903,12.4034965 21.7702619,11.9431248 22.3361047,11.9431248 C22.9020042,11.9431248 23.3623758,12.4034965 23.3623758,12.9693392 C23.3623758,13.5352387 22.9020042,13.9956104 22.3361047,13.9956104 Z" id="Shape"></path>
            <path d="M27.8185608,8.09986888 L27.8185608,1.89369394 C27.8185608,0.849493577 26.9661199,0 25.9183384,0 L1.89060824,0 C0.865667389,0 0.031843578,0.849493577 0.031843578,1.89369394 L0.031843578,1.93986267 L0,1.93986267 C0,2.058416 0.0112814072,2.17397639 0.031843578,2.28604502 L0.031843578,21.1976 C0.031843578,22.2400822 0.848272904,23.0566535 1.89060824,23.0566535 L25.9183384,23.0566535 C26.9661199,23.0566535 27.8185608,22.2226788 27.8185608,21.1976 L27.8185608,17.6719827 C28.7833156,17.5820285 29.5413373,16.7610786 29.5413373,15.764488 L29.5413373,9.94002261 C29.5413373,8.96161131 28.7977092,8.18372637 27.8185608,8.09986888 Z M1.89060824,1.10849296 L25.9183384,1.10849296 C26.3458648,1.10849296 26.7070921,1.46808807 26.7070921,1.89369394 L26.7070921,2.88607226 C26.4668482,2.7768857 26.1998178,2.71580774 25.9183384,2.71580774 L1.89060824,2.71580774 C1.53705005,2.71580774 1.23823169,2.49034028 1.14331227,2.16339028 L1.14331227,1.89369394 C1.14331227,1.45340054 1.47158454,1.10849296 1.89060824,1.10849296 Z M26.7070921,21.1976 C26.7070921,21.6184947 26.3606473,21.9481605 25.9183384,21.9481605 L1.89060824,21.9481605 C1.46458229,21.9481605 1.14331227,21.6254782 1.14331227,21.1976 L1.14331227,3.67254801 C1.37266383,3.77020624 1.62524509,3.8243007 1.89060824,3.8243007 L25.9183384,3.8243007 C26.347921,3.8243007 26.6974779,4.15684859 26.6974779,4.60024577 L26.7070921,4.60024577 L26.7070921,8.09199858 L22.1640194,8.09199858 C19.5114438,8.09199858 17.3533607,10.2426966 17.3533607,12.8862306 C17.3533607,15.5297646 19.5114438,17.6804627 22.1640194,17.6804627 L26.7070921,17.6804627 L26.7070921,21.1976 Z M28.4298686,15.764488 C28.4298686,16.2021764 28.0693082,16.5719697 27.6425598,16.5719697 L22.1640194,16.5719697 C21.8453058,16.5719697 21.5358729,16.5315651 21.2406112,16.4557442 C19.6462094,16.0460452 18.4648293,14.6010138 18.4648293,12.8862306 C18.4648293,11.1714474 19.6462094,9.72641602 21.2406112,9.31671702 C21.5358729,9.24084068 21.8453058,9.20049154 22.1640194,9.20049154 L27.6425598,9.20049154 C28.0840351,9.20049154 28.4298686,9.5253354 28.4298686,9.94002261 L28.4298686,15.764488 Z" id="Shape"></path>
        </g>
    </g>
</svg>