<svg width="21" height="20" viewBox="0 0 21 20" fill="none" xmlns="http://www.w3.org/2000/svg">
<mask id="path-1-inside-1_1009_48783" fill="white">
<path d="M10.5104 2.59452e-05C10.4439 -0.00076219 10.3783 0.0164193 10.3211 0.0496803L5.30857 2.8848C5.18351 2.93083 5.09464 3.04038 5.07735 3.16964C5.07719 3.17169 5.07687 3.17374 5.07671 3.17579C5.07477 3.19092 5.0738 3.20605 5.0738 3.22134C5.07364 3.22812 5.07364 3.23505 5.0738 3.24199V8.31678L0.237918 11.054C0.105425 11.1035 0.014618 11.2241 0.00605151 11.3622V11.3664C0.00556676 11.3735 0.00540519 11.3806 0.00540519 11.3877C0.00524362 11.394 0.00524362 11.4002 0.00540519 11.4063V16.7152C-0.0155999 16.8323 0.0254411 16.9518 0.114147 17.0331C0.11447 17.0334 0.114632 17.0336 0.114955 17.0337C0.11544 17.0342 0.115925 17.0347 0.116248 17.0351C0.123196 17.0414 0.130305 17.0473 0.137576 17.0531C0.158904 17.0701 0.182171 17.0846 0.206733 17.0965L5.25274 19.9522C5.3652 20.0159 5.50383 20.0159 5.61613 19.9522L10.5029 17.1882L15.3868 19.9522C15.4992 20.0159 15.6378 20.0159 15.7501 19.9522L20.8181 17.0856C20.9469 17.0128 21.017 16.8706 20.9948 16.727C20.9965 16.7144 20.9974 16.7018 20.9978 16.689V11.4278C21.0047 11.3673 20.9955 11.3059 20.9709 11.25C20.9706 11.2497 20.9704 11.2495 20.9701 11.2492C20.9669 11.2413 20.9635 11.2334 20.9596 11.2259C20.9199 11.1485 20.8525 11.0881 20.7703 11.0561L15.9319 8.31839V3.2214C15.9346 3.06913 15.8369 2.9323 15.6895 2.88202L10.6845 0.0497223C10.6316 0.0191424 10.5718 0.00196053 10.5106 6.79693e-05L10.5104 2.59452e-05ZM10.5027 0.761366L14.8467 3.22133L10.5027 5.67987L6.15532 3.22133L10.5027 0.761366ZM15.207 3.83433V8.31715L10.863 10.7763V6.29227L15.207 3.83433ZM5.79752 3.83496L10.1391 6.29064L10.1393 10.7747L5.79727 8.31834L5.79752 3.83496ZM5.35496 8.97472L9.70192 11.4333L5.43438 13.8483L1.0895 11.3904L5.35496 8.97472ZM15.6476 8.97472L19.9122 11.3905L15.5682 13.8484L11.3011 11.4347L15.6476 8.97472ZM0.729214 12.0021L5.0741 14.4578V19.0342L0.729627 16.5746L0.729214 12.0021ZM10.8634 12.0021L15.2075 14.4578V19.0334L10.8638 16.5744L10.8634 12.0021ZM10.1396 12.0034V16.5754L5.79797 19.0325V14.4561L10.1396 12.0034ZM20.2729 12.0034V16.5754L15.9318 19.0325V14.4561L20.2729 12.0034Z"/>
</mask>
<path d="M10.5104 2.59452e-05C10.4439 -0.00076219 10.3783 0.0164193 10.3211 0.0496803L5.30857 2.8848C5.18351 2.93083 5.09464 3.04038 5.07735 3.16964C5.07719 3.17169 5.07687 3.17374 5.07671 3.17579C5.07477 3.19092 5.0738 3.20605 5.0738 3.22134C5.07364 3.22812 5.07364 3.23505 5.0738 3.24199V8.31678L0.237918 11.054C0.105425 11.1035 0.014618 11.2241 0.00605151 11.3622V11.3664C0.00556676 11.3735 0.00540519 11.3806 0.00540519 11.3877C0.00524362 11.394 0.00524362 11.4002 0.00540519 11.4063V16.7152C-0.0155999 16.8323 0.0254411 16.9518 0.114147 17.0331C0.11447 17.0334 0.114632 17.0336 0.114955 17.0337C0.11544 17.0342 0.115925 17.0347 0.116248 17.0351C0.123196 17.0414 0.130305 17.0473 0.137576 17.0531C0.158904 17.0701 0.182171 17.0846 0.206733 17.0965L5.25274 19.9522C5.3652 20.0159 5.50383 20.0159 5.61613 19.9522L10.5029 17.1882L15.3868 19.9522C15.4992 20.0159 15.6378 20.0159 15.7501 19.9522L20.8181 17.0856C20.9469 17.0128 21.017 16.8706 20.9948 16.727C20.9965 16.7144 20.9974 16.7018 20.9978 16.689V11.4278C21.0047 11.3673 20.9955 11.3059 20.9709 11.25C20.9706 11.2497 20.9704 11.2495 20.9701 11.2492C20.9669 11.2413 20.9635 11.2334 20.9596 11.2259C20.9199 11.1485 20.8525 11.0881 20.7703 11.0561L15.9319 8.31839V3.2214C15.9346 3.06913 15.8369 2.9323 15.6895 2.88202L10.6845 0.0497223C10.6316 0.0191424 10.5718 0.00196053 10.5106 6.79693e-05L10.5104 2.59452e-05ZM10.5027 0.761366L14.8467 3.22133L10.5027 5.67987L6.15532 3.22133L10.5027 0.761366ZM15.207 3.83433V8.31715L10.863 10.7763V6.29227L15.207 3.83433ZM5.79752 3.83496L10.1391 6.29064L10.1393 10.7747L5.79727 8.31834L5.79752 3.83496ZM5.35496 8.97472L9.70192 11.4333L5.43438 13.8483L1.0895 11.3904L5.35496 8.97472ZM15.6476 8.97472L19.9122 11.3905L15.5682 13.8484L11.3011 11.4347L15.6476 8.97472ZM0.729214 12.0021L5.0741 14.4578V19.0342L0.729627 16.5746L0.729214 12.0021ZM10.8634 12.0021L15.2075 14.4578V19.0334L10.8638 16.5744L10.8634 12.0021ZM10.1396 12.0034V16.5754L5.79797 19.0325V14.4561L10.1396 12.0034ZM20.2729 12.0034V16.5754L15.9318 19.0325V14.4561L20.2729 12.0034Z" fill="white"/>
<path d="M10.5104 2.59452e-05L10.7659 -0.966797L10.6461 -0.998438L10.5223 -0.999904L10.5104 2.59452e-05ZM10.3211 0.0496803L10.8134 0.920159L10.8238 0.914147L10.3211 0.0496803ZM5.30857 2.8848L5.65396 3.82326L5.73018 3.79521L5.80089 3.75522L5.30857 2.8848ZM5.07735 3.16964L4.08618 3.03708L4.08258 3.06398L4.08045 3.09104L5.07735 3.16964ZM5.07671 3.17579L6.0686 3.30288L6.0717 3.2787L6.07361 3.25439L5.07671 3.17579ZM5.0738 3.22134L6.07351 3.24517L6.0738 3.23326V3.22134H5.0738ZM5.0738 3.24199H6.0738V3.23034L6.07353 3.2187L5.0738 3.24199ZM5.0738 8.31678L5.56639 9.18705L6.0738 8.89984V8.31678H5.0738ZM0.237918 11.054L0.587876 11.9908L0.661816 11.9632L0.730508 11.9243L0.237918 11.054ZM0.00605151 11.3622L-0.99203 11.3003L-0.993949 11.3312V11.3622H0.00605151ZM0.00605151 11.3664L1.00372 11.4346L1.00605 11.4006V11.3664H0.00605151ZM0.00540519 11.3877L1.00508 11.4133L1.00541 11.4005V11.3877H0.00540519ZM0.00540519 11.4063H1.00541V11.3932L1.00506 11.38L0.00540519 11.4063ZM0.00540519 16.7152L0.989699 16.8917L1.00541 16.8041V16.7152H0.00540519ZM0.114147 17.0331L0.812497 16.3173L0.801398 16.3065L0.789969 16.296L0.114147 17.0331ZM0.114955 17.0337L0.813229 16.3179L0.698054 16.2055L0.55345 16.135L0.114955 17.0337ZM0.116248 17.0351L-0.709405 17.5993L-0.642972 17.6965L-0.555775 17.7757L0.116248 17.0351ZM0.137576 17.0531L-0.48813 17.8332L-0.486261 17.8347L0.137576 17.0531ZM0.206733 17.0965L0.699272 16.2262L0.670351 16.2098L0.640407 16.1954L0.206733 17.0965ZM5.25274 19.9522L5.74548 19.0821L5.74528 19.0819L5.25274 19.9522ZM5.61613 19.9522L5.12381 19.0818L5.12286 19.0824L5.61613 19.9522ZM10.5029 17.1882L10.9954 16.3179L10.503 16.0393L10.0106 16.3178L10.5029 17.1882ZM15.3868 19.9522L15.8795 19.0821L15.8793 19.0819L15.3868 19.9522ZM15.7501 19.9522L15.2578 19.0818L15.2569 19.0824L15.7501 19.9522ZM20.8181 17.0856L20.3258 16.2151L20.3257 16.2152L20.8181 17.0856ZM20.9948 16.727L20.003 16.5999L19.985 16.7399L20.0065 16.8794L20.9948 16.727ZM20.9978 16.689L21.9974 16.7143L21.9978 16.7017V16.689H20.9978ZM20.9978 11.4278L20.0043 11.3137L19.9978 11.3706V11.4278H20.9978ZM20.9709 11.25L21.8866 10.8481L21.8084 10.67L21.6692 10.5341L20.9709 11.25ZM20.9701 11.2492L20.0449 11.6286L20.1235 11.8203L20.2718 11.9649L20.9701 11.2492ZM20.9596 11.2259L21.8495 10.7698L21.8492 10.769L20.9596 11.2259ZM20.7703 11.0561L20.2778 11.9264L20.3405 11.9619L20.4077 11.9881L20.7703 11.0561ZM15.9319 8.31839H14.9319V8.90154L15.4394 9.18872L15.9319 8.31839ZM15.9319 3.2214L14.932 3.20336L14.9319 3.21238V3.2214H15.9319ZM15.6895 2.88202L15.197 3.75233L15.2782 3.7983L15.3666 3.82844L15.6895 2.88202ZM10.6845 0.0497223L10.1835 0.915249L10.192 0.920035L10.6845 0.0497223ZM10.5106 6.79693e-05L10.2552 0.966891L10.3656 0.996063L10.4797 0.999591L10.5106 6.79693e-05ZM10.5027 0.761366L10.9954 -0.1088L10.5029 -0.387734L10.0102 -0.10896L10.5027 0.761366ZM14.8467 3.22133L15.3393 4.09161L16.8766 3.22158L15.3395 2.35116L14.8467 3.22133ZM10.5027 5.67987L10.0104 6.55032L10.5029 6.82881L10.9952 6.55016L10.5027 5.67987ZM6.15532 3.22133L5.66284 2.351L4.12431 3.22158L5.66306 4.09177L6.15532 3.22133ZM15.207 3.83433H16.207V2.11954L14.7146 2.96399L15.207 3.83433ZM15.207 8.31715L15.6997 9.18738L16.207 8.90016V8.31715H15.207ZM10.863 10.7763H9.86297V12.4915L11.3556 11.6465L10.863 10.7763ZM10.863 6.29227L10.3705 5.42193L9.86297 5.70911V6.29227H10.863ZM5.79752 3.83496L6.28984 2.96455L4.79761 2.12051L4.79752 3.8349L5.79752 3.83496ZM10.1391 6.29064L11.1391 6.29061L11.1391 5.70737L10.6314 5.42023L10.1391 6.29064ZM10.1393 10.7747L9.64687 11.645L11.1393 12.4893L11.1393 10.7746L10.1393 10.7747ZM5.79727 8.31834L4.79727 8.31828L4.79723 8.90154L5.30488 9.18872L5.79727 8.31834ZM5.35496 8.97472L5.84726 8.10429L5.35463 7.82568L4.86217 8.10458L5.35496 8.97472ZM9.70192 11.4333L10.1944 12.3036L11.7328 11.433L10.1942 10.5628L9.70192 11.4333ZM5.43438 13.8483L4.94201 14.7187L5.43447 14.9973L5.9269 14.7186L5.43438 13.8483ZM1.0895 11.3904L0.5967 10.5203L-0.940609 11.3909L0.59712 12.2608L1.0895 11.3904ZM15.6476 8.97472L16.1405 8.10463L15.6478 7.82555L15.1551 8.10444L15.6476 8.97472ZM19.9122 11.3905L20.4047 12.2609L21.942 11.3911L20.4051 10.5204L19.9122 11.3905ZM15.5682 13.8484L15.0758 14.7188L15.5682 14.9974L16.0606 14.7188L15.5682 13.8484ZM11.3011 11.4347L10.8085 10.5644L9.27039 11.4349L10.8087 12.3051L11.3011 11.4347ZM0.729214 12.0021L1.22125 11.1316L-0.270941 10.2882L-0.270786 12.0022L0.729214 12.0021ZM5.0741 14.4578H6.0741V13.8743L5.56614 13.5872L5.0741 14.4578ZM5.0741 19.0342L4.58143 19.9045L6.0741 20.7495V19.0342H5.0741ZM0.729627 16.5746L-0.270373 16.5747L-0.27032 17.1576L0.236953 17.4448L0.729627 16.5746ZM10.8634 12.0021L11.3555 11.1316L9.86327 10.288L9.86342 12.0022L10.8634 12.0021ZM15.2075 14.4578H16.2075V13.8744L15.6996 13.5873L15.2075 14.4578ZM15.2075 19.0334L14.7148 19.9037L16.2075 20.7487V19.0334H15.2075ZM10.8638 16.5744L9.86384 16.5745L9.86389 17.1574L10.3712 17.4446L10.8638 16.5744ZM10.1396 12.0034H11.1396V10.2899L9.64768 11.1327L10.1396 12.0034ZM10.1396 16.5754L10.6321 17.4457L11.1396 17.1585V16.5754H10.1396ZM5.79797 19.0325H4.79797V20.7475L6.29052 19.9028L5.79797 19.0325ZM5.79797 14.4561L5.3061 13.5854L4.79797 13.8725V14.4561H5.79797ZM20.2729 12.0034H21.2729V10.2898L19.781 11.1327L20.2729 12.0034ZM20.2729 16.5754L20.7655 17.4457L21.2729 17.1584V16.5754H20.2729ZM15.9318 19.0325H14.9318V20.7476L16.4243 19.9028L15.9318 19.0325ZM15.9318 14.4561L15.4399 13.5854L14.9318 13.8725V14.4561H15.9318ZM10.5223 -0.999904C10.2766 -1.00281 10.033 -0.93958 9.81838 -0.814787L10.8238 0.914147C10.7236 0.972419 10.6111 1.00129 10.4986 0.999956L10.5223 -0.999904ZM9.82876 -0.820736L4.81625 2.01439L5.80089 3.75522L10.8134 0.920097L9.82876 -0.820736ZM4.96318 1.94634C4.49922 2.1171 4.1539 2.53066 4.08618 3.03708L6.06853 3.30219C6.03537 3.55011 5.8678 3.74456 5.65396 3.82326L4.96318 1.94634ZM4.08045 3.09104C4.08141 3.07881 4.08242 3.06905 4.08303 3.06339C4.08335 3.06048 4.08361 3.05819 4.08376 3.0569C4.08389 3.05575 4.08401 3.0548 4.08395 3.05525C4.08394 3.05531 4.08377 3.05677 4.08358 3.05844C4.08337 3.06023 4.08305 3.06304 4.08268 3.06646C4.08195 3.07315 4.08084 3.08393 4.0798 3.09718L6.07361 3.25439C6.07265 3.26662 6.07164 3.27637 6.07103 3.28204C6.07071 3.28494 6.07045 3.28724 6.0703 3.28852C6.07017 3.28968 6.07005 3.29063 6.07011 3.29017C6.07011 3.29012 6.07029 3.28865 6.07048 3.28699C6.07069 3.28519 6.07101 3.28238 6.07138 3.27896C6.0721 3.27227 6.07321 3.26149 6.07426 3.24824L4.08045 3.09104ZM4.08482 3.04869C4.07749 3.10585 4.0738 3.16343 4.0738 3.22134H6.0738C6.0738 3.24867 6.07204 3.27599 6.0686 3.30288L4.08482 3.04869ZM4.07408 3.19751C4.07354 3.22035 4.07355 3.243 4.07407 3.26528L6.07353 3.2187C6.07372 3.22711 6.07373 3.23589 6.07351 3.24517L4.07408 3.19751ZM4.0738 3.24199V8.31678H6.0738V3.24199H4.0738ZM4.58121 7.44652L-0.254671 10.1837L0.730508 11.9243L5.56639 9.18705L4.58121 7.44652ZM-0.11204 10.1172C-0.603006 10.3007 -0.958283 10.7563 -0.99203 11.3003L1.00413 11.4241C0.987519 11.6919 0.813855 11.9064 0.587876 11.9908L-0.11204 10.1172ZM-0.993949 11.3622V11.3664H1.00605V11.3622H-0.993949ZM-0.991622 11.2983C-0.994128 11.3349 -0.994595 11.366 -0.994595 11.3877H1.00541C1.00541 11.3952 1.00526 11.4121 1.00372 11.4346L-0.991622 11.2983ZM-0.994267 11.3621C-0.99486 11.3853 -0.994877 11.4087 -0.99425 11.4326L1.00506 11.38C1.00536 11.3916 1.00535 11.4028 1.00508 11.4133L-0.994267 11.3621ZM-0.994595 11.4063V16.7152H1.00541V11.4063H-0.994595ZM-0.978889 16.5386C-1.06153 16.9994 -0.898114 17.4617 -0.561675 17.7702L0.789969 16.296C0.948996 16.4418 1.03033 16.6651 0.989699 16.8917L-0.978889 16.5386ZM-0.584203 17.7488C-0.5842 17.7488 -0.584172 17.7489 -0.584139 17.7489C-0.584105 17.7489 -0.584051 17.749 -0.583985 17.7491C-0.583857 17.7492 -0.583646 17.7494 -0.583385 17.7496C-0.582885 17.7501 -0.582002 17.751 -0.580899 17.7521C-0.578823 17.7541 -0.574841 17.7579 -0.569772 17.7627C-0.559936 17.7719 -0.541129 17.7892 -0.516217 17.8094C-0.456437 17.858 -0.39173 17.8992 -0.32354 17.9325L0.55345 16.135C0.621317 16.1681 0.685781 16.2091 0.74532 16.2575C0.77011 16.2776 0.788796 16.2948 0.798501 16.3039C0.807023 16.3119 0.814437 16.3192 0.812497 16.3173L-0.584203 17.7488ZM-0.583318 17.7496C-0.579999 17.7528 -0.595783 17.7376 -0.6131 17.7192C-0.630322 17.7009 -0.668673 17.6589 -0.709405 17.5993L0.9419 16.471C0.900846 16.4109 0.86209 16.3685 0.844424 16.3497C0.834293 16.3389 0.825915 16.3304 0.821103 16.3257C0.818588 16.3231 0.816535 16.3211 0.815286 16.3199C0.814644 16.3193 0.81412 16.3188 0.81379 16.3184C0.813622 16.3183 0.813483 16.3181 0.813393 16.3181C0.813309 16.318 0.813235 16.3179 0.813229 16.3179L-0.583318 17.7496ZM-0.555775 17.7757C-0.525814 17.8029 -0.499694 17.8239 -0.488128 17.8332L0.76328 16.273C0.762172 16.2722 0.764614 16.2741 0.768634 16.2775C0.77286 16.281 0.779746 16.2869 0.78827 16.2946L-0.555775 17.7757ZM-0.486261 17.8347C-0.404321 17.9001 -0.316936 17.9542 -0.226942 17.9975L0.640407 16.1954C0.681278 16.2151 0.722129 16.2402 0.761412 16.2716L-0.486261 17.8347ZM-0.285807 17.9667L4.7602 20.8225L5.74528 19.0819L0.699272 16.2262L-0.285807 17.9667ZM4.76 20.8224C5.17793 21.0591 5.69093 21.0594 6.10941 20.8221L5.12286 19.0824C5.31674 18.9724 5.55247 18.9728 5.74548 19.0821L4.76 20.8224ZM6.10845 20.8227L10.9952 18.0586L10.0106 16.3178L5.12381 19.0818L6.10845 20.8227ZM10.0104 18.0585L14.8942 20.8225L15.8793 19.0819L10.9954 16.3179L10.0104 18.0585ZM14.894 20.8224C15.3119 21.0591 15.8249 21.0594 16.2434 20.8221L15.2569 19.0824C15.4508 18.9724 15.6865 18.9728 15.8795 19.0821L14.894 20.8224ZM16.2425 20.8226L21.3104 17.956L20.3257 16.2152L15.2578 19.0818L16.2425 20.8226ZM21.3103 17.9561C21.7919 17.6837 22.0702 17.1394 21.9832 16.5746L20.0065 16.8794C19.9637 16.6018 20.1018 16.3418 20.3258 16.2151L21.3103 17.9561ZM21.9867 16.8541C21.9927 16.8079 21.9962 16.7613 21.9974 16.7143L19.9981 16.6637C19.9986 16.6423 20.0003 16.6209 20.003 16.5999L21.9867 16.8541ZM21.9978 16.689V11.4278H19.9978V16.689H21.9978ZM21.9912 11.5418C22.0183 11.3056 21.9824 11.0662 21.8866 10.8481L20.0552 11.6519C20.0086 11.5457 19.9911 11.4289 20.0043 11.3137L21.9912 11.5418ZM21.6692 10.5341C21.6689 10.5338 21.6688 10.5337 21.6685 10.5334L20.2718 11.9649C20.2721 11.9653 20.2723 11.9655 20.2727 11.9658L21.6692 10.5341ZM21.8954 10.8698C21.8887 10.8535 21.8727 10.815 21.8495 10.7698L20.0697 11.682C20.0615 11.666 20.0554 11.6528 20.0516 11.6442C20.0478 11.6357 20.0453 11.6297 20.0449 11.6286L21.8954 10.8698ZM21.8492 10.769C21.6959 10.4705 21.439 10.2433 21.1328 10.1241L20.4077 11.9881C20.2659 11.9329 20.1439 11.8264 20.0701 11.6827L21.8492 10.769ZM21.2627 10.1858L16.4244 7.44805L15.4394 9.18872L20.2778 11.9264L21.2627 10.1858ZM16.9319 8.31839V3.2214H14.9319V8.31839H16.9319ZM16.9317 3.23943C16.9426 2.63922 16.558 2.12177 16.0125 1.9356L15.3666 3.82844C15.1157 3.74284 14.9267 3.49904 14.932 3.20336L16.9317 3.23943ZM16.182 2.01171L11.177 -0.820591L10.192 0.920035L15.197 3.75233L16.182 2.01171ZM11.1854 -0.815764C10.9904 -0.928643 10.7692 -0.992417 10.5415 -0.999455L10.4797 0.999591C10.3745 0.996338 10.2729 0.966928 10.1835 0.915208L11.1854 -0.815764ZM10.766 -0.966755L10.7659 -0.966797L10.255 0.966849L10.2552 0.966891L10.766 -0.966755ZM10.0099 1.63153L14.354 4.09149L15.3395 2.35116L10.9954 -0.1088L10.0099 1.63153ZM14.3542 2.35104L10.0101 4.80959L10.9952 6.55016L15.3393 4.09161L14.3542 2.35104ZM10.9949 4.80943L6.64758 2.35088L5.66306 4.09177L10.0104 6.55032L10.9949 4.80943ZM6.64779 4.09165L10.9952 1.63169L10.0102 -0.10896L5.66284 2.351L6.64779 4.09165ZM14.207 3.83433V8.31715H16.207V3.83433H14.207ZM14.7144 7.44691L10.3703 9.90606L11.3556 11.6465L15.6997 9.18738L14.7144 7.44691ZM11.863 10.7763V6.29227H9.86297V10.7763H11.863ZM11.3554 7.16261L15.6995 4.70467L14.7146 2.96399L10.3705 5.42193L11.3554 7.16261ZM5.3052 4.70537L9.64677 7.16105L10.6314 5.42023L6.28984 2.96455L5.3052 4.70537ZM9.1391 6.29068L9.13926 10.7747L11.1393 10.7746L11.1391 6.29061L9.1391 6.29068ZM10.6316 9.90429L6.28965 7.44796L5.30488 9.18872L9.64687 11.645L10.6316 9.90429ZM6.79727 8.3184L6.79752 3.83502L4.79752 3.8349L4.79727 8.31828L6.79727 8.3184ZM4.86267 9.84515L9.20962 12.3037L10.1942 10.5628L5.84726 8.10429L4.86267 9.84515ZM9.2094 10.563L4.94187 12.978L5.9269 14.7186L10.1944 12.3036L9.2094 10.563ZM5.92676 12.9779L1.58187 10.52L0.59712 12.2608L4.94201 14.7187L5.92676 12.9779ZM1.58229 12.2606L5.84776 9.84487L4.86217 8.10458L0.5967 10.5203L1.58229 12.2606ZM15.1547 9.84482L19.4194 12.2606L20.4051 10.5204L16.1405 8.10463L15.1547 9.84482ZM19.4198 10.5202L15.0757 12.9781L16.0606 14.7188L20.4047 12.2609L19.4198 10.5202ZM16.0605 12.978L11.7934 10.5643L10.8087 12.3051L15.0758 14.7188L16.0605 12.978ZM11.7936 12.305L16.1401 9.84501L15.1551 8.10444L10.8085 10.5644L11.7936 12.305ZM0.237175 12.8727L4.58206 15.3284L5.56614 13.5872L1.22125 11.1316L0.237175 12.8727ZM4.0741 14.4578V19.0342H6.0741V14.4578H4.0741ZM5.56678 18.164L1.2223 15.7044L0.236953 17.4448L4.58143 19.9045L5.56678 18.164ZM1.72963 16.5745L1.72921 12.002L-0.270786 12.0022L-0.270373 16.5747L1.72963 16.5745ZM10.3713 12.8727L14.7154 15.3283L15.6996 13.5873L11.3555 11.1316L10.3713 12.8727ZM14.2075 14.4578V19.0334H16.2075V14.4578H14.2075ZM15.7001 18.1632L11.3565 15.7042L10.3712 17.4446L14.7148 19.9037L15.7001 18.1632ZM11.8638 16.5743L11.8634 12.002L9.86342 12.0022L9.86384 16.5745L11.8638 16.5743ZM9.13955 12.0034V16.5754H11.1396V12.0034H9.13955ZM9.64701 15.7051L5.30543 18.1622L6.29052 19.9028L10.6321 17.4457L9.64701 15.7051ZM6.79797 19.0325V14.4561H4.79797V19.0325H6.79797ZM6.28984 15.3268L10.6314 12.8741L9.64768 11.1327L5.3061 13.5854L6.28984 15.3268ZM19.2729 12.0034V16.5754H21.2729V12.0034H19.2729ZM19.7804 15.7051L15.4392 18.1623L16.4243 19.9028L20.7655 17.4457L19.7804 15.7051ZM16.9318 19.0325V14.4561H14.9318V19.0325H16.9318ZM16.4237 15.3267L20.7648 12.874L19.781 11.1327L15.4399 13.5854L16.4237 15.3267Z" fill="white" mask="url(#path-1-inside-1_1009_48783)"/>
</svg>
