<?xml version="1.0" encoding="UTF-8"?>
<svg width="23px" height="21px" viewBox="0 0 23 21" version="1.1" xmlns="http://www.w3.org/2000/svg" xmlns:xlink="http://www.w3.org/1999/xlink">
    <title>noun_blockchain peer connected network for mining techn_2930571</title>
    <g id="SPIN---MOBILE" stroke="none" stroke-width="1" fill="none" fill-rule="evenodd">
        <g id="SPIN---USER-PROFILE---WORLDS---NO-CONTENT" transform="translate(-334.000000, -313.000000)" fill="#FFFFFF" fill-rule="nonzero">
            <g id="Group" transform="translate(334.000000, 313.000000)">
                <path d="M6,15 C5.929,15 5.859,14.985 5.793,14.955 L0.293,12.455 C0.115,12.374 0,12.196 0,12 C0,11.804 0.115,11.626 0.293,11.545 L5.793,9.045 C5.925,8.985 6.075,8.985 6.207,9.045 L11.707,11.545 C11.885,11.626 12,11.804 12,12 C12,12.196 11.885,12.374 11.707,12.455 L6.207,14.955 C6.141,14.985 6.071,15 6,15 Z M1.708,12 L6,13.951 L10.292,12 L6,10.049 L1.708,12 Z" id="Shape"></path>
                <path d="M6,21 C5.929,21 5.859,20.985 5.793,20.955 L0.293,18.455 C0.042,18.341 -0.069,18.044 0.045,17.793 C0.159,17.543 0.453,17.429 0.707,17.545 L6,19.951 L11.293,17.545 C11.547,17.429 11.841,17.543 11.955,17.793 C12.069,18.044 11.958,18.341 11.707,18.455 L6.207,20.955 C6.141,20.985 6.071,21 6,21 Z" id="Path"></path>
                <path d="M6,21 C5.724,21 5.5,20.776 5.5,20.5 L5.5,14.5 C5.5,14.224 5.724,14 6,14 C6.276,14 6.5,14.224 6.5,14.5 L6.5,20.5 C6.5,20.776 6.276,21 6,21 Z" id="Path"></path>
                <path d="M11.5,18.5 C11.224,18.5 11,18.276 11,18 L11,12 C11,11.724 11.224,11.5 11.5,11.5 C11.776,11.5 12,11.724 12,12 L12,18 C12,18.276 11.776,18.5 11.5,18.5 Z" id="Path"></path>
                <path d="M11.5,6.5 C11.429,6.5 11.359,6.485 11.293,6.455 L5.793,3.955 C5.615,3.874 5.5,3.696 5.5,3.5 C5.5,3.304 5.615,3.126 5.793,3.045 L11.293,0.545 C11.425,0.485 11.575,0.485 11.707,0.545 L17.207,3.045 C17.385,3.126 17.5,3.304 17.5,3.5 C17.5,3.696 17.385,3.874 17.207,3.955 L11.707,6.455 C11.641,6.485 11.571,6.5 11.5,6.5 Z M7.208,3.5 L11.5,5.451 L15.792,3.5 L11.5,1.549 L7.208,3.5 Z" id="Shape"></path>
                <path d="M11.5,12.5 C11.224,12.5 11,12.276 11,12 L11,6 C11,5.724 11.224,5.5 11.5,5.5 C11.776,5.5 12,5.724 12,6 L12,12 C12,12.276 11.776,12.5 11.5,12.5 Z" id="Path"></path>
                <path d="M6,10 C5.724,10 5.5,9.776 5.5,9.5 L5.5,3.5 C5.5,3.224 5.724,3 6,3 C6.276,3 6.5,3.224 6.5,3.5 L6.5,9.5 C6.5,9.776 6.276,10 6,10 Z" id="Path"></path>
                <path d="M17,10 C16.724,10 16.5,9.776 16.5,9.5 L16.5,3.5 C16.5,3.224 16.724,3 17,3 C17.276,3 17.5,3.224 17.5,3.5 L17.5,9.5 C17.5,9.776 17.276,10 17,10 Z" id="Path"></path>
                <path d="M17,15 C16.929,15 16.859,14.985 16.793,14.955 L11.293,12.455 C11.115,12.374 11,12.196 11,12 C11,11.804 11.115,11.626 11.293,11.545 L16.793,9.045 C16.925,8.985 17.075,8.985 17.207,9.045 L22.707,11.545 C22.885,11.626 23,11.804 23,12 C23,12.196 22.885,12.374 22.707,12.455 L17.207,14.955 C17.141,14.985 17.071,15 17,15 Z M12.708,12 L17,13.951 L21.292,12 L17,10.049 L12.708,12 Z" id="Shape"></path>
                <path d="M17,21 C16.929,21 16.859,20.985 16.793,20.955 L11.293,18.455 C11.042,18.341 10.931,18.044 11.045,17.793 C11.159,17.543 11.453,17.429 11.707,17.545 L17,19.951 L22.293,17.545 C22.547,17.429 22.841,17.543 22.955,17.793 C23.069,18.044 22.958,18.341 22.707,18.455 L17.207,20.955 C17.141,20.985 17.071,21 17,21 Z" id="Path"></path>
                <path d="M17,21 C16.724,21 16.5,20.776 16.5,20.5 L16.5,14.5 C16.5,14.224 16.724,14 17,14 C17.276,14 17.5,14.224 17.5,14.5 L17.5,20.5 C17.5,20.776 17.276,21 17,21 Z" id="Path"></path>
                <path d="M22.5,18.5 C22.224,18.5 22,18.276 22,18 L22,12 C22,11.724 22.224,11.5 22.5,11.5 C22.776,11.5 23,11.724 23,12 L23,18 C23,18.276 22.776,18.5 22.5,18.5 Z" id="Path"></path>
                <path d="M0.5,18.5 C0.224,18.5 0,18.276 0,18 L0,12 C0,11.724 0.224,11.5 0.5,11.5 C0.776,11.5 1,11.724 1,12 L1,18 C1,18.276 0.776,18.5 0.5,18.5 Z" id="Path"></path>
            </g>
        </g>
    </g>
</svg>