<?xml version="1.0" encoding="UTF-8"?>
<svg width="25px" height="18px" viewBox="0 0 25 18" version="1.1" xmlns="http://www.w3.org/2000/svg" xmlns:xlink="http://www.w3.org/1999/xlink">
    <title>noun_Space_1490778</title>
    <g id="SPIN---MOBILE" stroke="none" stroke-width="1" fill="none" fill-rule="evenodd">
        <g id="SPIN---MOBILE---PAGE-11C---SPINNER-PROFILE---WORLDS---USER-VIEW" transform="translate(-328.000000, -313.000000)" fill="#FFFFFF" fill-rule="nonzero">
            <g id="noun_Space_1490778" transform="translate(328.000000, 313.000000)">
                <path d="M0.211313219,15.2440399 C0.631966233,16.0824071 1.60472633,16.5015907 3.10330269,16.5015907 C3.95205999,16.488287 4.7974421,16.3917587 5.62722078,16.213402 L6.75772575,15.9514122 C9.44862702,18.1589152 13.1751941,18.6234779 16.328879,17.1445751 C19.482564,15.6656723 21.4986364,12.508131 21.5068721,9.03488303 C21.5068721,8.85149022 21.5068721,8.6680974 21.4805812,8.48470458 L22.3744689,7.72493432 C24.609188,5.70761331 25.4242033,4.05707793 24.7932237,2.79952716 C23.9256269,1.09659384 20.8496017,1.4371805 18.273102,2.09215486 C15.5798925,-0.151639784 11.8247677,-0.63403311 8.6485629,0.855760952 C5.47235812,2.34555501 3.45241826,5.53673372 3.47137408,9.03488303 C3.47137408,9.21827585 3.47137408,9.40166867 3.49766489,9.58506149 C1.42069064,11.2617958 -0.682574436,13.5411066 0.211313219,15.2440399 Z M12.4891231,16.4491927 C11.1352154,16.4471123 9.80772699,16.0756267 8.65066432,15.3750348 C10.6544518,14.6986474 12.6052933,13.8755009 14.4872249,12.9123312 C16.3693787,11.9719632 18.1795658,10.8948989 19.9031324,9.68985739 C19.5506187,13.5109984 16.3398128,16.4382828 12.4891231,16.4491927 Z M23.3735198,3.53309844 C23.5838463,3.978481 22.9002852,5.15743485 21.1913823,6.67697535 C20.8684059,5.49246021 20.3046422,4.38670631 19.5350611,3.42830255 C22.0063975,2.93052203 23.1894841,3.19251178 23.3735198,3.53309844 Z M12.4891231,1.62057332 C16.1167901,1.63221424 19.2111488,4.2405213 19.82426,7.80353125 C17.9187046,9.22668204 15.8857355,10.4720205 13.7510821,11.5237856 C11.6382212,12.6141371 9.42926547,13.5086647 7.15208795,14.196081 C5.07237682,12.0586767 4.47733438,8.88893037 5.64105054,6.14689828 C6.80476671,3.4048662 9.50151912,1.62241169 12.4891231,1.62057332 Z M3.78686384,11.3927907 C4.10984028,12.5773059 4.67360394,13.6830598 5.44318508,14.6414635 C3.20846595,15.1130451 1.84134365,14.9820502 1.60472633,14.5366676 C1.36810901,14.0912851 1.92021609,13.0695251 3.78686384,11.3927907 Z" id="Shape"></path>
            </g>
        </g>
    </g>
</svg>